<?xml version="1.0" encoding="utf-8"?>
<!-- Generator: Adobe Illustrator 25.0.1, SVG Export Plug-In . SVG Version: 6.00 Build 0)  -->
<svg version="1.0" id="Layer_1" xmlns="http://www.w3.org/2000/svg" xmlns:xlink="http://www.w3.org/1999/xlink" x="0px" y="0px"
	 viewBox="0 0 243.3 173.1" style="enable-background:new 0 0 243.3 173.1;" xml:space="preserve">
<style type="text/css">
	.st0{fill:#1D1D1B;}
	.st1{fill:url(#SVGID_1_);}
	.st2{fill:url(#SVGID_2_);}
	.st3{fill:#FFFFFF;}
	.st4{fill:#A5A5A4;}
	.st5{fill:url(#SVGID_3_);}
	.st6{fill:url(#SVGID_4_);}
	.st7{fill:url(#SVGID_5_);}
	.st8{fill:url(#SVGID_6_);}
</style>
<path class="st0" d="M158,100.9h1.2v3.4c0,0.8,0,1.9,1.6,1.9s1.5-1,1.5-1.8v-3.4h1.2v3.4c0,1,0,2.8-2.7,2.8s-2.8-1.8-2.8-2.8V100.9z
	"/>
<path class="st0" d="M164.8,100.9h1.4l3.4,4.5l0,0v-4.5h1.1v6h-1.4l-3.5-4.5l0,0v4.5h-1.1L164.8,100.9z"/>
<path class="st0" d="M172.7,100.9h1.2v6h-1.2V100.9z"/>
<path class="st0" d="M175,100.9h1.3l1.8,4.8l1.8-4.8h1.3l-2.5,6h-1.2L175,100.9z"/>
<path class="st0" d="M183.1,100.9h4.8v0.9h-3.8v1.5h3.6v0.9h-3.6v1.7h3.8v0.9h-4.9L183.1,100.9z"/>
<path class="st0" d="M189.8,100.9h3.5c1.4,0,1.9,0.7,1.9,1.6c0,0.6-0.3,1.2-0.9,1.4l0,0c0.7,0.1,0.8,0.8,0.8,1.6
	c0,0.4,0.1,0.9,0.2,1.3h-1.3c-0.1-0.3-0.2-0.6-0.1-0.9c0-0.9-0.1-1.5-1-1.5h-2v2.4h-1.1L189.8,100.9z M193,103.6c0.7,0,1-0.2,1-0.9
	s-0.4-0.9-1-0.9h-2.1v1.8H193z"/>
<path class="st0" d="M199.7,100.8c0.9,0,2.6,0.2,2.7,1.8h-1.3c0-0.4-0.4-0.9-1.4-0.9c-0.8,0-1.3,0.2-1.3,0.8c0,1.4,4.1,0.1,4.1,2.6
	c0,1.5-1.5,1.9-2.7,1.9c-2,0-2.8-0.8-2.8-2.1h1.3c0,0.8,0.6,1.1,1.6,1.1c0.7,0,1.4-0.2,1.4-0.9c0-1.4-4.1-0.2-4.1-2.6
	C197.2,101.3,198.3,100.8,199.7,100.8z"/>
<path class="st0" d="M204.4,100.9h1.2v6h-1.2V100.9z"/>
<path class="st0" d="M208.7,101.9h-2.1v-0.9h5.5v0.9h-2.1v5.1h-1.2V101.9z"/>
<path class="st0" d="M215.4,104.6l-2.4-3.7h1.5l1.6,2.7l1.6-2.7h1.5l-2.5,3.7v2.3h-1.2L215.4,104.6z"/>
<path class="st0" d="M74.3,66.2h3.4c0.9-0.1,1.7,0.5,1.8,1.4c0,0.1,0,0.3,0,0.4c0.1,0.9-0.6,1.8-1.6,1.8c-0.1,0-0.2,0-0.2,0h-2.3
	v2.2h-1.2V66.2z M75.5,68.9h1.9c0.7,0,1-0.2,1-0.9c0-0.5-0.3-0.9-0.7-0.9h-2.1L75.5,68.9z"/>
<path class="st0" d="M81.2,66.2h3.5c1.4,0,1.9,0.7,1.9,1.6c0.1,0.6-0.3,1.2-0.9,1.4l0,0c0.7,0.1,0.8,0.8,0.8,1.6
	c0,0.4,0,0.9,0.2,1.3h-1.2c-0.1-0.3-0.2-0.6-0.1-0.9c0-0.8-0.1-1.4-1-1.4h-2V72h-1.1V66.2z M84.4,68.8c0.7,0,1-0.2,1-0.9
	s-0.4-0.8-1-0.8h-2v1.7H84.4z"/>
<path class="st0" d="M88.4,66.2h1.2V72h-1.2V66.2z"/>
<path class="st0" d="M91.4,66.2h4.6v0.9h-3.5v1.5h3.3v0.9h-3.3V72h-1.2V66.2z"/>
<path class="st0" d="M100,69.8l-2.4-3.6H99l1.6,2.6l1.6-2.6h1.5l-2.4,3.6V72H100L100,69.8z"/>
<path class="st0" d="M106.8,66c0.9,0,2.6,0.2,2.7,1.9h-1.3c0-0.4-0.4-0.9-1.4-0.9c-0.8,0-1.3,0.3-1.3,0.8c0,1.4,4.2,0,4.2,2.6
	c0,1.5-1.5,1.9-2.7,1.9c-2,0-2.8-0.8-2.8-2.1h1.3c0,0.8,0.6,1.1,1.6,1.1c0.7,0,1.4-0.2,1.4-0.9c0-1.5-4.1-0.2-4.1-2.6
	C104.4,66.6,105.5,66,106.8,66z"/>
<path class="st0" d="M117.7,72H117l-0.2-0.8c-0.5,0.6-1.3,1-2.1,0.9c-1.7,0.1-3.2-1.2-3.3-2.9s1.2-3.2,2.9-3.3c0.1,0,0.2,0,0.4,0
	c1.7,0,2.8,0.9,2.9,2.1h-1.3c-0.2-0.7-0.9-1.2-1.7-1.1c-1.4,0-2,0.9-2,2.2c-0.1,1,0.6,2,1.6,2.1c0.1,0,0.2,0,0.3,0
	c0.9,0.1,1.8-0.5,1.9-1.5c0,0,0,0,0,0c0,0,0-0.1,0-0.1h-1.6v-0.9h2.7V72z"/>
<path class="st0" d="M119.1,69.1c-0.1-1.8,1.3-3.4,3.1-3.5c1.8-0.1,3.4,1.3,3.5,3.1c0.1,1.8-1.3,3.4-3.1,3.5c-0.1,0-0.1,0-0.2,0
	c-1.6,0.2-3.1-0.9-3.3-2.5C119.1,69.5,119,69.3,119.1,69.1z M124.4,69.1c0.1-1.1-0.8-2.1-1.9-2.2c-1.1-0.1-2.1,0.8-2.2,1.9
	c0,0.1,0,0.2,0,0.3c-0.1,1.1,0.8,2.1,1.9,2.2s2.1-0.8,2.2-1.9l0,0C124.4,69.3,124.4,69.2,124.4,69.1z"/>
<path class="st0" d="M126.9,66.2h1.2v4.9h3.4v1h-4.6V66.2z"/>
<path class="st0" d="M74.4,84.6c0-3.4,0-4,0-4.7c-0.1-0.7-0.2-1.2-0.9-1.2c-0.3,0-0.5,0-0.8,0c-0.1,0-0.2-0.1-0.2-0.1
	s0.1-0.2,0.3-0.2c1,0,2.5,0,2.6,0c0.5,0,1.6,0,2.6,0c3.8,0,4.7,2.2,4.7,3.3c0,1.7-1.1,2.8-2.3,3.8c1.7,0.5,4,2.1,4,4.5
	s-1.8,4.8-5.6,4.8c-0.4,0-1.2,0-1.9-0.1l-1.4-0.1h-0.9c-0.4,0-1,0.1-1.3,0.1s-0.3-0.1-0.3-0.2s0.1-0.1,0.2-0.1l0.7-0.1
	c0.4-0.1,0.5-0.6,0.6-1.2c0.1-1.6,0.2-3.1,0.1-4.7L74.4,84.6z M76.3,85c0,0.2,0,0.2,0.2,0.2c0.5,0.1,0.9,0.1,1.4,0.1
	c1.2,0,1.7,0,2.2-0.6c0.6-0.6,0.9-1.5,0.9-2.3c0-1.7-0.9-3.5-3.2-3.5c-0.4,0-0.8,0-1.1,0.1c-0.2,0-0.3,0.1-0.3,0.2V85z M76.3,87.4
	V92c0.1,1,0.1,1.3,0.8,1.6c0.6,0.2,1.3,0.3,2,0.3c1.5,0,3.3-0.6,3.3-3.3c0-1.6-0.8-3.1-2.2-4c-0.6-0.3-1.3-0.5-2-0.6
	c-0.3,0-1.4,0-1.8,0c-0.1,0-0.1,0-0.1,0.2L76.3,87.4z"/>
<path class="st0" d="M88.4,84.6c0-3.4,0-4-0.1-4.7s-0.2-1.1-0.9-1.2c-0.3,0-0.5,0-0.8,0c-0.1,0-0.2-0.1-0.2-0.2
	c0-0.1,0.1-0.2,0.4-0.2c1,0,2.5,0,2.6,0h5.3c0.3,0,0.7,0,1-0.1c0.2,0,0.2-0.1,0.3-0.1s0.1,0.1,0.1,0.2c-0.1,0.3-0.1,0.7-0.2,1
	c0,0.2-0.1,1.2-0.1,1.4c0,0.1-0.1,0.2-0.2,0.2c-0.1,0-0.2-0.1-0.2-0.3c0-0.3,0-0.5-0.1-0.8c-0.2-0.3-0.4-0.5-1.6-0.7
	c-0.4,0-3-0.1-3.2-0.1c-0.1,0-0.1,0.1-0.1,0.2v5.9c0,0.2,0,0.2,0.1,0.2c0.3,0,3.2,0,3.8-0.1s0.9-0.1,1.1-0.3s0.3-0.3,0.3-0.3
	s0.1,0.1,0.1,0.2s-0.1,0.5-0.2,1.2c0,0.4-0.1,1.2-0.1,1.4s0,0.4-0.2,0.4s-0.2-0.1-0.2-0.2c0-0.2,0-0.5-0.1-0.7
	c-0.1-0.3-0.3-0.6-1.2-0.7c-0.6-0.1-3-0.1-3.4-0.1c-0.1,0-0.2,0.1-0.2,0.2v5.5c0,1.4,0.5,1.7,2.7,1.7c0.8,0,1.5,0,2.2-0.2
	c0.6-0.3,1-0.8,1-1.5c0-0.3,0.1-0.3,0.2-0.3s0.2,0.2,0.2,0.3c-0.1,0.7-0.2,1.4-0.3,2.1c-0.2,0.6-0.4,0.6-1.2,0.6
	c-1.7,0-3-0.1-3.9-0.1s-1.5-0.1-1.8-0.1h-1c-0.5,0-0.9,0.1-1.3,0.1s-0.4-0.1-0.4-0.2c0-0.1,0.1-0.2,0.2-0.2l0,0
	c0.2,0,0.5-0.1,0.7-0.1c0.4-0.1,0.5-0.5,0.6-1.1c0.1-1.6,0.2-3.1,0.1-4.7L88.4,84.6z"/>
<path class="st0" d="M117.7,94.6h-3.9c-0.8,0.1-1.6-0.1-2.4-0.4c-1-0.5-1.8-1.6-3-3.2c-0.9-1.2-1.9-2.6-2.4-3.2
	c-0.1-0.1-0.2-0.1-0.3-0.1l-2.9-0.1c-0.1,0-0.2,0.1-0.2,0.2v0.5c0,2.1,0,3.8,0.1,4.7c0.1,0.6,0.2,1,0.9,1.2c0.3,0.1,0.7,0.1,1,0.1
	c0.1,0,0.2,0.1,0.2,0.1l0,0c0,0.1-0.1,0.2-0.3,0.2c-1.2,0-2.7-0.1-2.8-0.1s-1.5,0.1-2.2,0.1c-0.2,0-0.4,0-0.4-0.2
	c0-0.1,0.1-0.2,0.2-0.2l0,0c0.2,0,0.5,0,0.7-0.1c0.4-0.1,0.5-0.5,0.6-1.2c0.1-1.6,0.2-3.1,0.1-4.7v-3.8c0-3.4,0-4-0.1-4.7
	s-0.2-1.1-0.9-1.2c-0.3,0-0.5,0-0.8,0c-0.1,0-0.2-0.1-0.2-0.2c0-0.1,0.1-0.2,0.4-0.2c1,0,2.5,0.1,2.7,0.1s2.1-0.1,2.8-0.1
	c1.5-0.1,2.9,0.3,4.2,1c0.9,0.7,1.5,1.8,1.6,2.9c0,1.6-0.7,3.2-2.7,4.9c1.8,2.3,3.4,4.3,4.7,5.6c0.6,0.8,1.5,1.3,2.5,1.5
	c0.4,0.1,2.6,0.1,2.7,0.1 M102.7,86.4c0,0.1,0.1,0.2,0.2,0.3c0.8,0.2,1.6,0.4,2.5,0.3c0.6,0.1,1.2-0.1,1.7-0.4
	c1-0.8,1.5-2.1,1.3-3.3c0-2.7-1.5-4.3-3.9-4.3c-0.5,0-1.1,0-1.6,0.1c-0.1,0-0.2,0.1-0.2,0.2V86.4z"/>
<path class="st0" d="M127.8,94.4c-0.3-0.2-0.3-0.2-0.3-0.8c0-1.1,0.1-1.9,0.1-2.3s0-0.4,0.2-0.4s0.2,0.1,0.2,0.2
	c0,0.3,0,0.5,0.1,0.8c0.4,1.6,2,2.1,3.6,2.1c2.2,0,3.4-1.2,3.4-2.9s-0.8-2.3-2.8-3.8l-1-0.8c-2.4-1.8-3.2-3.1-3.2-4.6
	c0-2.6,2-4.1,5-4.1c0.8,0,1.6,0.1,2.3,0.3c0.3,0.1,0.5,0.1,0.8,0.1c0.2,0,0.2,0,0.2,0.2c-0.1,0.8-0.1,1.5-0.1,2.3
	c0,0.3,0,0.5-0.2,0.5c-0.2,0-0.2-0.1-0.2-0.3c-0.1-0.4-0.2-0.7-0.3-1.1c-0.2-0.3-0.9-1.1-2.9-1.1c-1.6,0-3,0.8-3,2.3
	c0,1.4,0.7,2.2,2.9,3.7l0.6,0.4c2.7,1.8,3.7,3.4,3.7,5.2c0,1.5-0.8,2.9-2.1,3.7c-1.1,0.6-2.3,0.8-3.5,0.8
	C130,95,128.9,94.8,127.8,94.4z"/>
<path class="st0" d="M150.1,78.4c0,0.7-0.1,2.3-0.1,2.5s-0.1,0.3-0.2,0.3s-0.2-0.1-0.2-0.4v-0.2c-0.1-0.7-0.6-1.2-2.7-1.2h-1.8v9.1
	c0,2.1,0,3.8,0.1,4.7c0.1,0.6,0.2,1,0.9,1.1c0.3,0.1,0.7,0.1,1,0.1c0.1,0,0.2,0,0.2,0.1c0,0,0,0,0,0l0,0c0,0.1-0.1,0.2-0.4,0.2
	c-1.2,0-2.7-0.1-2.8-0.1s-1.7,0.1-2.3,0.1c-0.3,0-0.3-0.1-0.3-0.2s0.1-0.2,0.2-0.2c0.2,0,0.4,0,0.7-0.1c0.5-0.1,0.6-0.5,0.7-1.2
	c0.1-0.9,0.1-2.6,0.1-4.7v-9.1l-2.2,0.1c-1.4,0-1.9,0.2-2.3,0.7c-0.1,0.2-0.3,0.4-0.4,0.7c-0.1,0.2-0.1,0.2-0.2,0.2
	c-0.1,0-0.2-0.1-0.2-0.2c0-0.2,0.5-2.2,0.5-2.4H150.1z"/>
<path class="st0" d="M218.2,88.4c0,2.1,0,3.8,0.1,4.7c0.1,0.6,0.1,1,0.8,1.1c0.3,0.1,0.7,0.1,1,0.1c0.1,0,0.2,0.1,0.2,0.2l0,0
	c0,0.1-0.1,0.2-0.4,0.2c-1.2,0-2.6-0.1-2.8-0.1s-1.6,0.1-2.2,0.1c-0.3,0-0.4-0.1-0.4-0.2c0-0.1,0.1-0.2,0.2-0.2l0,0
	c0.2,0,0.4,0,0.7-0.1c0.5-0.1,0.5-0.5,0.6-1.2c0.1-0.9,0.1-2.5,0.1-4.6v-2.2c0-0.1,0-0.1-0.1-0.1h-9.4c-0.1,0-0.1,0-0.1,0.1v2.2
	c0,2.1,0,3.8,0.1,4.6c0.1,0.6,0.1,1,0.8,1.1c0.3,0.1,0.7,0.1,1,0.1c0.1,0,0.2,0.1,0.2,0.1c0,0,0,0,0,0l0,0c0,0.1-0.1,0.2-0.4,0.2
	c-1.2,0-2.7-0.1-2.8-0.1s-1.6,0.1-2.2,0.1c-0.2,0-0.4-0.1-0.4-0.2c0-0.1,0.1-0.2,0.1-0.2c0,0,0,0,0,0l0,0c0.2,0,0.5,0,0.7-0.1
	c0.4-0.1,0.5-0.5,0.6-1.1c0.1-1.6,0.2-3.1,0.1-4.7v-3.8c0-3.4,0-4,0-4.7s-0.2-1.1-0.9-1.2c-0.3,0-0.5,0-0.8,0
	c-0.1,0-0.2-0.1-0.2-0.2c0-0.1,0.1-0.2,0.4-0.2c1,0,2.4,0,2.6,0s1.5,0,2.2,0c0.3,0,0.4,0,0.4,0.2c0,0.1-0.1,0.2-0.2,0.2
	c-0.2,0-0.4,0-0.6,0c-0.6,0.1-0.7,0.4-0.8,1.2s0,1.3,0,4.7v0.5c0,0.1,0.1,0.1,0.1,0.1h9.3c0.1,0,0.1,0,0.1-0.1v-0.5
	c0-3.4,0-4-0.1-4.7s-0.1-1.1-0.9-1.2c-0.3,0-0.5,0-0.8,0c-0.1,0-0.2-0.1-0.2-0.2c0-0.1,0.1-0.2,0.4-0.2c1,0,2.4,0,2.6,0s1.6,0,2.2,0
	c0.2,0,0.4,0,0.4,0.2c0,0.1-0.1,0.2-0.2,0.2c-0.2,0-0.4,0-0.6,0c-0.6,0.1-0.7,0.4-0.8,1.2s-0.1,1.3-0.1,4.7L218.2,88.4z"/>
<path class="st0" d="M117.4,94.3c0.2,0,0.5,0,0.7-0.1c0.4,0,0.6-0.5,0.7-1.1c0-0.9,0-1.8,0-2.2v-1.9c0.1-0.8-0.1-1.6-0.5-2.2
	c-0.2-0.3-3.2-5.1-4-6.3c-0.4-0.6-0.9-1.2-1.5-1.6c-0.3-0.2-0.6-0.3-1-0.3c-0.1,0-0.2-0.1-0.2-0.2c0-0.1,0.1-0.2,0.3-0.2h2.2
	c0.1,0,1.1-0.1,1.9-0.1c0.3,0,0.3,0,0.3,0.2s-0.2,0.2-0.3,0.2c-0.2,0-0.3,0.2-0.3,0.4c0,0.3,0.1,0.6,0.3,0.8l4.1,6.8
	c0.4-0.9,3.3-5.6,3.7-6.3c0.2-0.3,0.4-0.7,0.4-1.1c0-0.3-0.1-0.5-0.3-0.6s-0.3-0.2-0.3-0.3s0.1-0.1,0.4-0.1c0.6,0,1.4,0,1.6,0h2.2
	c0.2,0,0.3,0,0.3,0.1c0,0.1-0.1,0.3-0.3,0.2c0,0,0,0,0,0l0,0c-0.4,0-0.7,0.1-1,0.3c-0.4,0.3-0.8,0.6-1.1,1.1c-0.7,0.9-3.9,6-4.4,6.9
	c-0.3,0.7-0.4,1.4-0.3,2.2v1.9c0,0.4,0,1.3,0.1,2.2c0,0.6,0.2,1,0.9,1.1c0.3,0.1,0.7,0.1,1,0.1c0.1,0,0.2,0.1,0.2,0.2c0,0,0,0,0,0
	l0,0c0,0.1-0.1,0.2-0.4,0.2c-1.2,0-2.7-0.1-2.8-0.1h-2.2"/>
<path class="st0" d="M150.1,78.4c0,0.7-0.1,2.3-0.1,2.5s-0.1,0.3-0.2,0.3s-0.2-0.1-0.2-0.4v-0.2c-0.1-0.7-0.6-1.2-2.7-1.2h-1.8v9.1
	c0,2.1,0,3.8,0.1,4.7c0.1,0.6,0.2,1,0.9,1.1c0.3,0.1,0.7,0.1,1,0.1c0.1,0,0.2,0,0.2,0.1c0,0,0,0,0,0l0,0c0,0.1-0.1,0.2-0.4,0.2
	c-1.2,0-2.7-0.1-2.8-0.1s-1.7,0.1-2.3,0.1c-0.3,0-0.4-0.1-0.4-0.2s0.1-0.2,0.2-0.2c0.2,0,0.4,0,0.7-0.1c0.5-0.1,0.6-0.5,0.7-1.2
	c0.1-0.9,0.1-2.6,0.1-4.7v-9.1l-2.2,0.1c-1.4,0-1.9,0.2-2.3,0.7c-0.1,0.2-0.3,0.4-0.4,0.7c0,0.2-0.1,0.2-0.2,0.2
	c-0.1,0-0.2-0.1-0.2-0.2l0,0c0-0.2,0.5-2.2,0.5-2.4H150.1z"/>
<path class="st0" d="M201.8,78.4c0,0.7-0.1,2.3-0.1,2.5s-0.1,0.3-0.2,0.3s-0.1-0.1-0.2-0.4v-0.2c-0.1-0.7-0.6-1.2-2.7-1.2h-1.8v9.1
	c0,2.1,0,3.8,0.1,4.7c0.1,0.6,0.2,1,0.9,1.1c0.3,0.1,0.7,0.1,1,0.1c0.1,0,0.2,0,0.2,0.1c0,0,0,0,0,0l0,0c0,0.1-0.1,0.2-0.4,0.2
	c-1.2,0-2.6-0.1-2.8-0.1s-1.7,0.1-2.3,0.1c-0.3,0-0.4-0.1-0.4-0.2s0.1-0.2,0.2-0.2c0.2,0,0.5,0,0.7-0.1c0.5-0.1,0.6-0.5,0.7-1.2
	c0.1-0.9,0.1-2.6,0.1-4.7v-9.1l-2.2,0.1c-1.4,0-1.9,0.2-2.3,0.7c-0.2,0.2-0.3,0.4-0.4,0.7c-0.1,0.2-0.1,0.2-0.2,0.2
	c-0.1,0-0.2-0.1-0.2-0.2c0-0.2,0.5-2.2,0.5-2.4H201.8L201.8,78.4z"/>
<path class="st0" d="M189.2,78.3H187c-0.2,0-1,0-1.6,0c-0.2,0-0.4,0-0.4,0.1s0.1,0.2,0.3,0.3c0.2,0.1,0.4,0.3,0.4,0.6
	c0,0.4-0.2,0.8-0.4,1.1c-0.4,0.7-3.2,5.4-3.7,6.3l-4.1-6.8c-0.2-0.3-0.3-0.5-0.3-0.8c0-0.2,0.1-0.3,0.3-0.4c0.2-0.1,0.4-0.2,0.4-0.2
	s-0.1-0.2-0.3-0.2c-0.9,0-1.8,0-1.9,0l0,0c-0.1,0-0.6,0-1.1,0s-1,0-1,0l0,0c-0.2,0-1.1,0-2.3,0c-0.3,0-0.4,0-0.4,0.2
	c0,0.1,0.1,0.2,0.2,0.2c1,0,1.2,0.2,1.2,0.6c0,0.5-0.1,0.9-0.3,1.3c-0.8,2.8-2.8,9-3.4,10.8h-0.1l-4.4-12.1c-0.3-0.7-0.5-1-0.6-1
	s-0.3,0.1-0.6,1l-4.7,12.2h-0.1c-0.3-0.9-2.6-8.8-2.9-10.2c-0.2-0.7-0.3-1.3-0.4-2c0-0.2,0.1-0.4,0.3-0.5c0.3-0.1,0.5-0.1,0.8-0.1
	c0.1,0,0.2-0.1,0.2-0.2c0-0.1-0.1-0.2-0.4-0.2c-1.1,0-2.1,0.1-2.4,0.1s-1.1-0.1-2.3-0.1c-0.2,0-0.4,0-0.4,0.2c0,0.1,0.1,0.2,0.2,0.2
	l0,0c0.2,0,0.5,0,0.7,0.1c0.6,0.2,0.8,0.5,1.2,1.6l4,12.8c0.5,1.5,0.6,1.7,0.9,1.7s0.4-0.2,0.8-1.2c0.8-2,3.9-10,4.6-11.8l4.4,11.9
	c0.3,0.8,0.5,1.1,0.7,1.1s0.4-0.3,1-1.9c0.9-2.4,3.1-9.3,4.1-12.1c0.2-0.6,0.5-1.2,0.8-1.8l0,0c0.1-0.1,0.2-0.2,0.3-0.2
	c0.1,0,0.2,0,0.3,0c0.2,0.1,0.4,0.2,1.2,1.5c0.7,1.2,3.8,6,4,6.3c0.4,0.7,0.6,1.4,0.5,2.2v1.9c0,0.4,0,1.3-0.1,2.2
	c0,0.6-0.2,1-0.7,1.1c-0.2,0.1-0.4,0.1-0.7,0.1c-0.1,0-0.2,0.1-0.2,0.2c0,0,0,0,0,0l0,0c0,0.1,0.1,0.2,0.4,0.2
	c0.7,0,2.1-0.1,2.2-0.1s1.6,0.1,2.8,0.1c0.2,0,0.4-0.1,0.4-0.2c0-0.1-0.1-0.2-0.1-0.2c0,0,0,0,0,0l0,0c-0.3,0-0.7-0.1-1-0.1
	c-0.7-0.1-0.8-0.5-0.9-1.1c-0.1-0.9-0.1-1.8-0.1-2.2v-1.9c-0.1-0.7,0-1.5,0.3-2.2c0.5-0.9,3.6-6,4.4-6.9c0.3-0.4,0.7-0.8,1.1-1.1
	c0.3-0.2,0.7-0.3,1-0.3c0.1,0,0.3-0.1,0.3-0.2C189.5,78.4,189.4,78.3,189.2,78.3z"/>
<path class="st0" d="M68.4,85.6l-4.7-12.1c-0.3-0.9-0.5-1-0.6-1s-0.3,0.2-0.6,1.1l-6.7,18.1c-0.5,1.5-1.1,2.6-2.5,2.8
	c-0.2,0-0.6,0.1-0.8,0.1s-0.3,0.1-0.3,0.2s0.2,0.2,0.6,0.2c1.4,0,3-0.1,3.3-0.1s1.6,0.1,2.3,0.1c0.3,0,0.4-0.1,0.4-0.2
	s-0.1-0.2-0.3-0.2h-0.3c-0.5,0-1.1-0.3-1.1-0.8c0-0.7,0.2-1.4,0.4-2l1.8-5.2c0-0.1,0.2-0.2,0.3-0.2h6.3c0.1,0,0.2,0.1,0.3,0.2v0.1
	c2.4,6.3,4.8,15.6,19.2,17.6h0.1C74.2,102.1,71.2,92.4,68.4,85.6z M65.5,85.2h-5.6c-0.1,0-0.2-0.1-0.1-0.2l2.6-7.9
	c0.2-0.4,0.3-0.4,0.4,0l2.8,7.9C65.7,85.1,65.7,85.2,65.5,85.2L65.5,85.2z"/>
<path class="st0" d="M118.3,99.4c-13.1,0-19.2,4.5-29.7,4.9c15-0.3,18.7-3,29.7-3c11.8,0,30.8,5,30.8,5S132,99.4,118.3,99.4z"/>
<linearGradient id="SVGID_1_" gradientUnits="userSpaceOnUse" x1="24.86" y1="562.1045" x2="53.05" y2="562.1045" gradientTransform="matrix(1 0 0 1 -1.34 -477.45)">
	<stop  offset="0" style="stop-color:#F1DE9C"/>
	<stop  offset="0.5" style="stop-color:#FDF3D2"/>
	<stop  offset="1" style="stop-color:#F7E3A4"/>
</linearGradient>
<path class="st1" d="M23.5,76.6v11c0.3,2.9,1.2,5.8,2.6,8.3c3-4.2,6.9-7.6,11.3-10.2l0.1-0.1l0.1,0.1c4.5,2.6,8.4,6.1,11.4,10.3
	c1.5-2.6,2.4-5.5,2.6-8.4v-11c-0.7-0.6-1.4-1-2.3-1.4c-1.1-0.4-2.2-0.8-3.4-1c-2.8-0.6-5.6-0.9-8.5-0.8c-4.5,0-8.9,0.6-11.8,1.9
	C24.9,75.5,24.2,76,23.5,76.6z"/>
<path class="st0" d="M28.8,68.4l-1.5,0.3v-0.7h0.3c0.7-0.1,1.3-0.5,1.5-1.2l0.8-0.1v5.2l-1,0.2V68.4z M32.8,68.6L32.8,68.6
	c-0.5,0-0.9-0.5-0.9-1c0-0.8,0.5-1.4,2.2-1.6s2.2,0.5,2.2,1.3c0,0.5-0.4,1-0.9,1.1l0,0c0.6,0.1,1.1,0.6,1.1,1.3
	c0,0.6-0.4,1.6-2.4,1.7s-2.4-0.8-2.4-1.4C31.8,69.3,32.2,68.8,32.8,68.6z M34.2,70.6c0.9-0.1,1.2-0.4,1.2-0.9s-0.4-0.8-1.2-0.8
	s-1.2,0.4-1.2,1S33.3,70.7,34.2,70.6L34.2,70.6z M35.2,67.5c0-0.4-0.4-0.7-1.1-0.6s-1.1,0.3-1.1,0.7s0.4,0.6,1.1,0.6
	S35.2,67.9,35.2,67.5L35.2,67.5z M37.7,66.1c1.5,0,3.1,0.1,4.6,0.2v0.9c-1.2,1.1-2,2.5-2.4,4h-1.3c0.1-1.4,1.6-3.3,2.6-4.1
	c-1.2-0.1-2.3-0.1-3.5-0.1V66.1z M43.4,71.5c0-1.3,1-1.8,2-2.1s1.5-0.4,1.5-1s-0.6-1-1-1c-0.8-0.1-1.2,0.3-1.3,0.9l-1.1-0.1
	c0-1.2,1-1.8,2.2-1.6s2.3,0.8,2.3,2.1c0,0.9-0.7,1.2-1.5,1.3s-1.6,0.3-1.9,0.8c1.1,0.1,2.3,0.3,3.4,0.5v0.8
	C46.5,71.9,44.9,71.6,43.4,71.5L43.4,71.5z"/>
<linearGradient id="SVGID_2_" gradientUnits="userSpaceOnUse" x1="27.68" y1="573.675" x2="50.16" y2="573.675" gradientTransform="matrix(1 0 0 1 -1.34 -477.45)">
	<stop  offset="0" style="stop-color:#58A132"/>
	<stop  offset="0.33" style="stop-color:#94C04E"/>
	<stop  offset="0.66" style="stop-color:#77B140"/>
	<stop  offset="1" style="stop-color:#58A132"/>
</linearGradient>
<path class="st2" d="M35.1,105c0.8,0.5,1.7,1,2.6,1.3l0,0l0.4-0.2c0.3-0.2,0.9-0.4,1.5-0.8c1.6-0.9,3.2-2,4.6-3.3
	c1.8-1.6,3.4-3.5,4.7-5.6l-0.1-0.2c-0.1-0.2-0.3-0.4-0.6-0.8c-0.7-0.9-1.4-1.8-2.2-2.6c-2.4-2.7-5.3-4.9-8.4-6.7
	c-4.4,2.6-8.2,6-11.2,10.2c0.6,1,1.2,1.9,1.9,2.8C30.1,101.4,32.5,103.4,35.1,105z"/>
<path class="st3" d="M38.4,99.4c0.7-0.8,2.9-0.2,5.5-0.1h0.8L44.1,99c-0.4-0.2-0.7-0.4-1-0.7l-0.2-0.1l-0.7-0.1
	c-0.7-0.1-1.4-0.2-2.1-0.2c-0.5,0-0.9,0-1.3,0.1c-0.4,0.1-0.7,0.2-0.9,0.5c-0.1,0.2-0.2,0.3-0.2,0.6L38.4,99.4z"/>
<path class="st3" d="M37.7,98.6L37.7,98.6c0.2-0.3,0.4-0.4,0.7-0.5c0.6-0.2,1.2-0.3,1.8-0.2c1,0,2,0.1,2.9,0.3c0-0.1,0-0.1,0-0.2
	l-0.2-0.7c-0.1-0.6-0.3-1.4-0.5-2.2l-0.8-3.3l0,0h-0.1l-0.2-0.1c-0.2-0.1-0.4-0.2-0.7-0.3c-0.6-0.3-1.2-0.4-1.8-0.4
	c-0.4,0-0.7,0.1-1,0.3c-0.1,0.1-0.1,0.2-0.2,0.2L37.7,98.6z"/>
<path class="st3" d="M43.2,98.1L43.2,98.1c0.2,0.3,0.4,0.5,0.6,0.6c0.3,0.2,0.5,0.3,0.8,0.4l-2.2-6.9l-0.6-0.4
	c0,0.2,0.1,0.4,0.2,0.7c0.1,0.5,0.3,1.3,0.5,2C42.8,96,43.2,97.7,43.2,98.1z"/>
<path class="st3" d="M30.5,99.2l0.3-0.2c0.3-0.2,0.6-0.3,0.8-0.5c0.1-0.1,0.2-0.2,0.3-0.3v-0.2c0-0.1,0.1-0.3,0.1-0.4
	c0.1-0.4,0.2-0.9,0.4-1.5c0.3-1.2,0.6-2.6,0.8-3.5c0.1-0.3,0.1-0.6,0.2-0.8l-0.6,0.5L30.5,99.2z"/>
<path class="st3" d="M32,98.2c1-0.2,2-0.3,2.9-0.3c0.5,0,0.9,0,1.4,0.1c0.4,0.1,0.7,0.3,1,0.5v0.1v-7.3c0-0.1-0.1-0.1-0.1-0.2
	c-0.3-0.2-0.6-0.4-1-0.3c-0.5,0-1.1,0.1-1.6,0.4c-0.3,0.1-0.7,0.3-1,0.5h-0.1c-0.1,0.6-1.1,4.9-1.5,6.2C32.1,98,32.1,98.1,32,98.2z"
	/>
<path class="st3" d="M36.7,99.4l0.8-0.3c0-0.2-0.1-0.4-0.2-0.5c-0.2-0.2-0.3-0.3-0.6-0.4C36.1,98,35.6,98,35,98
	c-0.9,0-1.8,0.1-2.8,0.3H32c-0.1,0.1-0.2,0.2-0.3,0.3c-0.2,0.1-0.4,0.3-0.6,0.4l-0.5,0.3h0.4C33.7,99.2,36,98.6,36.7,99.4z"/>
<path class="st4" d="M34.7,97.3c-0.7,0-1.5,0.1-2.2,0.3l0.7-3c0.6-0.2,1.2-0.3,1.8-0.2C35,94.4,34.7,97.3,34.7,97.3z"/>
<path class="st4" d="M37,96c-0.6-0.2-1.2-0.3-1.8-0.1c0,0,0.4-4.7,0.4-4.7c0.3,0,1.1-0.2,1.5,0.2L37,96z"/>
<path class="st4" d="M35.1,94.2c-0.6-0.1-1.2,0-1.8,0.2c0,0,0.5-2.6,0.5-2.6c0.5-0.3,1-0.5,1.5-0.6C35.3,91.3,35.1,94.2,35.1,94.2z"
	/>
<path class="st4" d="M37,97.6c-0.6-0.2-1.3-0.3-1.9-0.3l0.1-1.2c0.6-0.2,1.2-0.1,1.8,0.1V97.6z"/>
<path class="st4" d="M40.1,95.2c0.7-0.1,1.3,0,1.9,0.2c0,0-0.8-3.6-0.8-3.6c-0.5-0.3-1-0.5-1.6-0.7L40.1,95.2z"/>
<path class="st4" d="M38.1,92.6c0.5-0.2,1-0.3,1.5-0.1c0,0-0.1-1.2-0.1-1.2c-0.3-0.1-1-0.2-1.4,0.2V92.6z"/>
<path class="st4" d="M38.1,97.6c0.6-0.3,1.2-0.4,1.9-0.3c0,0-0.4-4.7-0.4-4.7c-0.5-0.2-1-0.1-1.5,0.1C38.1,92.7,38.1,97.6,38.1,97.6
	z"/>
<path class="st4" d="M40.3,97.3c0.7,0,1.4,0.1,2.1,0.2c0,0-0.4-1.9-0.4-1.9c-0.6-0.2-1.3-0.3-1.9-0.3C40.1,95.4,40.3,97.3,40.3,97.3
	z"/>
<path class="st0" d="M52.2,76.3c-0.7-0.6-1.6-1.2-2.5-1.5c-3-1.3-7.6-1.9-12.1-1.9c-2.9,0-5.7,0.3-8.6,0.8c-1.2,0.3-2.3,0.6-3.5,1.1
	c-0.9,0.4-1.7,0.9-2.4,1.5L23,76.3v11.3c0.6,5.7,3.4,11,7.7,14.8c1.4,1.3,3,2.4,4.7,3.4c0.6,0.4,1.2,0.6,1.5,0.8l0.4,0.2l0.1,0.1
	h0.2l0.2-0.1c2.7-1.3,5.2-2.9,7.3-5c4-3.7,6.5-8.7,7-14.1L52.2,76.3L52.2,76.3z M44.2,102c-1.4,1.3-2.9,2.4-4.6,3.3
	c-0.6,0.3-1.1,0.6-1.5,0.8l-0.4,0.2h0c-0.9-0.4-1.7-0.8-2.5-1.3c-2.6-1.6-4.9-3.6-6.9-5.9c-0.7-0.9-1.3-1.8-1.9-2.8
	c3-4.1,6.8-7.6,11.2-10.2c3.1,1.8,6,4.1,8.4,6.7c1,1,1.7,2,2.2,2.6c0.2,0.3,0.4,0.6,0.6,0.8l0.1,0.2C47.6,98.5,46,100.4,44.2,102
	L44.2,102z M51.7,87.6c-0.3,3-1.2,5.8-2.6,8.4c-3-4.2-6.9-7.7-11.4-10.2l-0.1-0.1l-0.1,0.1c-4.5,2.6-8.3,6-11.3,10.2
	c-1.4-2.6-2.3-5.4-2.6-8.3v-11c0.7-0.6,1.4-1,2.2-1.4c3.8-1.3,7.8-2,11.8-1.9c2.8,0,5.7,0.3,8.5,0.8c1.2,0.2,2.3,0.6,3.4,1
	c0.8,0.3,1.6,0.8,2.3,1.4V87.6z"/>
<path class="st0" d="M45,99.5l-2.4-7.4l-0.9-0.6l0,0c0,0-0.4-0.2-0.9-0.4c-0.6-0.3-1.2-0.4-1.8-0.5c-0.4,0-0.8,0.1-1.2,0.4
	c-0.1,0.1-0.1,0.1-0.1,0.2c0-0.1-0.1-0.1-0.2-0.2c-0.3-0.3-0.7-0.4-1.2-0.4c-0.6,0-1.3,0.2-1.8,0.5c-0.3,0.1-0.6,0.3-0.9,0.4l0,0
	l-0.9,0.6l-2.4,7.3l0,0 M30.1,99.5c0,0,6.5,0.2,6.5,0.2c0.5,0.4,1.3,0.4,1.8,0l6.5-0.1L30.1,99.5z M30.6,99.3l0.5-0.3
	c0.2-0.1,0.4-0.2,0.6-0.4c0.1-0.1,0.2-0.2,0.3-0.3h0.2c0.9-0.2,1.8-0.3,2.8-0.3c0.6,0,1.2,0.1,1.7,0.2c0.2,0.1,0.4,0.2,0.6,0.4
	c0.1,0.1,0.2,0.3,0.2,0.5l-0.8,0.3c-0.7-0.9-3.1-0.2-5.8-0.1L30.6,99.3z M38.4,99.4l-0.8-0.3c0-0.2,0.1-0.4,0.2-0.6
	c0.3-0.2,0.6-0.4,0.9-0.5c0.4-0.1,0.9-0.1,1.3-0.1c0.7,0,1.4,0.1,2.1,0.2l0.7,0.1l0.2,0.1c0.3,0.3,0.6,0.6,0.9,0.8l0.5,0.3h-0.8
	C41.3,99.2,39.1,98.6,38.4,99.4z M44.6,99.2c-0.2-0.1-0.5-0.3-0.8-0.4c-0.2-0.2-0.4-0.3-0.6-0.6v-0.1l-0.8-3.5
	c-0.2-0.8-0.3-1.5-0.5-2c-0.1-0.3-0.1-0.6-0.2-0.7l0.6,0.4L44.6,99.2z M37.9,91.1c0.3-0.2,0.6-0.3,1-0.3c0.6,0,1.2,0.2,1.8,0.4
	c0.3,0.1,0.5,0.2,0.7,0.3l0.2,0.1h0.1l0,0c0,0,0.4,1.6,0.8,3.3c0.2,0.8,0.4,1.6,0.5,2.2l0.2,0.7c0,0.1,0,0.1,0,0.2
	c-1-0.2-1.9-0.3-2.9-0.3c-0.6,0-1.2,0.1-1.8,0.3c-0.2,0.1-0.4,0.2-0.6,0.4l-0.1,0.2v-7.2C37.7,91.2,37.8,91.2,37.9,91.1z M34.7,91.1
	c0.5-0.2,1-0.3,1.6-0.3c0.4,0,0.7,0.1,1,0.3c0,0.1,0.1,0.1,0.1,0.2v7.3v-0.1c-0.3-0.3-0.6-0.4-1-0.5c-0.5-0.1-0.9-0.2-1.4-0.2
	c-1,0-2,0.1-2.9,0.3c0-0.1,0-0.2,0.1-0.3c0.3-1.3,1.3-5.7,1.5-6.2h0.1C34,91.4,34.3,91.3,34.7,91.1L34.7,91.1z M32.8,92.3l0.6-0.5
	l-0.2,0.8c-0.2,0.9-0.5,2.3-0.8,3.5c-0.1,0.6-0.3,1.1-0.3,1.5c0,0.2-0.1,0.3-0.1,0.4v0.2c-0.1,0.1-0.2,0.2-0.3,0.3
	c-0.2,0.2-0.6,0.4-0.8,0.5l-0.3,0.2L32.8,92.3z"/>
<linearGradient id="SVGID_3_" gradientUnits="userSpaceOnUse" x1="25.91" y1="561.1954" x2="51.46" y2="561.1954" gradientTransform="matrix(1 0 0 1 -1.34 -477.45)">
	<stop  offset="0" style="stop-color:#B1251A"/>
	<stop  offset="0.5" style="stop-color:#D7352E"/>
	<stop  offset="1" style="stop-color:#B1251A"/>
</linearGradient>
<path class="st5" d="M48.2,83.6c-0.1,0.2-0.1,0.4,0,0.5c0.5-0.7,0.8-0.6,0.8-0.6c-0.3,1,0.3,1.6,0.2,1.9s-1.9,0.4-3.4-2.1
	c0,0-0.6-0.9-0.8-1c0.8-0.2,2,0.7,2.7,0.9c0.4-0.9,1.3-1.5,2.3-1.4c-0.4-0.6-0.4-2.3,0.8-2.6c-1.6-0.7-0.6-2.6-0.1-3.1
	c-0.6,0-2.6-0.9-4.7,2.1c1.7,1.7,0.1,3.9-1.2,2.6c0-0.4,0.4-0.6,0.6-1c0-0.6-0.1-1.3-0.2-1.9c0.2,0,0.3,0,0.5,0.2
	c0.1,0.1-0.1-0.5-0.4-0.6c0.2,0,0.5,0,0.7,0.1c0,0-0.4-0.6-0.8-0.7c0,0,1.2,0,0.8-1.4c-0.2,0.5-0.8,0.9-1.4,0.8
	c-0.5-0.2-0.9-0.4-1.4-0.5c-0.2,0-0.2,0.1-0.4,0.2c-0.1,0.1-0.7-0.3-1.3-0.1c0.1,0.1,0.3,0.1,0.4,0.2c0.1,0.2,0.1,0.4,0.1,0.6
	c0.5-0.4,0.8,0.2,0.8,0.2c-0.2,0.1-0.5,0.2-0.8,0.3c-0.3,0.1-0.6,0-0.7-0.3c-0.1,0.2,0.1,0.3,0.5,0.4c0.4,0,0.7,0,1.1-0.1
	c0,0.1,0,0.1,0,0.1c0,0,0,0,0,0l0,0c-0.2,0.1-0.7,0-0.9,0.1c0,0.3,0,0.6,0,0.9c0.1-0.1,0.8-0.8,1.1-0.7c0.4,0.1,0.7,0,1.1-0.1
	c0,0-0.3,0.2-0.7,0.3c-1,0.5-1.6,1.4-1.7,2.5c-0.2,0.7-0.9,1-1.5,0.8c-0.3-0.1-0.5-0.2-0.7-0.5c-0.4-0.1-1.2,0-1.1,0.6
	c0,0,1.1-0.4,0.9,0c-0.3,0.1-0.6,0.2-0.9,0.3c-0.1,0.2-0.2,0.5-0.1,0.7c0.4-0.3,0.7-0.7,1.1-0.5c-0.2,0.2-0.4,0.4-0.4,0.7
	c0,0.2,0,0.3,0.1,0.5c0.2-0.5,0.5-1,1.1-0.9c0.5,0.1,0.5-0.2,1.4,0.2c0-0.3-0.7-0.5-0.7-0.5c0.6-0.2,1.3-0.1,2-1
	c-0.2,0.4-0.6,0.8-1.1,0.9c0.3,1.6,1.8,2.3,2.4,3c-0.5,0-1.4-0.5-1.7,0.2c0,0.6,0.1,1.1,0.3,1.7c-0.2,0.1-0.5-0.1-0.8-0.1
	c-0.5-0.4,0-1.7-1.1-1.4l0.1,0.3c0.2,0.2,0.4,0.4,0.5,0.7c-0.3,0-0.5-0.4-0.6-0.6c-0.2-0.2-0.1-0.5-0.4-0.4
	c-0.2,0.1-0.5-0.1-0.6,0.2c0.4,0.2,0.7,0.5,0.9,0.8c-0.3,0.1-0.5-0.3-0.7-0.4c-0.3,0-0.5,0-0.8,0.1c0,0.2,0.4,0.3,0.5,0.4
	c0.6,0.5,1.4,0.7,1.9,1.4c0.2,0.2,0.2,0.3,0.3,0.9c0.2-0.2,0.2-0.5,0.1-0.7l-0.1-0.3c0.9,0.2,2.5,0.5,2.5,1.2c0.4,0-0.4-1.6-0.3-2.1
	c0,0,0.8,0.2,1-0.1c0.1-0.2,0.2-0.4,0.1-0.6c0.2,0.3,0,0.6-0.3,1.4c0.4,0.5,1.3,0.5,1.3,1.3c-0.1,0.5,0.5,0.8-0.3,0.9
	c-0.4,0.2-1,0-1.2,0.4c0,0.2-0.1,0.5,0.1,0.7c0.1-0.3,0.5-0.5,0.8-0.4c0,0,0,0,0,0l0,0c-0.1,0.2-0.4,0.3-0.5,0.6
	c0,0.3,0.2,0.6,0.4,0.6c-0.1-0.7,0.4-0.8,0.8-1.2h0.2c-0.1,0.3-0.2,0.7-0.1,1.1c0,0,0.8,0.6,0.7,0.5c-0.4-0.6,0.3-1.1,0.1-1.7
	c0.4-0.4,0.9-0.5,1.3-0.3c-0.1-0.4-1-0.2-1.3-0.5c0-0.1-0.2,0.3-0.2,0.1c0.2-0.3-0.4-0.3,0-1.2c0.1-0.2,0-0.2,0.7-0.2
	c-0.3-0.1-0.6-0.2-0.9-0.2c0-0.3-0.1-0.6-0.3-0.9c0.9,0.5,1.9,0.6,2.8,0.1c0.3-0.2,0.6-0.5,0.6-0.9c0.2-1.3-1.1-1.6-1-2.5
	c0.4,0.1,0.8,0.4,0.9,0.8c0-0.4,0-0.7,0-1.1c0-0.4,0.1-0.9,0.5-1C49.7,82.2,48.7,82.7,48.2,83.6z M43.5,76.8c-0.1,0,0-0.3,0-0.3
	s0.1-0.1,0.4,0c0.3,0.1,0.4,0.3,0.4,0.3C44,76.8,43.7,76.8,43.5,76.8z"/>
<linearGradient id="SVGID_4_" gradientUnits="userSpaceOnUse" x1="25.91" y1="555.1975" x2="51.46" y2="555.1975" gradientTransform="matrix(1 0 0 1 -1.34 -477.45)">
	<stop  offset="0" style="stop-color:#B1251A"/>
	<stop  offset="0.5" style="stop-color:#D7352E"/>
	<stop  offset="1" style="stop-color:#B1251A"/>
</linearGradient>
<path class="st6" d="M39.9,77c0.1,0.3-0.1,0.6-0.4,0.7c0,0,0,0,0,0c-0.1,0-0.3,0-0.4-0.1c0,0,0.2,0.5,1,0.1h0.2
	c0.4,0.9,0.9,1.8,1.6,2.5c0-0.3,0.1-0.6,0.2-0.8c-0.5-0.8-0.9-1.6-1.2-2.4c0.1-0.5,0.5-0.8,0.2-1.5c-0.1-0.2-0.3-0.3-0.6-0.3
	c0,0,0,0,0,0l0,0c0.2,0.1,0.4,0.4,0.3,0.7c-0.2-0.2-0.1-0.5-0.5-0.7s-0.5-0.3-0.9-0.1c0.1,0.2,0.5,0.3,0.7,0.5v0.4
	c-0.2-0.3-0.5-0.4-0.8-0.4c-0.4,0-0.6,0-0.6,0.4C39.6,75.9,39.7,76.5,39.9,77z"/>
<linearGradient id="SVGID_5_" gradientUnits="userSpaceOnUse" x1="25.91" y1="555.2433" x2="51.46" y2="555.2433" gradientTransform="matrix(1 0 0 1 -1.34 -477.45)">
	<stop  offset="0" style="stop-color:#B1251A"/>
	<stop  offset="0.5" style="stop-color:#D7352E"/>
	<stop  offset="1" style="stop-color:#B1251A"/>
</linearGradient>
<path class="st7" d="M33.2,79.6c0.2,0.2,0.2,0.5,0.2,0.8c0.7-0.7,1.2-1.6,1.6-2.5h0.2c0.7,0.4,1-0.1,1-0.1c-0.3,0.2-0.6,0.1-0.8-0.2
	c-0.1-0.1-0.1-0.3-0.1-0.4c0.2-0.6,0.3-1.1,1.3-0.9c0-0.4-0.3-0.4-0.6-0.4c-0.3,0-0.6,0.2-0.8,0.4v-0.4c0.2-0.2,0.6-0.3,0.7-0.5
	c-0.4-0.1-0.5,0-0.9,0.2c-0.4,0.2-0.4,0.4-0.5,0.7c-0.1-0.3,0-0.5,0.3-0.7c-0.2-0.1-0.5,0-0.6,0.2c0,0,0,0,0,0v0.1
	c-0.4,0.7,0.1,1,0.2,1.5C34.1,78,33.7,78.8,33.2,79.6z"/>
<linearGradient id="SVGID_6_" gradientUnits="userSpaceOnUse" x1="25.91" y1="561.3182" x2="51.46" y2="561.3182" gradientTransform="matrix(1 0 0 1 -1.34 -477.45)">
	<stop  offset="0" style="stop-color:#B1251A"/>
	<stop  offset="0.5" style="stop-color:#D7352E"/>
	<stop  offset="1" style="stop-color:#B1251A"/>
</linearGradient>
<path class="st8" d="M35.8,81.6c-0.2-0.4,0.9,0,0.9,0c0-0.6-0.7-0.7-1.1-0.6c-0.4,0.6-1.2,0.7-1.7,0.3c-0.2-0.2-0.4-0.4-0.5-0.7
	c-0.1-1.1-0.7-2-1.6-2.5c-0.4-0.2-0.7-0.3-0.7-0.3c0.3,0.1,0.7,0.2,1.1,0.1c0.3-0.1,1,0.6,1.1,0.7c0-0.3,0-0.6,0-0.9
	c-0.2-0.1-0.7,0-0.9-0.1c-0.1,0-0.1-0.1-0.1-0.2c0,0,0,0,0,0l0,0c0.3,0.1,0.7,0.1,1.1,0.1c0.3-0.1,0.5-0.2,0.5-0.4
	c0,0.2-0.3,0.3-0.7,0.3c-0.3-0.1-0.5-0.2-0.8-0.3c0,0,0.3-0.6,0.8-0.2c0-0.2,0-0.4,0.1-0.6l0.4-0.2c-0.6-0.2-1.2,0.2-1.3,0.1
	c-0.1-0.1-0.1-0.2-0.4-0.2c-0.5,0.1-1,0.3-1.4,0.5c-0.6,0.1-1.1-0.3-1.4-0.8c-0.4,1.4,0.8,1.4,0.8,1.4c-0.4,0.1-0.8,0.7-0.8,0.7
	c0.2-0.1,0.4-0.2,0.7-0.2c-0.3,0-0.5,0.6-0.4,0.6c0.1-0.1,0.3-0.2,0.5-0.2c-0.1,0.7-0.2,1.3-0.2,2c0.2,0.4,0.5,0.6,0.6,1
	c-1.3,1.3-2.9-0.9-1.2-2.6c-2.1-3-4.1-2-4.7-2.1c0.5,0.4,1.5,2.3-0.1,3c1.2,0.3,1.2,2,0.8,2.6c1,0,1.9,0.5,2.3,1.4
	c0.8-0.2,2-1.1,2.7-0.9c-0.2,0-0.8,1-0.8,1c-1.4,2.4-3.1,2.4-3.3,2c-0.2-0.4,0.5-0.9,0.2-1.9c0,0,0.3-0.1,0.8,0.6
	c0.1-0.2,0.1-0.4,0-0.5c-0.6-1.3-2.4-1.4-2.6-1.1c0.5,0.1,0.5,0.5,0.5,1c-0.1,0.4-0.1,0.7,0,1.1c0.1-0.4,0.5-0.7,0.9-0.8
	c0,0.9-1.3,1.2-1,2.4c0.1,0.4,0.3,0.7,0.6,0.9c0.9,0.4,2,0.4,2.8-0.1c-0.2,0.3-0.3,0.6-0.3,0.9c-0.3,0-0.6,0-0.9,0.2
	c0.6,0.1,0.5,0,0.6,0.2c0.4,0.9-0.1,0.9,0,1.2c0,0.2-0.1-0.2-0.2-0.1c-0.3,0.3-1.2,0.1-1.3,0.5c0.5-0.2,1-0.1,1.3,0.3
	c-0.2,0.7,0.5,1.2,0.1,1.7c-0.1,0.2,0.7-0.5,0.7-0.5c0-0.4,0-0.7-0.1-1.1h0.2c0.4,0.4,0.9,0.5,0.8,1.2c0.3-0.1,0.5-0.3,0.4-0.6
	c-0.1-0.3-0.4-0.4-0.5-0.6c0.3-0.1,0.7,0,0.9,0.3l0,0c0.2-0.2,0.1-0.4,0.1-0.7c-0.2-0.5-0.8-0.2-1.2-0.4c-0.8-0.1-0.1-0.4-0.3-0.9
	c0-0.8,0.9-0.8,1.3-1.3c-0.2-0.8-0.5-1.1-0.3-1.4c-0.1,0.2-0.1,0.4,0.1,0.6c0.2,0.4,1,0.1,1,0.1c0.1,0.5-0.7,2.1-0.3,2.1
	c0-0.7,1.6-1,2.4-1.2l-0.1,0.3c-0.1,0.3,0,0.5,0.1,0.7c0.1-0.6,0.1-0.8,0.3-0.9c0.5-0.7,1.3-0.8,1.9-1.4c0.2-0.1,0.5-0.2,0.5-0.4
	c-0.2-0.1-0.5,0-0.8-0.1c-0.3-0.1-0.4,0.5-0.7,0.4c0.2-0.3,0.6-0.6,0.9-0.8c-0.1-0.3-0.5-0.1-0.6-0.2s-0.3,0.3-0.4,0.4
	c-0.1,0.2-0.4,0.6-0.6,0.6c0.1-0.2,0.3-0.5,0.5-0.7l0.1-0.3c-1.1-0.3-0.6,1-1.1,1.4c-0.3,0-0.5,0.2-0.8,0.1c0.2-0.5,0.2-1.1,0.3-1.7
	C32.4,84.4,31.5,85,31,85c0.7-0.7,2.1-1.4,2.5-3c-0.5-0.1-0.9-0.5-1.1-0.9c0.6,0.8,1.3,0.7,2,1c0,0-0.7,0.2-0.7,0.5
	c0.9-0.4,0.9-0.1,1.4-0.2c0.5-0.1,0.8,0.3,1.1,0.9c0.1-0.2,0.1-0.3,0.1-0.5c-0.1-0.3-0.2-0.5-0.4-0.6c0.4-0.2,0.7,0.2,1.1,0.5
	c0.1-0.2,0-0.5-0.1-0.7C36.5,81.8,36.2,81.6,35.8,81.6z M31.5,76.6c0.3-0.2,0.4,0,0.4,0v0.3c-0.2,0-0.5,0-0.7,0
	C31.1,76.8,31.1,76.7,31.5,76.6L31.5,76.6z"/>
</svg>
