<svg xmlns="http://www.w3.org/2000/svg" xmlns:xlink="http://www.w3.org/1999/xlink" style="margin:auto;background:#001220;display:block;z-index:1;position:relative" width="1920" height="1080" preserveAspectRatio="xMidYMid" viewBox="0 0 1920 1080">
<g transform="translate(960,540) scale(1,-1) translate(-960,-540)"><path d="M-100 546.21C-23.17 503.47 -29.19 504.53 41.33 504.53S114.67 521.46 182.67 521.46S253.86 562.59 324 562.59S402.74 565.72 465.33 565.72S537.02 560.85 606.67 560.85S679.93 506.39 748 506.39S824.13 509.69 889.33 509.69S961.52 528.28 1030.67 528.28S1103.9 498.21 1172 498.21S1244.63 550.91 1313.33 550.91S1386.22 523.75 1454.67 523.75S1525.86 488.07 1596 488.07S1673.3 502.99 1737.33 502.99S1813.51 537.7 1878.67 537.7S1951.48 504.94 2020 504.94S2093.17 506.69 2161.33 506.69L2020 1080 L-100 1080 Z" fill="#69a6fa" stroke-width="0">
  <animate attributeName="d" dur="60.00000000000001s" repeatCount="indefinite" values="M-100 546.21C-23.17 503.47 -29.19 504.53 41.33 504.53S114.67 521.46 182.67 521.46S253.86 562.59 324 562.59S402.74 565.72 465.33 565.72S537.02 560.85 606.67 560.85S679.93 506.39 748 506.39S824.13 509.69 889.33 509.69S961.52 528.28 1030.67 528.28S1103.9 498.21 1172 498.21S1244.63 550.91 1313.33 550.91S1386.22 523.75 1454.67 523.75S1525.86 488.07 1596 488.07S1673.3 502.99 1737.33 502.99S1813.51 537.7 1878.67 537.7S1951.48 504.94 2020 504.94S2093.17 506.69 2161.33 506.69L2020 1080 L-100 1080 Z;M-100 513.01C-21.46 551.35 -22.75 492.73 41.33 492.73S113.5 546.49 182.67 546.49S253.86 487.87 324 487.87S400.42 492.29 465.33 492.29S537.86 500.65 606.67 500.65S679.9 497.94 748 497.94S821.72 487.97 889.33 487.97S961.32 525.73 1030.67 525.73S1107.79 523.95 1172 523.95S1245.08 519.54 1313.33 519.54S1390.9 492.51 1454.67 492.51S1525.59 490.65 1596 490.65S1669.35 493.45 1737.33 493.45S1809.05 535.08 1878.67 535.08S1956.01 504.75 2020 504.75S2097.55 527.39 2161.33 527.39L2020 1080 L-100 1080 Z;M-100 546.21C-23.17 503.47 -29.19 504.53 41.33 504.53S114.67 521.46 182.67 521.46S253.86 562.59 324 562.59S402.74 565.72 465.33 565.72S537.02 560.85 606.67 560.85S679.93 506.39 748 506.39S824.13 509.69 889.33 509.69S961.52 528.28 1030.67 528.28S1103.9 498.21 1172 498.21S1244.63 550.91 1313.33 550.91S1386.22 523.75 1454.67 523.75S1525.86 488.07 1596 488.07S1673.3 502.99 1737.33 502.99S1813.51 537.7 1878.67 537.7S1951.48 504.94 2020 504.94S2093.17 506.69 2161.33 506.69L2020 1080 L-100 1080 Z"></animate>
  <animateTransform attributeName="transform" type="translate" dur="60.00000000000001s" begin="0s" repeatCount="indefinite" values="0;10;0" calcMode="spline" keySplines="0.3 0 0.7 1;0.3 0 0.7 1"></animateTransform>
</path><path d="M-100 623.84C-23.52 595.13 -24.19 619.9 47.91 619.9S128.42 626.13 195.81 626.13S276.22 641.4 343.72 641.4S418 602.42 491.63 602.42S567.8 588.5 639.53 588.5S719.78 623.06 787.44 623.06S869.29 608.97 935.35 608.97S1014.87 600.22 1083.26 600.22S1162.19 586.23 1231.16 586.23S1309.73 590.98 1379.07 590.98S1454.42 574.43 1526.98 574.43S1607.47 624.36 1674.88 624.36S1753.94 616.45 1822.79 616.45S1900.06 640.55 1970.7 640.55S2051.92 605.23 2118.6 605.23L2020 1080 L-100 1080 Z" fill="#6094f4" stroke-width="0">
  <animate attributeName="d" dur="50.00000000000001s" repeatCount="indefinite" values="M-100 623.84C-23.52 595.13 -24.19 619.9 47.91 619.9S128.42 626.13 195.81 626.13S276.22 641.4 343.72 641.4S418 602.42 491.63 602.42S567.8 588.5 639.53 588.5S719.78 623.06 787.44 623.06S869.29 608.97 935.35 608.97S1014.87 600.22 1083.26 600.22S1162.19 586.23 1231.16 586.23S1309.73 590.98 1379.07 590.98S1454.42 574.43 1526.98 574.43S1607.47 624.36 1674.88 624.36S1753.94 616.45 1822.79 616.45S1900.06 640.55 1970.7 640.55S2051.92 605.23 2118.6 605.23L2020 1080 L-100 1080 Z;M-100 562.88C-21.35 568.72 -25.76 643.44 47.91 643.44S123.48 567.73 195.81 567.73S272.43 624.65 343.72 624.65S420.36 571.05 491.63 571.05S566.24 554.73 639.53 554.73S720.24 598.57 787.44 598.57S869.89 620.75 935.35 620.75S1016.86 596.61 1083.26 596.61S1161.32 551.33 1231.16 551.33S1306.57 589.52 1379.07 589.52S1460.04 617.4 1526.98 617.4S1604.12 592.79 1674.88 592.79S1750.87 619.93 1822.79 619.93S1897.6 576.26 1970.7 576.26S2045.88 576.49 2118.6 576.49L2020 1080 L-100 1080 Z;M-100 623.84C-23.52 595.13 -24.19 619.9 47.91 619.9S128.42 626.13 195.81 626.13S276.22 641.4 343.72 641.4S418 602.42 491.63 602.42S567.8 588.5 639.53 588.5S719.78 623.06 787.44 623.06S869.29 608.97 935.35 608.97S1014.87 600.22 1083.26 600.22S1162.19 586.23 1231.16 586.23S1309.73 590.98 1379.07 590.98S1454.42 574.43 1526.98 574.43S1607.47 624.36 1674.88 624.36S1753.94 616.45 1822.79 616.45S1900.06 640.55 1970.7 640.55S2051.92 605.23 2118.6 605.23L2020 1080 L-100 1080 Z"></animate>
  <animateTransform attributeName="transform" type="translate" dur="50.00000000000001s" begin="-8.333333333333334s" repeatCount="indefinite" values="0;10;0" calcMode="spline" keySplines="0.3 0 0.7 1;0.3 0 0.7 1"></animateTransform>
</path><path d="M-100 716.67C-16.7 698.13 -13.67 673.49 55.12 673.49S140.83 661.54 210.24 661.54S289.33 692.64 365.37 692.64S447.22 727.02 520.49 727.02S603.71 669.39 675.61 669.39S755.78 634.7 830.73 634.7S913.9 666.88 985.85 666.88S1071.85 724.19 1140.98 724.19S1224.87 701.24 1296.1 701.24S1377.68 672.25 1451.22 672.25S1534.7 700.08 1606.34 700.08S1686.37 682.26 1761.46 682.26S1841.77 665.28 1916.59 665.28S1997.65 622.97 2071.71 622.97L2020 1080 L-100 1080 Z" fill="#5b81ed" stroke-width="0">
  <animate attributeName="d" dur="40s" repeatCount="indefinite" values="M-100 716.67C-16.7 698.13 -13.67 673.49 55.12 673.49S140.83 661.54 210.24 661.54S289.33 692.64 365.37 692.64S447.22 727.02 520.49 727.02S603.71 669.39 675.61 669.39S755.78 634.7 830.73 634.7S913.9 666.88 985.85 666.88S1071.85 724.19 1140.98 724.19S1224.87 701.24 1296.1 701.24S1377.68 672.25 1451.22 672.25S1534.7 700.08 1606.34 700.08S1686.37 682.26 1761.46 682.26S1841.77 665.28 1916.59 665.28S1997.65 622.97 2071.71 622.97L2020 1080 L-100 1080 Z;M-100 714.95C-15.74 645.54 -21.8 662.74 55.12 662.74S140.02 657.06 210.24 657.06S292.71 659.22 365.37 659.22S449.08 624.35 520.49 624.35S602.23 687.99 675.61 687.99S760.48 717.1 830.73 717.1S915 614.97 985.85 614.97S1072.1 675.73 1140.98 675.73S1223.04 691.24 1296.1 691.24S1375.33 634.1 1451.22 634.1S1530.21 702.85 1606.34 702.85S1688.57 625.9 1761.46 625.9S1844 662.11 1916.59 662.11S1997.21 619.07 2071.71 619.07L2020 1080 L-100 1080 Z;M-100 716.67C-16.7 698.13 -13.67 673.49 55.12 673.49S140.83 661.54 210.24 661.54S289.33 692.64 365.37 692.64S447.22 727.02 520.49 727.02S603.71 669.39 675.61 669.39S755.78 634.7 830.73 634.7S913.9 666.88 985.85 666.88S1071.85 724.19 1140.98 724.19S1224.87 701.24 1296.1 701.24S1377.68 672.25 1451.22 672.25S1534.7 700.08 1606.34 700.08S1686.37 682.26 1761.46 682.26S1841.77 665.28 1916.59 665.28S1997.65 622.97 2071.71 622.97L2020 1080 L-100 1080 Z"></animate>
  <animateTransform attributeName="transform" type="translate" dur="40s" begin="-13.333333333333334s" repeatCount="indefinite" values="0;10;0" calcMode="spline" keySplines="0.3 0 0.7 1;0.3 0 0.7 1"></animateTransform>
</path><path d="M-100 702.48C-14.47 733.92 -13.14 701.97 63.08 701.97S150.76 721.72 226.15 721.72S315.68 768.27 389.23 768.27S475.4 774.96 552.31 774.96S637.18 760.41 715.38 760.41S803.28 755.43 878.46 755.43S960.62 793.6 1041.54 793.6S1127.45 758.47 1204.62 758.47S1294.7 733.96 1367.69 733.96S1453.87 804.87 1530.77 804.87S1614.71 763.09 1693.85 763.09S1779.2 737.07 1856.92 737.07S1941.4 758.63 2020 758.63S2108.76 734.84 2183.08 734.84L2020 1080 L-100 1080 Z" fill="#5b6ee3" stroke-width="0">
  <animate attributeName="d" dur="30.000000000000004s" repeatCount="indefinite" values="M-100 702.48C-14.47 733.92 -13.14 701.97 63.08 701.97S150.76 721.72 226.15 721.72S315.68 768.27 389.23 768.27S475.4 774.96 552.31 774.96S637.18 760.41 715.38 760.41S803.28 755.43 878.46 755.43S960.62 793.6 1041.54 793.6S1127.45 758.47 1204.62 758.47S1294.7 733.96 1367.69 733.96S1453.87 804.87 1530.77 804.87S1614.71 763.09 1693.85 763.09S1779.2 737.07 1856.92 737.07S1941.4 758.63 2020 758.63S2108.76 734.84 2183.08 734.84L2020 1080 L-100 1080 Z;M-100 761.58C-13.43 776.77 -11.99 685.45 63.08 685.45S150.42 701.59 226.15 701.59S315.24 744.08 389.23 744.08S476.46 742.52 552.31 742.52S637.84 730.16 715.38 730.16S799.35 727.88 878.46 727.88S966.48 688.81 1041.54 688.81S1124.28 710.85 1204.62 710.85S1291.07 723.54 1367.69 723.54S1452.57 720.95 1530.77 720.95S1614.71 759.54 1693.85 759.54S1780.15 690.1 1856.92 690.1S1943.8 744.44 2020 744.44S2104.5 758.03 2183.08 758.03L2020 1080 L-100 1080 Z;M-100 702.48C-14.47 733.92 -13.14 701.97 63.08 701.97S150.76 721.72 226.15 721.72S315.68 768.27 389.23 768.27S475.4 774.96 552.31 774.96S637.18 760.41 715.38 760.41S803.28 755.43 878.46 755.43S960.62 793.6 1041.54 793.6S1127.45 758.47 1204.62 758.47S1294.7 733.96 1367.69 733.96S1453.87 804.87 1530.77 804.87S1614.71 763.09 1693.85 763.09S1779.2 737.07 1856.92 737.07S1941.4 758.63 2020 758.63S2108.76 734.84 2183.08 734.84L2020 1080 L-100 1080 Z"></animate>
  <animateTransform attributeName="transform" type="translate" dur="30.000000000000004s" begin="-15.000000000000002s" repeatCount="indefinite" values="0;10;0" calcMode="spline" keySplines="0.3 0 0.7 1;0.3 0 0.7 1"></animateTransform>
</path><path d="M-100 751.8C-9.92 794.59 -11.23 741.66 71.89 741.66S160.4 748 243.78 748S331.46 840.45 415.68 840.45S503.74 746.84 587.57 746.84S676.67 787.9 759.46 787.9S847.33 872.22 931.35 872.22S1023.09 755.12 1103.24 755.12S1191.81 767.97 1275.14 767.97S1366.64 809.3 1447.03 809.3S1538.33 796.57 1618.92 796.57S1709.86 785.73 1790.81 785.73S1877.54 777.81 1962.7 777.81S2053.47 817.56 2134.59 817.56L2020 1080 L-100 1080 Z" fill="#5e59d8" stroke-width="0">
  <animate attributeName="d" dur="20s" repeatCount="indefinite" values="M-100 751.8C-9.92 794.59 -11.23 741.66 71.89 741.66S160.4 748 243.78 748S331.46 840.45 415.68 840.45S503.74 746.84 587.57 746.84S676.67 787.9 759.46 787.9S847.33 872.22 931.35 872.22S1023.09 755.12 1103.24 755.12S1191.81 767.97 1275.14 767.97S1366.64 809.3 1447.03 809.3S1538.33 796.57 1618.92 796.57S1709.86 785.73 1790.81 785.73S1877.54 777.81 1962.7 777.81S2053.47 817.56 2134.59 817.56L2020 1080 L-100 1080 Z;M-100 820.42C-6.24 774.66 -6.46 839.54 71.89 839.54S166.35 767.87 243.78 767.87S331.72 872.3 415.68 872.3S502.08 801.25 587.57 801.25S675.42 868.32 759.46 868.32S850.97 815.98 931.35 815.98S1026.03 845.31 1103.24 845.31S1197.94 798.29 1275.14 798.29S1366.85 869.42 1447.03 869.42S1541.14 874.04 1618.92 874.04S1706.88 853.42 1790.81 853.42S1881.32 845.78 1962.7 845.78S2051.52 801.21 2134.59 801.21L2020 1080 L-100 1080 Z;M-100 751.8C-9.92 794.59 -11.23 741.66 71.89 741.66S160.4 748 243.78 748S331.46 840.45 415.68 840.45S503.74 746.84 587.57 746.84S676.67 787.9 759.46 787.9S847.33 872.22 931.35 872.22S1023.09 755.12 1103.24 755.12S1191.81 767.97 1275.14 767.97S1366.64 809.3 1447.03 809.3S1538.33 796.57 1618.92 796.57S1709.86 785.73 1790.81 785.73S1877.54 777.81 1962.7 777.81S2053.47 817.56 2134.59 817.56L2020 1080 L-100 1080 Z"></animate>
  <animateTransform attributeName="transform" type="translate" dur="20s" begin="-13.333333333333334s" repeatCount="indefinite" values="0;10;0" calcMode="spline" keySplines="0.3 0 0.7 1;0.3 0 0.7 1"></animateTransform>
</path><path d="M-100 850.64C-5.75 878.59 -8.3 901.15 81.71 901.15S175.85 801.78 263.43 801.78S360.41 823.85 445.14 823.85S542.68 935.78 626.86 935.78S725.11 876.46 808.57 876.46S900.33 921.92 990.29 921.92S1089.13 884.06 1172 884.06S1267.55 837.29 1353.71 837.29S1448.69 936.5 1535.43 936.5S1633.16 805.37 1717.14 805.37S1811.76 911.35 1898.86 911.35S1992 937.35 2080.57 937.35L2020 1080 L-100 1080 Z" fill="#6824b9" stroke-width="0">
  <animate attributeName="d" dur="10s" repeatCount="indefinite" values="M-100 850.64C-5.75 878.59 -8.3 901.15 81.71 901.15S175.85 801.78 263.43 801.78S360.41 823.85 445.14 823.85S542.68 935.78 626.86 935.78S725.11 876.46 808.57 876.46S900.33 921.92 990.29 921.92S1089.13 884.06 1172 884.06S1267.55 837.29 1353.71 837.29S1448.69 936.5 1535.43 936.5S1633.16 805.37 1717.14 805.37S1811.76 911.35 1898.86 911.35S1992 937.35 2080.57 937.35L2020 1080 L-100 1080 Z;M-100 846.43C-2.89 828.86 -6.8 958.6 81.71 958.6S179.2 806.02 263.43 806.02S357.94 917.55 445.14 917.55S542.96 883.41 626.86 883.41S721.62 805.8 808.57 805.8S907.44 813.9 990.29 813.9S1089.45 940.99 1172 940.99S1267.58 903.18 1353.71 903.18S1453.27 881.51 1535.43 881.51S1629.24 841.36 1717.14 841.36S1810.13 940.43 1898.86 940.43S1995.54 819.25 2080.57 819.25L2020 1080 L-100 1080 Z;M-100 850.64C-5.75 878.59 -8.3 901.15 81.71 901.15S175.85 801.78 263.43 801.78S360.41 823.85 445.14 823.85S542.68 935.78 626.86 935.78S725.11 876.46 808.57 876.46S900.33 921.92 990.29 921.92S1089.13 884.06 1172 884.06S1267.55 837.29 1353.71 837.29S1448.69 936.5 1535.43 936.5S1633.16 805.37 1717.14 805.37S1811.76 911.35 1898.86 911.35S1992 937.35 2080.57 937.35L2020 1080 L-100 1080 Z"></animate>
  <animateTransform attributeName="transform" type="translate" dur="10s" begin="-8.333333333333334s" repeatCount="indefinite" values="0;10;0" calcMode="spline" keySplines="0.3 0 0.7 1;0.3 0 0.7 1"></animateTransform>
</path></g>
</svg>