<svg xmlns="http://www.w3.org/2000/svg" xmlns:xlink="http://www.w3.org/1999/xlink" style="margin:auto;background:#001220;display:block;z-index:1;position:relative" width="1920" height="1080" preserveAspectRatio="xMidYMid" viewBox="0 0 1920 1080">
<g transform="translate(960,540) scale(1,1) translate(-960,-540)"><path d="M-100 556.65C-27.08 521.09 -28.1 521.1 41.33 521.1S117.6 491.29 182.67 491.29S260.35 493.77 324 493.77S399.82 515.28 465.33 515.28S536.35 566.05 606.67 566.05S685.38 516.09 748 516.09S826.36 562.25 889.33 562.25S962.86 544.83 1030.67 544.83S1103.24 493.2 1172 493.2S1249.82 487.71 1313.33 487.71S1385.95 495.28 1454.67 495.28S1525.73 558.82 1596 558.82S1670.12 493.93 1737.33 493.93S1815.26 545.66 1878.67 545.66S1956.48 486.91 2020 486.91S2099.2 503.76 2161.33 503.76L2020 1080 L-100 1080 Z" fill="#69a6fa" stroke-width="0">
  <animate attributeName="d" dur="60.00000000000001s" repeatCount="indefinite" values="M-100 556.65C-27.08 521.09 -28.1 521.1 41.33 521.1S117.6 491.29 182.67 491.29S260.35 493.77 324 493.77S399.82 515.28 465.33 515.28S536.35 566.05 606.67 566.05S685.38 516.09 748 516.09S826.36 562.25 889.33 562.25S962.86 544.83 1030.67 544.83S1103.24 493.2 1172 493.2S1249.82 487.71 1313.33 487.71S1385.95 495.28 1454.67 495.28S1525.73 558.82 1596 558.82S1670.12 493.93 1737.33 493.93S1815.26 545.66 1878.67 545.66S1956.48 486.91 2020 486.91S2099.2 503.76 2161.33 503.76L2020 1080 L-100 1080 Z;M-100 492.41C-29.16 519.24 -23.19 520.31 41.33 520.31S112.78 551.42 182.67 551.42S262.06 525.41 324 525.41S400.57 562.9 465.33 562.9S539.86 519.58 606.67 519.58S679.9 565.77 748 565.77S823.27 569.16 889.33 569.16S960.33 500.24 1030.67 500.24S1104.58 488.51 1172 488.51S1247.24 535.02 1313.33 535.02S1385.03 531.31 1454.67 531.31S1528.52 515.91 1596 515.91S1670.37 566.93 1737.33 566.93S1813.51 527.07 1878.67 527.07S1954.66 549.29 2020 549.29S2091.39 565.75 2161.33 565.75L2020 1080 L-100 1080 Z;M-100 556.65C-27.08 521.09 -28.1 521.1 41.33 521.1S117.6 491.29 182.67 491.29S260.35 493.77 324 493.77S399.82 515.28 465.33 515.28S536.35 566.05 606.67 566.05S685.38 516.09 748 516.09S826.36 562.25 889.33 562.25S962.86 544.83 1030.67 544.83S1103.24 493.2 1172 493.2S1249.82 487.71 1313.33 487.71S1385.95 495.28 1454.67 495.28S1525.73 558.82 1596 558.82S1670.12 493.93 1737.33 493.93S1815.26 545.66 1878.67 545.66S1956.48 486.91 2020 486.91S2099.2 503.76 2161.33 503.76L2020 1080 L-100 1080 Z"></animate>
  <animateTransform attributeName="transform" type="translate" dur="60.00000000000001s" begin="0s" repeatCount="indefinite" values="0;10;0" calcMode="spline" keySplines="0.3 0 0.7 1;0.3 0 0.7 1"></animateTransform>
</path><path d="M-100 633.11C-25.7 591.18 -24.58 580.7 47.91 580.7S122.18 631.82 195.81 631.82S277.1 603.62 343.72 603.62S426.43 573.61 491.63 573.61S569.02 592.33 639.53 592.33S720.06 578.58 787.44 578.58S869.64 607.45 935.35 607.45S1013.65 579.56 1083.26 579.56S1164.55 616.27 1231.16 616.27S1307.74 589.96 1379.07 589.96S1461.57 607.83 1526.98 607.83S1603.08 616.55 1674.88 616.55S1756.56 580.66 1822.79 580.66S1898.31 550.31 1970.7 550.31S2053.12 598.34 2118.6 598.34L2020 1080 L-100 1080 Z" fill="#6094f4" stroke-width="0">
  <animate attributeName="d" dur="50.00000000000001s" repeatCount="indefinite" values="M-100 633.11C-25.7 591.18 -24.58 580.7 47.91 580.7S122.18 631.82 195.81 631.82S277.1 603.62 343.72 603.62S426.43 573.61 491.63 573.61S569.02 592.33 639.53 592.33S720.06 578.58 787.44 578.58S869.64 607.45 935.35 607.45S1013.65 579.56 1083.26 579.56S1164.55 616.27 1231.16 616.27S1307.74 589.96 1379.07 589.96S1461.57 607.83 1526.98 607.83S1603.08 616.55 1674.88 616.55S1756.56 580.66 1822.79 580.66S1898.31 550.31 1970.7 550.31S2053.12 598.34 2118.6 598.34L2020 1080 L-100 1080 Z;M-100 612.08C-24.56 583.43 -23.44 556.8 47.91 556.8S129.44 635.44 195.81 635.44S274.61 610.6 343.72 610.6S424.41 601.71 491.63 601.71S571.68 566.21 639.53 566.21S717.62 634.73 787.44 634.73S861.53 593.81 935.35 593.81S1012.23 550.6 1083.26 550.6S1158.14 569.81 1231.16 569.81S1306.66 567.49 1379.07 567.49S1455.39 578.43 1526.98 578.43S1604.35 615.7 1674.88 615.7S1751.03 618.25 1822.79 618.25S1897.03 617.62 1970.7 617.62S2046.81 615.69 2118.6 615.69L2020 1080 L-100 1080 Z;M-100 633.11C-25.7 591.18 -24.58 580.7 47.91 580.7S122.18 631.82 195.81 631.82S277.1 603.62 343.72 603.62S426.43 573.61 491.63 573.61S569.02 592.33 639.53 592.33S720.06 578.58 787.44 578.58S869.64 607.45 935.35 607.45S1013.65 579.56 1083.26 579.56S1164.55 616.27 1231.16 616.27S1307.74 589.96 1379.07 589.96S1461.57 607.83 1526.98 607.83S1603.08 616.55 1674.88 616.55S1756.56 580.66 1822.79 580.66S1898.31 550.31 1970.7 550.31S2053.12 598.34 2118.6 598.34L2020 1080 L-100 1080 Z"></animate>
  <animateTransform attributeName="transform" type="translate" dur="50.00000000000001s" begin="-8.333333333333334s" repeatCount="indefinite" values="0;10;0" calcMode="spline" keySplines="0.3 0 0.7 1;0.3 0 0.7 1"></animateTransform>
</path><path d="M-100 664.79C-19.1 642.15 -20.6 654.15 55.12 654.15S133.13 656.13 210.24 656.13S294.4 662.89 365.37 662.89S443 628.97 520.49 628.97S600.53 647.75 675.61 647.75S759.61 620.4 830.73 620.4S909.07 719.04 985.85 719.04S1072.14 630.32 1140.98 630.32S1223.72 723.41 1296.1 723.41S1379.39 661.12 1451.22 661.12S1534.82 698.41 1606.34 698.41S1689.95 676.53 1761.46 676.53S1845.73 661.01 1916.59 661.01S1994.51 617.56 2071.71 617.56L2020 1080 L-100 1080 Z" fill="#5b81ed" stroke-width="0">
  <animate attributeName="d" dur="40s" repeatCount="indefinite" values="M-100 664.79C-19.1 642.15 -20.6 654.15 55.12 654.15S133.13 656.13 210.24 656.13S294.4 662.89 365.37 662.89S443 628.97 520.49 628.97S600.53 647.75 675.61 647.75S759.61 620.4 830.73 620.4S909.07 719.04 985.85 719.04S1072.14 630.32 1140.98 630.32S1223.72 723.41 1296.1 723.41S1379.39 661.12 1451.22 661.12S1534.82 698.41 1606.34 698.41S1689.95 676.53 1761.46 676.53S1845.73 661.01 1916.59 661.01S1994.51 617.56 2071.71 617.56L2020 1080 L-100 1080 Z;M-100 690.45C-13.67 632.01 -17 712.87 55.12 712.87S137.39 633.01 210.24 633.01S294.42 648.63 365.37 648.63S445.9 716.55 520.49 716.55S606.33 636.58 675.61 636.58S760.15 619.7 830.73 619.7S913.86 705.92 985.85 705.92S1065.99 683.45 1140.98 683.45S1227.14 670.13 1296.1 670.13S1378.85 673.38 1451.22 673.38S1530.1 650.08 1606.34 650.08S1692.59 636.86 1761.46 636.86S1840.19 729 1916.59 729S2002.55 697.68 2071.71 697.68L2020 1080 L-100 1080 Z;M-100 664.79C-19.1 642.15 -20.6 654.15 55.12 654.15S133.13 656.13 210.24 656.13S294.4 662.89 365.37 662.89S443 628.97 520.49 628.97S600.53 647.75 675.61 647.75S759.61 620.4 830.73 620.4S909.07 719.04 985.85 719.04S1072.14 630.32 1140.98 630.32S1223.72 723.41 1296.1 723.41S1379.39 661.12 1451.22 661.12S1534.82 698.41 1606.34 698.41S1689.95 676.53 1761.46 676.53S1845.73 661.01 1916.59 661.01S1994.51 617.56 2071.71 617.56L2020 1080 L-100 1080 Z"></animate>
  <animateTransform attributeName="transform" type="translate" dur="40s" begin="-13.333333333333334s" repeatCount="indefinite" values="0;10;0" calcMode="spline" keySplines="0.3 0 0.7 1;0.3 0 0.7 1"></animateTransform>
</path><path d="M-100 683.34C-12.66 758.56 -16.31 723.35 63.08 723.35S153.42 699.02 226.15 699.02S315.58 689.72 389.23 689.72S476.05 728.51 552.31 728.51S639.32 780.67 715.38 780.67S803.37 712.73 878.46 712.73S964.79 785.77 1041.54 785.77S1131.09 755.62 1204.62 755.62S1291.75 747.41 1367.69 747.41S1456.15 683.48 1530.77 683.48S1618.69 743.24 1693.85 743.24S1782.02 675.97 1856.92 675.97S1938.67 777.09 2020 777.09S2103.02 707.83 2183.08 707.83L2020 1080 L-100 1080 Z" fill="#5b6ee3" stroke-width="0">
  <animate attributeName="d" dur="30.000000000000004s" repeatCount="indefinite" values="M-100 683.34C-12.66 758.56 -16.31 723.35 63.08 723.35S153.42 699.02 226.15 699.02S315.58 689.72 389.23 689.72S476.05 728.51 552.31 728.51S639.32 780.67 715.38 780.67S803.37 712.73 878.46 712.73S964.79 785.77 1041.54 785.77S1131.09 755.62 1204.62 755.62S1291.75 747.41 1367.69 747.41S1456.15 683.48 1530.77 683.48S1618.69 743.24 1693.85 743.24S1782.02 675.97 1856.92 675.97S1938.67 777.09 2020 777.09S2103.02 707.83 2183.08 707.83L2020 1080 L-100 1080 Z;M-100 732.44C-17.94 685.36 -13.82 799.64 63.08 799.64S146.92 675.84 226.15 675.84S309.09 728.7 389.23 728.7S478.9 705.85 552.31 705.85S635.38 764.56 715.38 764.56S797.71 735.03 878.46 735.03S961.09 757.03 1041.54 757.03S1125.14 730.39 1204.62 730.39S1288.06 752.32 1367.69 752.32S1457.48 689.36 1530.77 689.36S1617.58 740.63 1693.85 740.63S1780.37 722.64 1856.92 722.64S1939.68 803.68 2020 803.68S2110.02 758.25 2183.08 758.25L2020 1080 L-100 1080 Z;M-100 683.34C-12.66 758.56 -16.31 723.35 63.08 723.35S153.42 699.02 226.15 699.02S315.58 689.72 389.23 689.72S476.05 728.51 552.31 728.51S639.32 780.67 715.38 780.67S803.37 712.73 878.46 712.73S964.79 785.77 1041.54 785.77S1131.09 755.62 1204.62 755.62S1291.75 747.41 1367.69 747.41S1456.15 683.48 1530.77 683.48S1618.69 743.24 1693.85 743.24S1782.02 675.97 1856.92 675.97S1938.67 777.09 2020 777.09S2103.02 707.83 2183.08 707.83L2020 1080 L-100 1080 Z"></animate>
  <animateTransform attributeName="transform" type="translate" dur="30.000000000000004s" begin="-15.000000000000002s" repeatCount="indefinite" values="0;10;0" calcMode="spline" keySplines="0.3 0 0.7 1;0.3 0 0.7 1"></animateTransform>
</path><path d="M-100 841.91C-9.69 847.84 -9.64 866.78 71.89 866.78S158.89 790.33 243.78 790.33S337.64 748.98 415.68 748.98S505.25 839.12 587.57 839.12S677.51 809.05 759.46 809.05S850.52 824.9 931.35 824.9S1025.58 802.76 1103.24 802.76S1189.4 770.22 1275.14 770.22S1369.39 803.46 1447.03 803.46S1534.43 814.11 1618.92 814.11S1707.56 845.3 1790.81 845.3S1876.8 772.96 1962.7 772.96S2054.79 836.65 2134.59 836.65L2020 1080 L-100 1080 Z" fill="#5e59d8" stroke-width="0">
  <animate attributeName="d" dur="20s" repeatCount="indefinite" values="M-100 841.91C-9.69 847.84 -9.64 866.78 71.89 866.78S158.89 790.33 243.78 790.33S337.64 748.98 415.68 748.98S505.25 839.12 587.57 839.12S677.51 809.05 759.46 809.05S850.52 824.9 931.35 824.9S1025.58 802.76 1103.24 802.76S1189.4 770.22 1275.14 770.22S1369.39 803.46 1447.03 803.46S1534.43 814.11 1618.92 814.11S1707.56 845.3 1790.81 845.3S1876.8 772.96 1962.7 772.96S2054.79 836.65 2134.59 836.65L2020 1080 L-100 1080 Z;M-100 801.64C-11.85 830.49 -11.56 867.97 71.89 867.97S160.86 818.91 243.78 818.91S331.05 800.54 415.68 800.54S505.49 744.98 587.57 744.98S676.68 827.71 759.46 827.71S849.35 800.85 931.35 800.85S1023.45 846.07 1103.24 846.07S1194.56 785.17 1275.14 785.17S1361.85 836.75 1447.03 836.75S1539.14 816.61 1618.92 816.61S1705.74 741.45 1790.81 741.45S1882.08 807.66 1962.7 807.66S2053.29 880.99 2134.59 880.99L2020 1080 L-100 1080 Z;M-100 841.91C-9.69 847.84 -9.64 866.78 71.89 866.78S158.89 790.33 243.78 790.33S337.64 748.98 415.68 748.98S505.25 839.12 587.57 839.12S677.51 809.05 759.46 809.05S850.52 824.9 931.35 824.9S1025.58 802.76 1103.24 802.76S1189.4 770.22 1275.14 770.22S1369.39 803.46 1447.03 803.46S1534.43 814.11 1618.92 814.11S1707.56 845.3 1790.81 845.3S1876.8 772.96 1962.7 772.96S2054.79 836.65 2134.59 836.65L2020 1080 L-100 1080 Z"></animate>
  <animateTransform attributeName="transform" type="translate" dur="20s" begin="-13.333333333333334s" repeatCount="indefinite" values="0;10;0" calcMode="spline" keySplines="0.3 0 0.7 1;0.3 0 0.7 1"></animateTransform>
</path><path d="M-100 828.93C-2.17 879.13 -0.99 960.72 81.71 960.72S176.94 870.31 263.43 870.31S361.76 921.64 445.14 921.64S543.11 862.46 626.86 862.46S722.11 880.88 808.57 880.88S905.3 908.7 990.29 908.7S1081.87 927.03 1172 927.03S1264.53 878.19 1353.71 878.19S1452.96 947.76 1535.43 947.76S1633.05 916.58 1717.14 916.58S1812.94 931.5 1898.86 931.5S1997.23 853.97 2080.57 853.97L2020 1080 L-100 1080 Z" fill="#6824b9" stroke-width="0">
  <animate attributeName="d" dur="10s" repeatCount="indefinite" values="M-100 828.93C-2.17 879.13 -0.99 960.72 81.71 960.72S176.94 870.31 263.43 870.31S361.76 921.64 445.14 921.64S543.11 862.46 626.86 862.46S722.11 880.88 808.57 880.88S905.3 908.7 990.29 908.7S1081.87 927.03 1172 927.03S1264.53 878.19 1353.71 878.19S1452.96 947.76 1535.43 947.76S1633.05 916.58 1717.14 916.58S1812.94 931.5 1898.86 931.5S1997.23 853.97 2080.57 853.97L2020 1080 L-100 1080 Z;M-100 860.6C-7.01 868.99 -8.17 942.89 81.71 942.89S178.35 889 263.43 889S359.11 908.48 445.14 908.48S536.64 808.66 626.86 808.66S721 910.17 808.57 910.17S907.48 824.15 990.29 824.15S1089.25 936.42 1172 936.42S1269.02 850.28 1353.71 850.28S1452.74 892.11 1535.43 892.11S1633.23 873.04 1717.14 873.04S1815.26 930.72 1898.86 930.72S1992.87 957.21 2080.57 957.21L2020 1080 L-100 1080 Z;M-100 828.93C-2.17 879.13 -0.99 960.72 81.71 960.72S176.94 870.31 263.43 870.31S361.76 921.64 445.14 921.64S543.11 862.46 626.86 862.46S722.11 880.88 808.57 880.88S905.3 908.7 990.29 908.7S1081.87 927.03 1172 927.03S1264.53 878.19 1353.71 878.19S1452.96 947.76 1535.43 947.76S1633.05 916.58 1717.14 916.58S1812.94 931.5 1898.86 931.5S1997.23 853.97 2080.57 853.97L2020 1080 L-100 1080 Z"></animate>
  <animateTransform attributeName="transform" type="translate" dur="10s" begin="-8.333333333333334s" repeatCount="indefinite" values="0;10;0" calcMode="spline" keySplines="0.3 0 0.7 1;0.3 0 0.7 1"></animateTransform>
</path></g>
</svg>