<svg xmlns="http://www.w3.org/2000/svg" xmlns:xlink="http://www.w3.org/1999/xlink" style="margin:auto;background:#001220;display:block;z-index:1;position:relative" width="1920" height="229" preserveAspectRatio="xMidYMid" viewBox="0 0 1920 229">
<g transform="translate(960,114.5) scale(1,-1) translate(-960,-114.5)"><path d="M-100 32.98C-49 42.4 -48.96 34.3 0.95 34.3S51.54 32.15 101.9 32.15S152.42 33.15 202.86 33.15S253.59 39.03 303.81 39.03S356.36 36.77 404.76 36.77S457.2 32.51 505.71 32.51S556.99 36.2 606.67 36.2S658.2 34.25 707.62 34.25S758.5 33.47 808.57 33.47S860.96 44.75 909.52 44.75S960.85 48.48 1010.48 48.48S1061.12 42.95 1111.43 42.95S1163.66 48.7 1212.38 48.7S1264.92 41.41 1313.33 41.41S1364.06 31.82 1414.29 31.82S1466.48 40.68 1515.24 40.68S1566.11 49.55 1616.19 49.55S1668.25 36.99 1717.14 36.99S1767.95 49.4 1818.1 49.4S1868.78 30.33 1919.05 30.33S1971.11 47.11 2020 47.11S2070.94 33.81 2120.95 33.81L2020 229 L-100 229 Z" fill="#69a6fa" stroke-width="0">
  <animate attributeName="d" dur="12.5s" repeatCount="indefinite" values="M-100 32.98C-49 42.4 -48.96 34.3 0.95 34.3S51.54 32.15 101.9 32.15S152.42 33.15 202.86 33.15S253.59 39.03 303.81 39.03S356.36 36.77 404.76 36.77S457.2 32.51 505.71 32.51S556.99 36.2 606.67 36.2S658.2 34.25 707.62 34.25S758.5 33.47 808.57 33.47S860.96 44.75 909.52 44.75S960.85 48.48 1010.48 48.48S1061.12 42.95 1111.43 42.95S1163.66 48.7 1212.38 48.7S1264.92 41.41 1313.33 41.41S1364.06 31.82 1414.29 31.82S1466.48 40.68 1515.24 40.68S1566.11 49.55 1616.19 49.55S1668.25 36.99 1717.14 36.99S1767.95 49.4 1818.1 49.4S1868.78 30.33 1919.05 30.33S1971.11 47.11 2020 47.11S2070.94 33.81 2120.95 33.81L2020 229 L-100 229 Z;M-100 48.8C-49.42 48.28 -48.26 51.51 0.95 51.51S51.77 48.49 101.9 48.49S152.51 35.91 202.86 35.91S254.71 41.78 303.81 41.78S354.39 32.8 404.76 32.8S457 41.71 505.71 41.71S557.12 34.64 606.67 34.64S658.15 40.51 707.62 40.51S760.01 36.59 808.57 36.59S860.97 33.51 909.52 33.51S960.31 51.63 1010.48 51.63S1061.47 41.22 1111.43 41.22S1163.37 44.58 1212.38 44.58S1264.13 44.62 1313.33 44.62S1365.67 44.28 1414.29 44.28S1466.57 41.51 1515.24 41.51S1567.26 48.6 1616.19 48.6S1666.88 43.53 1717.14 43.53S1767.66 50.45 1818.1 50.45S1870.51 35.08 1919.05 35.08S1971.36 43.46 2020 43.46S2071.92 42.09 2120.95 42.09L2020 229 L-100 229 Z;M-100 32.98C-49 42.4 -48.96 34.3 0.95 34.3S51.54 32.15 101.9 32.15S152.42 33.15 202.86 33.15S253.59 39.03 303.81 39.03S356.36 36.77 404.76 36.77S457.2 32.51 505.71 32.51S556.99 36.2 606.67 36.2S658.2 34.25 707.62 34.25S758.5 33.47 808.57 33.47S860.96 44.75 909.52 44.75S960.85 48.48 1010.48 48.48S1061.12 42.95 1111.43 42.95S1163.66 48.7 1212.38 48.7S1264.92 41.41 1313.33 41.41S1364.06 31.82 1414.29 31.82S1466.48 40.68 1515.24 40.68S1566.11 49.55 1616.19 49.55S1668.25 36.99 1717.14 36.99S1767.95 49.4 1818.1 49.4S1868.78 30.33 1919.05 30.33S1971.11 47.11 2020 47.11S2070.94 33.81 2120.95 33.81L2020 229 L-100 229 Z"></animate>
  <animateTransform attributeName="transform" type="translate" dur="12.5s" begin="0s" repeatCount="indefinite" values="0;10;0" calcMode="spline" keySplines="0.3 0 0.7 1;0.3 0 0.7 1"></animateTransform>
</path><path d="M-100 70.2C-45.23 71.23 -45.18 79.23 6.53 79.23S60.8 70.64 113.07 70.64S168.12 68.66 219.6 68.66S273.28 65.29 326.13 65.29S381.48 86.11 432.66 86.11S487.49 86.56 539.2 86.56S593.95 67.66 645.73 67.66S700.34 80.59 752.26 80.59S806.44 83.73 858.79 83.73S913.18 66.92 965.33 66.92S1018.62 65.46 1071.86 65.46S1125.68 76.39 1178.39 76.39S1232.15 67.44 1284.92 67.44S1339.46 71.75 1391.46 71.75S1445.06 81.5 1497.99 81.5S1552.29 62.4 1604.52 62.4S1658.59 76.26 1711.06 76.26S1765.11 73.68 1817.59 73.68S1871.04 79.45 1924.12 79.45S1977.82 66.55 2030.65 66.55L2020 229 L-100 229 Z" fill="#5e90f3" stroke-width="0">
  <animate attributeName="d" dur="10s" repeatCount="indefinite" values="M-100 70.2C-45.23 71.23 -45.18 79.23 6.53 79.23S60.8 70.64 113.07 70.64S168.12 68.66 219.6 68.66S273.28 65.29 326.13 65.29S381.48 86.11 432.66 86.11S487.49 86.56 539.2 86.56S593.95 67.66 645.73 67.66S700.34 80.59 752.26 80.59S806.44 83.73 858.79 83.73S913.18 66.92 965.33 66.92S1018.62 65.46 1071.86 65.46S1125.68 76.39 1178.39 76.39S1232.15 67.44 1284.92 67.44S1339.46 71.75 1391.46 71.75S1445.06 81.5 1497.99 81.5S1552.29 62.4 1604.52 62.4S1658.59 76.26 1711.06 76.26S1765.11 73.68 1817.59 73.68S1871.04 79.45 1924.12 79.45S1977.82 66.55 2030.65 66.55L2020 229 L-100 229 Z;M-100 66.8C-44.72 69.09 -45.94 72.16 6.53 72.16S60.45 79.17 113.07 79.17S168.45 66.39 219.6 66.39S274.18 74.64 326.13 74.64S379.4 76.55 432.66 76.55S486.1 77.22 539.2 77.22S593.33 84.59 645.73 84.59S700.46 68.72 752.26 68.72S807.28 80.39 858.79 80.39S913.34 72.6 965.33 72.6S1020.22 74.56 1071.86 74.56S1126.44 82.17 1178.39 82.17S1232.27 81.17 1284.92 81.17S1339.49 75.14 1391.46 75.14S1446.53 81.77 1497.99 81.77S1553.26 61.25 1604.52 61.25S1659.08 77.17 1711.06 77.17S1765.93 77.5 1817.59 77.5S1872.37 74.6 1924.12 74.6S1978.49 73.03 2030.65 73.03L2020 229 L-100 229 Z;M-100 70.2C-45.23 71.23 -45.18 79.23 6.53 79.23S60.8 70.64 113.07 70.64S168.12 68.66 219.6 68.66S273.28 65.29 326.13 65.29S381.48 86.11 432.66 86.11S487.49 86.56 539.2 86.56S593.95 67.66 645.73 67.66S700.34 80.59 752.26 80.59S806.44 83.73 858.79 83.73S913.18 66.92 965.33 66.92S1018.62 65.46 1071.86 65.46S1125.68 76.39 1178.39 76.39S1232.15 67.44 1284.92 67.44S1339.46 71.75 1391.46 71.75S1445.06 81.5 1497.99 81.5S1552.29 62.4 1604.52 62.4S1658.59 76.26 1711.06 76.26S1765.11 73.68 1817.59 73.68S1871.04 79.45 1924.12 79.45S1977.82 66.55 2030.65 66.55L2020 229 L-100 229 Z"></animate>
  <animateTransform attributeName="transform" type="translate" dur="10s" begin="-2s" repeatCount="indefinite" values="0;10;0" calcMode="spline" keySplines="0.3 0 0.7 1;0.3 0 0.7 1"></animateTransform>
</path><path d="M-100 96.63C-41.83 101.23 -41.74 113.85 12.77 113.85S70.37 106.08 125.53 106.08S182.46 104.98 238.3 104.98S296.53 99.31 351.06 99.31S407.53 108.17 463.83 108.17S521.31 96.13 576.6 96.13S634 112.04 689.36 112.04S746.21 110.19 802.13 110.19S860.32 113.15 914.89 113.15S973.08 98.21 1027.66 98.21S1084.71 98.52 1140.43 98.52S1198.09 96.67 1253.19 96.67S1310.03 100.89 1365.96 100.89S1423.17 112.33 1478.72 112.33S1536.77 103.59 1591.49 103.59S1648.14 110.32 1704.26 110.32S1761.89 100.47 1817.02 100.47S1874.66 105.56 1929.79 105.56S1986.8 99.53 2042.55 99.53L2020 229 L-100 229 Z" fill="#5a79e9" stroke-width="0">
  <animate attributeName="d" dur="7.5s" repeatCount="indefinite" values="M-100 96.63C-41.83 101.23 -41.74 113.85 12.77 113.85S70.37 106.08 125.53 106.08S182.46 104.98 238.3 104.98S296.53 99.31 351.06 99.31S407.53 108.17 463.83 108.17S521.31 96.13 576.6 96.13S634 112.04 689.36 112.04S746.21 110.19 802.13 110.19S860.32 113.15 914.89 113.15S973.08 98.21 1027.66 98.21S1084.71 98.52 1140.43 98.52S1198.09 96.67 1253.19 96.67S1310.03 100.89 1365.96 100.89S1423.17 112.33 1478.72 112.33S1536.77 103.59 1591.49 103.59S1648.14 110.32 1704.26 110.32S1761.89 100.47 1817.02 100.47S1874.66 105.56 1929.79 105.56S1986.8 99.53 2042.55 99.53L2020 229 L-100 229 Z;M-100 97.02C-43.08 103.72 -43.58 119.53 12.77 119.53S69.77 90.8 125.53 90.8S183.61 106.89 238.3 106.89S296.31 103.12 351.06 103.12S408.09 104.7 463.83 104.7S520.74 120.82 576.6 120.82S632.99 110.93 689.36 110.93S746.09 95.09 802.13 95.09S859.95 107.49 914.89 107.49S971.76 113.4 1027.66 113.4S1086.22 111.83 1140.43 111.83S1199.02 105.52 1253.19 105.52S1311.71 105.71 1365.96 105.71S1424.43 105.3 1478.72 105.3S1535.89 111.32 1591.49 111.32S1649.14 107.33 1704.26 107.33S1762.49 116.6 1817.02 116.6S1873.49 121.65 1929.79 121.65S1986.29 118.89 2042.55 118.89L2020 229 L-100 229 Z;M-100 96.63C-41.83 101.23 -41.74 113.85 12.77 113.85S70.37 106.08 125.53 106.08S182.46 104.98 238.3 104.98S296.53 99.31 351.06 99.31S407.53 108.17 463.83 108.17S521.31 96.13 576.6 96.13S634 112.04 689.36 112.04S746.21 110.19 802.13 110.19S860.32 113.15 914.89 113.15S973.08 98.21 1027.66 98.21S1084.71 98.52 1140.43 98.52S1198.09 96.67 1253.19 96.67S1310.03 100.89 1365.96 100.89S1423.17 112.33 1478.72 112.33S1536.77 103.59 1591.49 103.59S1648.14 110.32 1704.26 110.32S1761.89 100.47 1817.02 100.47S1874.66 105.56 1929.79 105.56S1986.8 99.53 2042.55 99.53L2020 229 L-100 229 Z"></animate>
  <animateTransform attributeName="transform" type="translate" dur="7.5s" begin="-3s" repeatCount="indefinite" values="0;10;0" calcMode="spline" keySplines="0.3 0 0.7 1;0.3 0 0.7 1"></animateTransform>
</path><path d="M-100 139C-38.44 130.17 -39.86 144.11 19.77 144.11S79.76 126.27 139.55 126.27S201.05 142.15 259.32 142.15S319.47 140.8 379.1 140.8S440 135.32 498.87 135.32S560.77 141.28 618.64 141.28S680.5 142.9 738.42 142.9S799.71 130.71 858.19 130.71S918.44 153.46 977.97 153.46S1039.27 135.42 1097.74 135.42S1159.56 154.37 1217.51 154.37S1278.37 141.89 1337.29 141.89S1399.14 134.2 1457.06 134.2S1518.17 140.87 1576.84 140.87S1638.31 150.32 1696.61 150.32S1757.02 129.76 1816.38 129.76S1878.11 149.31 1936.16 149.31S1997.65 142.17 2055.93 142.17L2020 229 L-100 229 Z" fill="#5c61dd" stroke-width="0">
  <animate attributeName="d" dur="5s" repeatCount="indefinite" values="M-100 139C-38.44 130.17 -39.86 144.11 19.77 144.11S79.76 126.27 139.55 126.27S201.05 142.15 259.32 142.15S319.47 140.8 379.1 140.8S440 135.32 498.87 135.32S560.77 141.28 618.64 141.28S680.5 142.9 738.42 142.9S799.71 130.71 858.19 130.71S918.44 153.46 977.97 153.46S1039.27 135.42 1097.74 135.42S1159.56 154.37 1217.51 154.37S1278.37 141.89 1337.29 141.89S1399.14 134.2 1457.06 134.2S1518.17 140.87 1576.84 140.87S1638.31 150.32 1696.61 150.32S1757.02 129.76 1816.38 129.76S1878.11 149.31 1936.16 149.31S1997.65 142.17 2055.93 142.17L2020 229 L-100 229 Z;M-100 124.65C-38.99 136.19 -38.8 148.21 19.77 148.21S81.71 142.69 139.55 142.69S201.28 146.79 259.32 146.79S320.04 132.88 379.1 132.88S439.97 140.49 498.87 140.49S560.61 139.45 618.64 139.45S679.5 138.69 738.42 138.69S798.55 140.92 858.19 140.92S918.17 138.74 977.97 138.74S1038.02 146.84 1097.74 146.84S1158.99 141.82 1217.51 141.82S1277.48 133.74 1337.29 133.74S1397.35 136.59 1457.06 136.59S1517.7 137.18 1576.84 137.18S1637.71 146.08 1696.61 146.08S1758.68 148.46 1816.38 148.46S1877.36 148.46 1936.16 148.46S1996.41 132.03 2055.93 132.03L2020 229 L-100 229 Z;M-100 139C-38.44 130.17 -39.86 144.11 19.77 144.11S79.76 126.27 139.55 126.27S201.05 142.15 259.32 142.15S319.47 140.8 379.1 140.8S440 135.32 498.87 135.32S560.77 141.28 618.64 141.28S680.5 142.9 738.42 142.9S799.71 130.71 858.19 130.71S918.44 153.46 977.97 153.46S1039.27 135.42 1097.74 135.42S1159.56 154.37 1217.51 154.37S1278.37 141.89 1337.29 141.89S1399.14 134.2 1457.06 134.2S1518.17 140.87 1576.84 140.87S1638.31 150.32 1696.61 150.32S1757.02 129.76 1816.38 129.76S1878.11 149.31 1936.16 149.31S1997.65 142.17 2055.93 142.17L2020 229 L-100 229 Z"></animate>
  <animateTransform attributeName="transform" type="translate" dur="5s" begin="-3s" repeatCount="indefinite" values="0;10;0" calcMode="spline" keySplines="0.3 0 0.7 1;0.3 0 0.7 1"></animateTransform>
</path><path d="M-100 174.27C-35.63 188.75 -34.83 177.97 27.71 177.97S93.77 186.6 155.42 186.6S220.21 158.02 283.13 158.02S347.32 157.89 410.84 157.89S474.86 191.07 538.55 191.07S602.49 181.28 666.27 181.28S730.7 190.44 793.98 190.44S859.28 181.19 921.69 181.19S987.7 168.62 1049.4 168.62S1115.45 151.61 1177.11 151.61S1242.88 161.2 1304.82 161.2S1370.29 180.24 1432.53 180.24S1498.57 169.09 1560.24 169.09S1625.79 165.01 1687.95 165.01S1752.49 169.36 1815.66 169.36S1880.46 169.02 1943.37 169.02S2007.69 158.27 2071.08 158.27L2020 229 L-100 229 Z" fill="#6246cd" stroke-width="0">
  <animate attributeName="d" dur="2.5s" repeatCount="indefinite" values="M-100 174.27C-35.63 188.75 -34.83 177.97 27.71 177.97S93.77 186.6 155.42 186.6S220.21 158.02 283.13 158.02S347.32 157.89 410.84 157.89S474.86 191.07 538.55 191.07S602.49 181.28 666.27 181.28S730.7 190.44 793.98 190.44S859.28 181.19 921.69 181.19S987.7 168.62 1049.4 168.62S1115.45 151.61 1177.11 151.61S1242.88 161.2 1304.82 161.2S1370.29 180.24 1432.53 180.24S1498.57 169.09 1560.24 169.09S1625.79 165.01 1687.95 165.01S1752.49 169.36 1815.66 169.36S1880.46 169.02 1943.37 169.02S2007.69 158.27 2071.08 158.27L2020 229 L-100 229 Z;M-100 167.06C-35.63 154.24 -35.73 189.18 27.71 189.18S92.35 159.43 155.42 159.43S220.81 177.24 283.13 177.24S348.02 166.04 410.84 166.04S475.4 164.21 538.55 164.21S602.96 157.6 666.27 157.6S730.6 169.65 793.98 169.65S859.43 163.29 921.69 163.29S986.15 180.53 1049.4 180.53S1115.36 156.24 1177.11 156.24S1241.38 186.48 1304.82 186.48S1369.88 156.85 1432.53 156.85S1498.32 186.5 1560.24 186.5S1624.14 164.79 1687.95 164.79S1752.21 175.86 1815.66 175.86S1880.98 172.44 1943.37 172.44S2009.05 172.56 2071.08 172.56L2020 229 L-100 229 Z;M-100 174.27C-35.63 188.75 -34.83 177.97 27.71 177.97S93.77 186.6 155.42 186.6S220.21 158.02 283.13 158.02S347.32 157.89 410.84 157.89S474.86 191.07 538.55 191.07S602.49 181.28 666.27 181.28S730.7 190.44 793.98 190.44S859.28 181.19 921.69 181.19S987.7 168.62 1049.4 168.62S1115.45 151.61 1177.11 151.61S1242.88 161.2 1304.82 161.2S1370.29 180.24 1432.53 180.24S1498.57 169.09 1560.24 169.09S1625.79 165.01 1687.95 165.01S1752.49 169.36 1815.66 169.36S1880.46 169.02 1943.37 169.02S2007.69 158.27 2071.08 158.27L2020 229 L-100 229 Z"></animate>
  <animateTransform attributeName="transform" type="translate" dur="2.5s" begin="-2s" repeatCount="indefinite" values="0;10;0" calcMode="spline" keySplines="0.3 0 0.7 1;0.3 0 0.7 1"></animateTransform>
</path></g>
</svg>