<svg id="visual" viewBox="0 0 1920 200" width="1920" height="200" xmlns="http://www.w3.org/2000/svg" xmlns:xlink="http://www.w3.org/1999/xlink" version="1.1"><rect x="0" y="0" width="1920" height="200" fill="#001220"></rect><path d="M0 169L18.8 167.8C37.7 166.7 75.3 164.3 113 163.5C150.7 162.7 188.3 163.3 226 158C263.7 152.7 301.3 141.3 339 136C376.7 130.7 414.3 131.3 452 139C489.7 146.7 527.3 161.3 565 163C602.7 164.7 640.3 153.3 678 152.8C715.7 152.3 753.3 162.7 791 166.2C828.7 169.7 866.3 166.3 903.8 168C941.3 169.7 978.7 176.3 1016.2 173.8C1053.7 171.3 1091.3 159.7 1129 158.5C1166.7 157.3 1204.3 166.7 1242 164.8C1279.7 163 1317.3 150 1355 152C1392.7 154 1430.3 171 1468 178.3C1505.7 185.7 1543.3 183.3 1581 178C1618.7 172.7 1656.3 164.3 1694 165C1731.7 165.7 1769.3 175.3 1807 170.5C1844.7 165.7 1882.3 146.3 1901.2 136.7L1920 127L1920 0L1901.2 0C1882.3 0 1844.7 0 1807 0C1769.3 0 1731.7 0 1694 0C1656.3 0 1618.7 0 1581 0C1543.3 0 1505.7 0 1468 0C1430.3 0 1392.7 0 1355 0C1317.3 0 1279.7 0 1242 0C1204.3 0 1166.7 0 1129 0C1091.3 0 1053.7 0 1016.2 0C978.7 0 941.3 0 903.8 0C866.3 0 828.7 0 791 0C753.3 0 715.7 0 678 0C640.3 0 602.7 0 565 0C527.3 0 489.7 0 452 0C414.3 0 376.7 0 339 0C301.3 0 263.7 0 226 0C188.3 0 150.7 0 113 0C75.3 0 37.7 0 18.8 0L0 0Z" fill="#69a6fa"></path><path d="M0 113L18.8 110.7C37.7 108.3 75.3 103.7 113 107C150.7 110.3 188.3 121.7 226 122C263.7 122.3 301.3 111.7 339 111C376.7 110.3 414.3 119.7 452 129.3C489.7 139 527.3 149 565 149.7C602.7 150.3 640.3 141.7 678 140.8C715.7 140 753.3 147 791 143.7C828.7 140.3 866.3 126.7 903.8 120C941.3 113.3 978.7 113.7 1016.2 118.3C1053.7 123 1091.3 132 1129 132.7C1166.7 133.3 1204.3 125.7 1242 122.8C1279.7 120 1317.3 122 1355 121.5C1392.7 121 1430.3 118 1468 120.8C1505.7 123.7 1543.3 132.3 1581 135.7C1618.7 139 1656.3 137 1694 134.5C1731.7 132 1769.3 129 1807 133.3C1844.7 137.7 1882.3 149.3 1901.2 155.2L1920 161L1920 0L1901.2 0C1882.3 0 1844.7 0 1807 0C1769.3 0 1731.7 0 1694 0C1656.3 0 1618.7 0 1581 0C1543.3 0 1505.7 0 1468 0C1430.3 0 1392.7 0 1355 0C1317.3 0 1279.7 0 1242 0C1204.3 0 1166.7 0 1129 0C1091.3 0 1053.7 0 1016.2 0C978.7 0 941.3 0 903.8 0C866.3 0 828.7 0 791 0C753.3 0 715.7 0 678 0C640.3 0 602.7 0 565 0C527.3 0 489.7 0 452 0C414.3 0 376.7 0 339 0C301.3 0 263.7 0 226 0C188.3 0 150.7 0 113 0C75.3 0 37.7 0 18.8 0L0 0Z" fill="#5c90f3"></path><path d="M0 91L18.8 94.8C37.7 98.7 75.3 106.3 113 113.2C150.7 120 188.3 126 226 129.3C263.7 132.7 301.3 133.3 339 126.3C376.7 119.3 414.3 104.7 452 101C489.7 97.3 527.3 104.7 565 109C602.7 113.3 640.3 114.7 678 113.5C715.7 112.3 753.3 108.7 791 109C828.7 109.3 866.3 113.7 903.8 117.2C941.3 120.7 978.7 123.3 1016.2 123.3C1053.7 123.3 1091.3 120.7 1129 116.5C1166.7 112.3 1204.3 106.7 1242 104.7C1279.7 102.7 1317.3 104.3 1355 108.3C1392.7 112.3 1430.3 118.7 1468 120.7C1505.7 122.7 1543.3 120.3 1581 121.3C1618.7 122.3 1656.3 126.7 1694 122C1731.7 117.3 1769.3 103.7 1807 101.2C1844.7 98.7 1882.3 107.3 1901.2 111.7L1920 116L1920 0L1901.2 0C1882.3 0 1844.7 0 1807 0C1769.3 0 1731.7 0 1694 0C1656.3 0 1618.7 0 1581 0C1543.3 0 1505.7 0 1468 0C1430.3 0 1392.7 0 1355 0C1317.3 0 1279.7 0 1242 0C1204.3 0 1166.7 0 1129 0C1091.3 0 1053.7 0 1016.2 0C978.7 0 941.3 0 903.8 0C866.3 0 828.7 0 791 0C753.3 0 715.7 0 678 0C640.3 0 602.7 0 565 0C527.3 0 489.7 0 452 0C414.3 0 376.7 0 339 0C301.3 0 263.7 0 226 0C188.3 0 150.7 0 113 0C75.3 0 37.7 0 18.8 0L0 0Z" fill="#577ae9"></path><path d="M0 78L18.8 80.5C37.7 83 75.3 88 113 91.7C150.7 95.3 188.3 97.7 226 95.7C263.7 93.7 301.3 87.3 339 87C376.7 86.7 414.3 92.3 452 89.7C489.7 87 527.3 76 565 73.8C602.7 71.7 640.3 78.3 678 84.3C715.7 90.3 753.3 95.7 791 91C828.7 86.3 866.3 71.7 903.8 70.2C941.3 68.7 978.7 80.3 1016.2 84.3C1053.7 88.3 1091.3 84.7 1129 79.5C1166.7 74.3 1204.3 67.7 1242 65C1279.7 62.3 1317.3 63.7 1355 70.5C1392.7 77.3 1430.3 89.7 1468 88.2C1505.7 86.7 1543.3 71.3 1581 65C1618.7 58.7 1656.3 61.3 1694 69.3C1731.7 77.3 1769.3 90.7 1807 91.3C1844.7 92 1882.3 80 1901.2 74L1920 68L1920 0L1901.2 0C1882.3 0 1844.7 0 1807 0C1769.3 0 1731.7 0 1694 0C1656.3 0 1618.7 0 1581 0C1543.3 0 1505.7 0 1468 0C1430.3 0 1392.7 0 1355 0C1317.3 0 1279.7 0 1242 0C1204.3 0 1166.7 0 1129 0C1091.3 0 1053.7 0 1016.2 0C978.7 0 941.3 0 903.8 0C866.3 0 828.7 0 791 0C753.3 0 715.7 0 678 0C640.3 0 602.7 0 565 0C527.3 0 489.7 0 452 0C414.3 0 376.7 0 339 0C301.3 0 263.7 0 226 0C188.3 0 150.7 0 113 0C75.3 0 37.7 0 18.8 0L0 0Z" fill="#5962dc"></path><path d="M0 47L18.8 47.3C37.7 47.7 75.3 48.3 113 47.7C150.7 47 188.3 45 226 44.2C263.7 43.3 301.3 43.7 339 46.8C376.7 50 414.3 56 452 60C489.7 64 527.3 66 565 67C602.7 68 640.3 68 678 63.7C715.7 59.3 753.3 50.7 791 51.2C828.7 51.7 866.3 61.3 903.8 66.7C941.3 72 978.7 73 1016.2 71.7C1053.7 70.3 1091.3 66.7 1129 59.5C1166.7 52.3 1204.3 41.7 1242 39.3C1279.7 37 1317.3 43 1355 45C1392.7 47 1430.3 45 1468 45.5C1505.7 46 1543.3 49 1581 52.5C1618.7 56 1656.3 60 1694 62.2C1731.7 64.3 1769.3 64.7 1807 64.2C1844.7 63.7 1882.3 62.3 1901.2 61.7L1920 61L1920 0L1901.2 0C1882.3 0 1844.7 0 1807 0C1769.3 0 1731.7 0 1694 0C1656.3 0 1618.7 0 1581 0C1543.3 0 1505.7 0 1468 0C1430.3 0 1392.7 0 1355 0C1317.3 0 1279.7 0 1242 0C1204.3 0 1166.7 0 1129 0C1091.3 0 1053.7 0 1016.2 0C978.7 0 941.3 0 903.8 0C866.3 0 828.7 0 791 0C753.3 0 715.7 0 678 0C640.3 0 602.7 0 565 0C527.3 0 489.7 0 452 0C414.3 0 376.7 0 339 0C301.3 0 263.7 0 226 0C188.3 0 150.7 0 113 0C75.3 0 37.7 0 18.8 0L0 0Z" fill="#6047cc"></path><path d="M0 23L18.8 26.7C37.7 30.3 75.3 37.7 113 36.2C150.7 34.7 188.3 24.3 226 17.8C263.7 11.3 301.3 8.7 339 13C376.7 17.3 414.3 28.7 452 32.7C489.7 36.7 527.3 33.3 565 30.7C602.7 28 640.3 26 678 26.8C715.7 27.7 753.3 31.3 791 30.8C828.7 30.3 866.3 25.7 903.8 22.3C941.3 19 978.7 17 1016.2 17.7C1053.7 18.3 1091.3 21.7 1129 22.5C1166.7 23.3 1204.3 21.7 1242 25.3C1279.7 29 1317.3 38 1355 39.5C1392.7 41 1430.3 35 1468 33.5C1505.7 32 1543.3 35 1581 36.3C1618.7 37.7 1656.3 37.3 1694 34.8C1731.7 32.3 1769.3 27.7 1807 25.8C1844.7 24 1882.3 25 1901.2 25.5L1920 26L1920 0L1901.2 0C1882.3 0 1844.7 0 1807 0C1769.3 0 1731.7 0 1694 0C1656.3 0 1618.7 0 1581 0C1543.3 0 1505.7 0 1468 0C1430.3 0 1392.7 0 1355 0C1317.3 0 1279.7 0 1242 0C1204.3 0 1166.7 0 1129 0C1091.3 0 1053.7 0 1016.2 0C978.7 0 941.3 0 903.8 0C866.3 0 828.7 0 791 0C753.3 0 715.7 0 678 0C640.3 0 602.7 0 565 0C527.3 0 489.7 0 452 0C414.3 0 376.7 0 339 0C301.3 0 263.7 0 226 0C188.3 0 150.7 0 113 0C75.3 0 37.7 0 18.8 0L0 0Z" fill="#6824b9"></path></svg>