<svg id="visual" viewBox="0 0 1920 1080" width="1920" height="1080" xmlns="http://www.w3.org/2000/svg" xmlns:xlink="http://www.w3.org/1999/xlink" version="1.1"><rect x="0" y="0" width="1920" height="1080" fill="#001220"></rect><path d="M0 527L24.7 530C49.3 533 98.7 539 147.8 552.8C197 566.7 246 588.3 295.2 603.7C344.3 619 393.7 628 443 611.7C492.3 595.3 541.7 553.7 590.8 560.3C640 567 689 622 738.2 634.2C787.3 646.3 836.7 615.7 886 598.7C935.3 581.7 984.7 578.3 1034 574C1083.3 569.7 1132.7 564.3 1181.8 553.7C1231 543 1280 527 1329.2 533.8C1378.3 540.7 1427.7 570.3 1477 597C1526.3 623.7 1575.7 647.3 1624.8 644.7C1674 642 1723 613 1772.2 589C1821.3 565 1870.7 546 1895.3 536.5L1920 527L1920 0L1895.3 0C1870.7 0 1821.3 0 1772.2 0C1723 0 1674 0 1624.8 0C1575.7 0 1526.3 0 1477 0C1427.7 0 1378.3 0 1329.2 0C1280 0 1231 0 1181.8 0C1132.7 0 1083.3 0 1034 0C984.7 0 935.3 0 886 0C836.7 0 787.3 0 738.2 0C689 0 640 0 590.8 0C541.7 0 492.3 0 443 0C393.7 0 344.3 0 295.2 0C246 0 197 0 147.8 0C98.7 0 49.3 0 24.7 0L0 0Z" fill="#69a6fa"></path><path d="M0 612L24.7 593.2C49.3 574.3 98.7 536.7 147.8 522.7C197 508.7 246 518.3 295.2 512.7C344.3 507 393.7 486 443 480.7C492.3 475.3 541.7 485.7 590.8 510.7C640 535.7 689 575.3 738.2 590.5C787.3 605.7 836.7 596.3 886 591.7C935.3 587 984.7 587 1034 575.8C1083.3 564.7 1132.7 542.3 1181.8 524.3C1231 506.3 1280 492.7 1329.2 502.3C1378.3 512 1427.7 545 1477 551.3C1526.3 557.7 1575.7 537.3 1624.8 545.2C1674 553 1723 589 1772.2 590C1821.3 591 1870.7 557 1895.3 540L1920 523L1920 0L1895.3 0C1870.7 0 1821.3 0 1772.2 0C1723 0 1674 0 1624.8 0C1575.7 0 1526.3 0 1477 0C1427.7 0 1378.3 0 1329.2 0C1280 0 1231 0 1181.8 0C1132.7 0 1083.3 0 1034 0C984.7 0 935.3 0 886 0C836.7 0 787.3 0 738.2 0C689 0 640 0 590.8 0C541.7 0 492.3 0 443 0C393.7 0 344.3 0 295.2 0C246 0 197 0 147.8 0C98.7 0 49.3 0 24.7 0L0 0Z" fill="#619af6"></path><path d="M0 531L24.7 522.5C49.3 514 98.7 497 147.8 500.8C197 504.7 246 529.3 295.2 515.3C344.3 501.3 393.7 448.7 443 436.5C492.3 424.3 541.7 452.7 590.8 454.5C640 456.3 689 431.7 738.2 435.2C787.3 438.7 836.7 470.3 886 469.7C935.3 469 984.7 436 1034 445.8C1083.3 455.7 1132.7 508.3 1181.8 529.3C1231 550.3 1280 539.7 1329.2 521.2C1378.3 502.7 1427.7 476.3 1477 471.2C1526.3 466 1575.7 482 1624.8 481.8C1674 481.7 1723 465.3 1772.2 451.5C1821.3 437.7 1870.7 426.3 1895.3 420.7L1920 415L1920 0L1895.3 0C1870.7 0 1821.3 0 1772.2 0C1723 0 1674 0 1624.8 0C1575.7 0 1526.3 0 1477 0C1427.7 0 1378.3 0 1329.2 0C1280 0 1231 0 1181.8 0C1132.7 0 1083.3 0 1034 0C984.7 0 935.3 0 886 0C836.7 0 787.3 0 738.2 0C689 0 640 0 590.8 0C541.7 0 492.3 0 443 0C393.7 0 344.3 0 295.2 0C246 0 197 0 147.8 0C98.7 0 49.3 0 24.7 0L0 0Z" fill="#5b8ef2"></path><path d="M0 392L24.7 402.8C49.3 413.7 98.7 435.3 147.8 432.5C197 429.7 246 402.3 295.2 386.7C344.3 371 393.7 367 443 376.3C492.3 385.7 541.7 408.3 590.8 407C640 405.7 689 380.3 738.2 379.5C787.3 378.7 836.7 402.3 886 405C935.3 407.7 984.7 389.3 1034 399C1083.3 408.7 1132.7 446.3 1181.8 443.3C1231 440.3 1280 396.7 1329.2 382.8C1378.3 369 1427.7 385 1477 396.2C1526.3 407.3 1575.7 413.7 1624.8 417.8C1674 422 1723 424 1772.2 416.2C1821.3 408.3 1870.7 390.7 1895.3 381.8L1920 373L1920 0L1895.3 0C1870.7 0 1821.3 0 1772.2 0C1723 0 1674 0 1624.8 0C1575.7 0 1526.3 0 1477 0C1427.7 0 1378.3 0 1329.2 0C1280 0 1231 0 1181.8 0C1132.7 0 1083.3 0 1034 0C984.7 0 935.3 0 886 0C836.7 0 787.3 0 738.2 0C689 0 640 0 590.8 0C541.7 0 492.3 0 443 0C393.7 0 344.3 0 295.2 0C246 0 197 0 147.8 0C98.7 0 49.3 0 24.7 0L0 0Z" fill="#5781ec"></path><path d="M0 397L24.7 381C49.3 365 98.7 333 147.8 328C197 323 246 345 295.2 344.8C344.3 344.7 393.7 322.3 443 333.2C492.3 344 541.7 388 590.8 406.2C640 424.3 689 416.7 738.2 397.2C787.3 377.7 836.7 346.3 886 336.7C935.3 327 984.7 339 1034 357.2C1083.3 375.3 1132.7 399.7 1181.8 393C1231 386.3 1280 348.7 1329.2 330.8C1378.3 313 1427.7 315 1477 323C1526.3 331 1575.7 345 1624.8 340.3C1674 335.7 1723 312.3 1772.2 312.5C1821.3 312.7 1870.7 336.3 1895.3 348.2L1920 360L1920 0L1895.3 0C1870.7 0 1821.3 0 1772.2 0C1723 0 1674 0 1624.8 0C1575.7 0 1526.3 0 1477 0C1427.7 0 1378.3 0 1329.2 0C1280 0 1231 0 1181.8 0C1132.7 0 1083.3 0 1034 0C984.7 0 935.3 0 886 0C836.7 0 787.3 0 738.2 0C689 0 640 0 590.8 0C541.7 0 492.3 0 443 0C393.7 0 344.3 0 295.2 0C246 0 197 0 147.8 0C98.7 0 49.3 0 24.7 0L0 0Z" fill="#5775e6"></path><path d="M0 360L24.7 342.2C49.3 324.3 98.7 288.7 147.8 271.5C197 254.3 246 255.7 295.2 263.2C344.3 270.7 393.7 284.3 443 282.8C492.3 281.3 541.7 264.7 590.8 275.3C640 286 689 324 738.2 340.5C787.3 357 836.7 352 886 331.3C935.3 310.7 984.7 274.3 1034 275C1083.3 275.7 1132.7 313.3 1181.8 315.7C1231 318 1280 285 1329.2 270C1378.3 255 1427.7 258 1477 267.2C1526.3 276.3 1575.7 291.7 1624.8 293.5C1674 295.3 1723 283.7 1772.2 287C1821.3 290.3 1870.7 308.7 1895.3 317.8L1920 327L1920 0L1895.3 0C1870.7 0 1821.3 0 1772.2 0C1723 0 1674 0 1624.8 0C1575.7 0 1526.3 0 1477 0C1427.7 0 1378.3 0 1329.2 0C1280 0 1231 0 1181.8 0C1132.7 0 1083.3 0 1034 0C984.7 0 935.3 0 886 0C836.7 0 787.3 0 738.2 0C689 0 640 0 590.8 0C541.7 0 492.3 0 443 0C393.7 0 344.3 0 295.2 0C246 0 197 0 147.8 0C98.7 0 49.3 0 24.7 0L0 0Z" fill="#5867df"></path><path d="M0 245L24.7 239.5C49.3 234 98.7 223 147.8 216.3C197 209.7 246 207.3 295.2 203C344.3 198.7 393.7 192.3 443 189.2C492.3 186 541.7 186 590.8 192C640 198 689 210 738.2 215.3C787.3 220.7 836.7 219.3 886 219.8C935.3 220.3 984.7 222.7 1034 218.2C1083.3 213.7 1132.7 202.3 1181.8 206.5C1231 210.7 1280 230.3 1329.2 236.2C1378.3 242 1427.7 234 1477 242.2C1526.3 250.3 1575.7 274.7 1624.8 270.5C1674 266.3 1723 233.7 1772.2 232.5C1821.3 231.3 1870.7 261.7 1895.3 276.8L1920 292L1920 0L1895.3 0C1870.7 0 1821.3 0 1772.2 0C1723 0 1674 0 1624.8 0C1575.7 0 1526.3 0 1477 0C1427.7 0 1378.3 0 1329.2 0C1280 0 1231 0 1181.8 0C1132.7 0 1083.3 0 1034 0C984.7 0 935.3 0 886 0C836.7 0 787.3 0 738.2 0C689 0 640 0 590.8 0C541.7 0 492.3 0 443 0C393.7 0 344.3 0 295.2 0C246 0 197 0 147.8 0C98.7 0 49.3 0 24.7 0L0 0Z" fill="#5b59d7"></path><path d="M0 225L24.7 212.5C49.3 200 98.7 175 147.8 170.2C197 165.3 246 180.7 295.2 192.3C344.3 204 393.7 212 443 208.2C492.3 204.3 541.7 188.7 590.8 190.2C640 191.7 689 210.3 738.2 209.2C787.3 208 836.7 187 886 177.8C935.3 168.7 984.7 171.3 1034 170.7C1083.3 170 1132.7 166 1181.8 175.7C1231 185.3 1280 208.7 1329.2 206C1378.3 203.3 1427.7 174.7 1477 173.7C1526.3 172.7 1575.7 199.3 1624.8 202.2C1674 205 1723 184 1772.2 185C1821.3 186 1870.7 209 1895.3 220.5L1920 232L1920 0L1895.3 0C1870.7 0 1821.3 0 1772.2 0C1723 0 1674 0 1624.8 0C1575.7 0 1526.3 0 1477 0C1427.7 0 1378.3 0 1329.2 0C1280 0 1231 0 1181.8 0C1132.7 0 1083.3 0 1034 0C984.7 0 935.3 0 886 0C836.7 0 787.3 0 738.2 0C689 0 640 0 590.8 0C541.7 0 492.3 0 443 0C393.7 0 344.3 0 295.2 0C246 0 197 0 147.8 0C98.7 0 49.3 0 24.7 0L0 0Z" fill="#5f4ace"></path><path d="M0 82L24.7 81.5C49.3 81 98.7 80 147.8 81.2C197 82.3 246 85.7 295.2 100.5C344.3 115.3 393.7 141.7 443 151.5C492.3 161.3 541.7 154.7 590.8 141C640 127.3 689 106.7 738.2 99.7C787.3 92.7 836.7 99.3 886 99.3C935.3 99.3 984.7 92.7 1034 88.3C1083.3 84 1132.7 82 1181.8 81.7C1231 81.3 1280 82.7 1329.2 89.3C1378.3 96 1427.7 108 1477 117.3C1526.3 126.7 1575.7 133.3 1624.8 127.7C1674 122 1723 104 1772.2 106.2C1821.3 108.3 1870.7 130.7 1895.3 141.8L1920 153L1920 0L1895.3 0C1870.7 0 1821.3 0 1772.2 0C1723 0 1674 0 1624.8 0C1575.7 0 1526.3 0 1477 0C1427.7 0 1378.3 0 1329.2 0C1280 0 1231 0 1181.8 0C1132.7 0 1083.3 0 1034 0C984.7 0 935.3 0 886 0C836.7 0 787.3 0 738.2 0C689 0 640 0 590.8 0C541.7 0 492.3 0 443 0C393.7 0 344.3 0 295.2 0C246 0 197 0 147.8 0C98.7 0 49.3 0 24.7 0L0 0Z" fill="#6339c4"></path><path d="M0 93L24.7 86.7C49.3 80.3 98.7 67.7 147.8 62.7C197 57.7 246 60.3 295.2 56.7C344.3 53 393.7 43 443 43.3C492.3 43.7 541.7 54.3 590.8 59.5C640 64.7 689 64.3 738.2 69C787.3 73.7 836.7 83.3 886 80.8C935.3 78.3 984.7 63.7 1034 64.8C1083.3 66 1132.7 83 1181.8 85C1231 87 1280 74 1329.2 67.8C1378.3 61.7 1427.7 62.3 1477 68.8C1526.3 75.3 1575.7 87.7 1624.8 86.7C1674 85.7 1723 71.3 1772.2 60.7C1821.3 50 1870.7 43 1895.3 39.5L1920 36L1920 0L1895.3 0C1870.7 0 1821.3 0 1772.2 0C1723 0 1674 0 1624.8 0C1575.7 0 1526.3 0 1477 0C1427.7 0 1378.3 0 1329.2 0C1280 0 1231 0 1181.8 0C1132.7 0 1083.3 0 1034 0C984.7 0 935.3 0 886 0C836.7 0 787.3 0 738.2 0C689 0 640 0 590.8 0C541.7 0 492.3 0 443 0C393.7 0 344.3 0 295.2 0C246 0 197 0 147.8 0C98.7 0 49.3 0 24.7 0L0 0Z" fill="#6824b9"></path></svg>