<svg id="visual" viewBox="0 0 1920 1080" width="1920" height="1080" xmlns="http://www.w3.org/2000/svg" xmlns:xlink="http://www.w3.org/1999/xlink" version="1.1"><rect x="0" y="0" width="1920" height="1080" fill="#001220"></rect><path d="M0 637L24.7 634.3C49.3 631.7 98.7 626.3 147.8 619.3C197 612.3 246 603.7 295.2 603.5C344.3 603.3 393.7 611.7 443 604.7C492.3 597.7 541.7 575.3 590.8 557.8C640 540.3 689 527.7 738.2 526.5C787.3 525.3 836.7 535.7 886 551.7C935.3 567.7 984.7 589.3 1034 598C1083.3 606.7 1132.7 602.3 1181.8 610.3C1231 618.3 1280 638.7 1329.2 624.2C1378.3 609.7 1427.7 560.3 1477 560.7C1526.3 561 1575.7 611 1624.8 614.8C1674 618.7 1723 576.3 1772.2 580.8C1821.3 585.3 1870.7 636.7 1895.3 662.3L1920 688L1920 0L1895.3 0C1870.7 0 1821.3 0 1772.2 0C1723 0 1674 0 1624.8 0C1575.7 0 1526.3 0 1477 0C1427.7 0 1378.3 0 1329.2 0C1280 0 1231 0 1181.8 0C1132.7 0 1083.3 0 1034 0C984.7 0 935.3 0 886 0C836.7 0 787.3 0 738.2 0C689 0 640 0 590.8 0C541.7 0 492.3 0 443 0C393.7 0 344.3 0 295.2 0C246 0 197 0 147.8 0C98.7 0 49.3 0 24.7 0L0 0Z" fill="#69a6fa"></path><path d="M0 595L24.7 589.8C49.3 584.7 98.7 574.3 147.8 561.7C197 549 246 534 295.2 540.3C344.3 546.7 393.7 574.3 443 581.7C492.3 589 541.7 576 590.8 561C640 546 689 529 738.2 536.7C787.3 544.3 836.7 576.7 886 587.5C935.3 598.3 984.7 587.7 1034 589.8C1083.3 592 1132.7 607 1181.8 596.3C1231 585.7 1280 549.3 1329.2 524C1378.3 498.7 1427.7 484.3 1477 501.5C1526.3 518.7 1575.7 567.3 1624.8 584.5C1674 601.7 1723 587.3 1772.2 574C1821.3 560.7 1870.7 548.3 1895.3 542.2L1920 536L1920 0L1895.3 0C1870.7 0 1821.3 0 1772.2 0C1723 0 1674 0 1624.8 0C1575.7 0 1526.3 0 1477 0C1427.7 0 1378.3 0 1329.2 0C1280 0 1231 0 1181.8 0C1132.7 0 1083.3 0 1034 0C984.7 0 935.3 0 886 0C836.7 0 787.3 0 738.2 0C689 0 640 0 590.8 0C541.7 0 492.3 0 443 0C393.7 0 344.3 0 295.2 0C246 0 197 0 147.8 0C98.7 0 49.3 0 24.7 0L0 0Z" fill="#619af6"></path><path d="M0 545L24.7 535.3C49.3 525.7 98.7 506.3 147.8 482.2C197 458 246 429 295.2 425C344.3 421 393.7 442 443 440.8C492.3 439.7 541.7 416.3 590.8 432.3C640 448.3 689 503.7 738.2 521C787.3 538.3 836.7 517.7 886 511.7C935.3 505.7 984.7 514.3 1034 515.3C1083.3 516.3 1132.7 509.7 1181.8 506.7C1231 503.7 1280 504.3 1329.2 486.7C1378.3 469 1427.7 433 1477 429.3C1526.3 425.7 1575.7 454.3 1624.8 469.5C1674 484.7 1723 486.3 1772.2 488.3C1821.3 490.3 1870.7 492.7 1895.3 493.8L1920 495L1920 0L1895.3 0C1870.7 0 1821.3 0 1772.2 0C1723 0 1674 0 1624.8 0C1575.7 0 1526.3 0 1477 0C1427.7 0 1378.3 0 1329.2 0C1280 0 1231 0 1181.8 0C1132.7 0 1083.3 0 1034 0C984.7 0 935.3 0 886 0C836.7 0 787.3 0 738.2 0C689 0 640 0 590.8 0C541.7 0 492.3 0 443 0C393.7 0 344.3 0 295.2 0C246 0 197 0 147.8 0C98.7 0 49.3 0 24.7 0L0 0Z" fill="#5b8ef2"></path><path d="M0 413L24.7 426.8C49.3 440.7 98.7 468.3 147.8 481.5C197 494.7 246 493.3 295.2 481.2C344.3 469 393.7 446 443 438.5C492.3 431 541.7 439 590.8 428.7C640 418.3 689 389.7 738.2 395.3C787.3 401 836.7 441 886 462.5C935.3 484 984.7 487 1034 482.5C1083.3 478 1132.7 466 1181.8 453.5C1231 441 1280 428 1329.2 414C1378.3 400 1427.7 385 1477 392.8C1526.3 400.7 1575.7 431.3 1624.8 451.5C1674 471.7 1723 481.3 1772.2 465C1821.3 448.7 1870.7 406.3 1895.3 385.2L1920 364L1920 0L1895.3 0C1870.7 0 1821.3 0 1772.2 0C1723 0 1674 0 1624.8 0C1575.7 0 1526.3 0 1477 0C1427.7 0 1378.3 0 1329.2 0C1280 0 1231 0 1181.8 0C1132.7 0 1083.3 0 1034 0C984.7 0 935.3 0 886 0C836.7 0 787.3 0 738.2 0C689 0 640 0 590.8 0C541.7 0 492.3 0 443 0C393.7 0 344.3 0 295.2 0C246 0 197 0 147.8 0C98.7 0 49.3 0 24.7 0L0 0Z" fill="#5781ec"></path><path d="M0 396L24.7 391.8C49.3 387.7 98.7 379.3 147.8 378.2C197 377 246 383 295.2 386.2C344.3 389.3 393.7 389.7 443 387C492.3 384.3 541.7 378.7 590.8 365.7C640 352.7 689 332.3 738.2 322.2C787.3 312 836.7 312 886 322.2C935.3 332.3 984.7 352.7 1034 371.3C1083.3 390 1132.7 407 1181.8 408.5C1231 410 1280 396 1329.2 383.3C1378.3 370.7 1427.7 359.3 1477 354C1526.3 348.7 1575.7 349.3 1624.8 361.3C1674 373.3 1723 396.7 1772.2 404.8C1821.3 413 1870.7 406 1895.3 402.5L1920 399L1920 0L1895.3 0C1870.7 0 1821.3 0 1772.2 0C1723 0 1674 0 1624.8 0C1575.7 0 1526.3 0 1477 0C1427.7 0 1378.3 0 1329.2 0C1280 0 1231 0 1181.8 0C1132.7 0 1083.3 0 1034 0C984.7 0 935.3 0 886 0C836.7 0 787.3 0 738.2 0C689 0 640 0 590.8 0C541.7 0 492.3 0 443 0C393.7 0 344.3 0 295.2 0C246 0 197 0 147.8 0C98.7 0 49.3 0 24.7 0L0 0Z" fill="#5775e6"></path><path d="M0 238L24.7 258.2C49.3 278.3 98.7 318.7 147.8 334.3C197 350 246 341 295.2 332.5C344.3 324 393.7 316 443 315C492.3 314 541.7 320 590.8 309.5C640 299 689 272 738.2 267.5C787.3 263 836.7 281 886 284.8C935.3 288.7 984.7 278.3 1034 271.3C1083.3 264.3 1132.7 260.7 1181.8 264.8C1231 269 1280 281 1329.2 297.5C1378.3 314 1427.7 335 1477 344C1526.3 353 1575.7 350 1624.8 348.7C1674 347.3 1723 347.7 1772.2 345.5C1821.3 343.3 1870.7 338.7 1895.3 336.3L1920 334L1920 0L1895.3 0C1870.7 0 1821.3 0 1772.2 0C1723 0 1674 0 1624.8 0C1575.7 0 1526.3 0 1477 0C1427.7 0 1378.3 0 1329.2 0C1280 0 1231 0 1181.8 0C1132.7 0 1083.3 0 1034 0C984.7 0 935.3 0 886 0C836.7 0 787.3 0 738.2 0C689 0 640 0 590.8 0C541.7 0 492.3 0 443 0C393.7 0 344.3 0 295.2 0C246 0 197 0 147.8 0C98.7 0 49.3 0 24.7 0L0 0Z" fill="#5867df"></path><path d="M0 228L24.7 228.5C49.3 229 98.7 230 147.8 230.2C197 230.3 246 229.7 295.2 239.2C344.3 248.7 393.7 268.3 443 280.3C492.3 292.3 541.7 296.7 590.8 279.5C640 262.3 689 223.7 738.2 219.3C787.3 215 836.7 245 886 264C935.3 283 984.7 291 1034 289.7C1083.3 288.3 1132.7 277.7 1181.8 264.3C1231 251 1280 235 1329.2 237.2C1378.3 239.3 1427.7 259.7 1477 268.3C1526.3 277 1575.7 274 1624.8 258.8C1674 243.7 1723 216.3 1772.2 209.8C1821.3 203.3 1870.7 217.7 1895.3 224.8L1920 232L1920 0L1895.3 0C1870.7 0 1821.3 0 1772.2 0C1723 0 1674 0 1624.8 0C1575.7 0 1526.3 0 1477 0C1427.7 0 1378.3 0 1329.2 0C1280 0 1231 0 1181.8 0C1132.7 0 1083.3 0 1034 0C984.7 0 935.3 0 886 0C836.7 0 787.3 0 738.2 0C689 0 640 0 590.8 0C541.7 0 492.3 0 443 0C393.7 0 344.3 0 295.2 0C246 0 197 0 147.8 0C98.7 0 49.3 0 24.7 0L0 0Z" fill="#5b59d7"></path><path d="M0 211L24.7 213.5C49.3 216 98.7 221 147.8 213C197 205 246 184 295.2 178.8C344.3 173.7 393.7 184.3 443 190C492.3 195.7 541.7 196.3 590.8 200.8C640 205.3 689 213.7 738.2 213.5C787.3 213.3 836.7 204.7 886 202.2C935.3 199.7 984.7 203.3 1034 206.2C1083.3 209 1132.7 211 1181.8 211.7C1231 212.3 1280 211.7 1329.2 213.2C1378.3 214.7 1427.7 218.3 1477 212.7C1526.3 207 1575.7 192 1624.8 194.2C1674 196.3 1723 215.7 1772.2 216.2C1821.3 216.7 1870.7 198.3 1895.3 189.2L1920 180L1920 0L1895.3 0C1870.7 0 1821.3 0 1772.2 0C1723 0 1674 0 1624.8 0C1575.7 0 1526.3 0 1477 0C1427.7 0 1378.3 0 1329.2 0C1280 0 1231 0 1181.8 0C1132.7 0 1083.3 0 1034 0C984.7 0 935.3 0 886 0C836.7 0 787.3 0 738.2 0C689 0 640 0 590.8 0C541.7 0 492.3 0 443 0C393.7 0 344.3 0 295.2 0C246 0 197 0 147.8 0C98.7 0 49.3 0 24.7 0L0 0Z" fill="#5f4ace"></path><path d="M0 161L24.7 152.7C49.3 144.3 98.7 127.7 147.8 125C197 122.3 246 133.7 295.2 142C344.3 150.3 393.7 155.7 443 148.2C492.3 140.7 541.7 120.3 590.8 117.5C640 114.7 689 129.3 738.2 126.3C787.3 123.3 836.7 102.7 886 100C935.3 97.3 984.7 112.7 1034 125.7C1083.3 138.7 1132.7 149.3 1181.8 149.3C1231 149.3 1280 138.7 1329.2 129.7C1378.3 120.7 1427.7 113.3 1477 111.8C1526.3 110.3 1575.7 114.7 1624.8 110.8C1674 107 1723 95 1772.2 104C1821.3 113 1870.7 143 1895.3 158L1920 173L1920 0L1895.3 0C1870.7 0 1821.3 0 1772.2 0C1723 0 1674 0 1624.8 0C1575.7 0 1526.3 0 1477 0C1427.7 0 1378.3 0 1329.2 0C1280 0 1231 0 1181.8 0C1132.7 0 1083.3 0 1034 0C984.7 0 935.3 0 886 0C836.7 0 787.3 0 738.2 0C689 0 640 0 590.8 0C541.7 0 492.3 0 443 0C393.7 0 344.3 0 295.2 0C246 0 197 0 147.8 0C98.7 0 49.3 0 24.7 0L0 0Z" fill="#6339c4"></path><path d="M0 27L24.7 28.3C49.3 29.7 98.7 32.3 147.8 35.2C197 38 246 41 295.2 44.5C344.3 48 393.7 52 443 61C492.3 70 541.7 84 590.8 84C640 84 689 70 738.2 68.2C787.3 66.3 836.7 76.7 886 73.7C935.3 70.7 984.7 54.3 1034 47.2C1083.3 40 1132.7 42 1181.8 42C1231 42 1280 40 1329.2 42.7C1378.3 45.3 1427.7 52.7 1477 52.3C1526.3 52 1575.7 44 1624.8 40.8C1674 37.7 1723 39.3 1772.2 48.8C1821.3 58.3 1870.7 75.7 1895.3 84.3L1920 93L1920 0L1895.3 0C1870.7 0 1821.3 0 1772.2 0C1723 0 1674 0 1624.8 0C1575.7 0 1526.3 0 1477 0C1427.7 0 1378.3 0 1329.2 0C1280 0 1231 0 1181.8 0C1132.7 0 1083.3 0 1034 0C984.7 0 935.3 0 886 0C836.7 0 787.3 0 738.2 0C689 0 640 0 590.8 0C541.7 0 492.3 0 443 0C393.7 0 344.3 0 295.2 0C246 0 197 0 147.8 0C98.7 0 49.3 0 24.7 0L0 0Z" fill="#6824b9"></path></svg>