<svg id="visual" viewBox="0 0 1920 1080" width="1920" height="1080" xmlns="http://www.w3.org/2000/svg" xmlns:xlink="http://www.w3.org/1999/xlink" version="1.1"><rect x="0" y="0" width="1920" height="1080" fill="#001220"></rect><path d="M0 676L24.7 667.8C49.3 659.7 98.7 643.3 147.8 640.3C197 637.3 246 647.7 295.2 649.3C344.3 651 393.7 644 443 633.3C492.3 622.7 541.7 608.3 590.8 615.2C640 622 689 650 738.2 638C787.3 626 836.7 574 886 569.3C935.3 564.7 984.7 607.3 1034 620.3C1083.3 633.3 1132.7 616.7 1181.8 598.7C1231 580.7 1280 561.3 1329.2 564.5C1378.3 567.7 1427.7 593.3 1477 604.5C1526.3 615.7 1575.7 612.3 1624.8 602.2C1674 592 1723 575 1772.2 577.5C1821.3 580 1870.7 602 1895.3 613L1920 624L1920 0L1895.3 0C1870.7 0 1821.3 0 1772.2 0C1723 0 1674 0 1624.8 0C1575.7 0 1526.3 0 1477 0C1427.7 0 1378.3 0 1329.2 0C1280 0 1231 0 1181.8 0C1132.7 0 1083.3 0 1034 0C984.7 0 935.3 0 886 0C836.7 0 787.3 0 738.2 0C689 0 640 0 590.8 0C541.7 0 492.3 0 443 0C393.7 0 344.3 0 295.2 0C246 0 197 0 147.8 0C98.7 0 49.3 0 24.7 0L0 0Z" fill="#69a6fa"></path><path d="M0 605L24.7 599.3C49.3 593.7 98.7 582.3 147.8 562.5C197 542.7 246 514.3 295.2 504.5C344.3 494.7 393.7 503.3 443 525.5C492.3 547.7 541.7 583.3 590.8 586.7C640 590 689 561 738.2 554.7C787.3 548.3 836.7 564.7 886 550.2C935.3 535.7 984.7 490.3 1034 481C1083.3 471.7 1132.7 498.3 1181.8 520C1231 541.7 1280 558.3 1329.2 551C1378.3 543.7 1427.7 512.3 1477 520.2C1526.3 528 1575.7 575 1624.8 588.7C1674 602.3 1723 582.7 1772.2 560.3C1821.3 538 1870.7 513 1895.3 500.5L1920 488L1920 0L1895.3 0C1870.7 0 1821.3 0 1772.2 0C1723 0 1674 0 1624.8 0C1575.7 0 1526.3 0 1477 0C1427.7 0 1378.3 0 1329.2 0C1280 0 1231 0 1181.8 0C1132.7 0 1083.3 0 1034 0C984.7 0 935.3 0 886 0C836.7 0 787.3 0 738.2 0C689 0 640 0 590.8 0C541.7 0 492.3 0 443 0C393.7 0 344.3 0 295.2 0C246 0 197 0 147.8 0C98.7 0 49.3 0 24.7 0L0 0Z" fill="#619af6"></path><path d="M0 455L24.7 459.8C49.3 464.7 98.7 474.3 147.8 489.3C197 504.3 246 524.7 295.2 531.5C344.3 538.3 393.7 531.7 443 509.3C492.3 487 541.7 449 590.8 428.2C640 407.3 689 403.7 738.2 419C787.3 434.3 836.7 468.7 886 488C935.3 507.3 984.7 511.7 1034 519C1083.3 526.3 1132.7 536.7 1181.8 526.8C1231 517 1280 487 1329.2 485.7C1378.3 484.3 1427.7 511.7 1477 516C1526.3 520.3 1575.7 501.7 1624.8 486.8C1674 472 1723 461 1772.2 463.2C1821.3 465.3 1870.7 480.7 1895.3 488.3L1920 496L1920 0L1895.3 0C1870.7 0 1821.3 0 1772.2 0C1723 0 1674 0 1624.8 0C1575.7 0 1526.3 0 1477 0C1427.7 0 1378.3 0 1329.2 0C1280 0 1231 0 1181.8 0C1132.7 0 1083.3 0 1034 0C984.7 0 935.3 0 886 0C836.7 0 787.3 0 738.2 0C689 0 640 0 590.8 0C541.7 0 492.3 0 443 0C393.7 0 344.3 0 295.2 0C246 0 197 0 147.8 0C98.7 0 49.3 0 24.7 0L0 0Z" fill="#5b8ef2"></path><path d="M0 388L24.7 399.7C49.3 411.3 98.7 434.7 147.8 437.5C197 440.3 246 422.7 295.2 423.8C344.3 425 393.7 445 443 447C492.3 449 541.7 433 590.8 435C640 437 689 457 738.2 457C787.3 457 836.7 437 886 427.5C935.3 418 984.7 419 1034 413.2C1083.3 407.3 1132.7 394.7 1181.8 393C1231 391.3 1280 400.7 1329.2 408.2C1378.3 415.7 1427.7 421.3 1477 413.7C1526.3 406 1575.7 385 1624.8 396C1674 407 1723 450 1772.2 458.3C1821.3 466.7 1870.7 440.3 1895.3 427.2L1920 414L1920 0L1895.3 0C1870.7 0 1821.3 0 1772.2 0C1723 0 1674 0 1624.8 0C1575.7 0 1526.3 0 1477 0C1427.7 0 1378.3 0 1329.2 0C1280 0 1231 0 1181.8 0C1132.7 0 1083.3 0 1034 0C984.7 0 935.3 0 886 0C836.7 0 787.3 0 738.2 0C689 0 640 0 590.8 0C541.7 0 492.3 0 443 0C393.7 0 344.3 0 295.2 0C246 0 197 0 147.8 0C98.7 0 49.3 0 24.7 0L0 0Z" fill="#5781ec"></path><path d="M0 296L24.7 304.7C49.3 313.3 98.7 330.7 147.8 350.5C197 370.3 246 392.7 295.2 399.8C344.3 407 393.7 399 443 382.8C492.3 366.7 541.7 342.3 590.8 344.7C640 347 689 376 738.2 375.5C787.3 375 836.7 345 886 327.7C935.3 310.3 984.7 305.7 1034 310.2C1083.3 314.7 1132.7 328.3 1181.8 330C1231 331.7 1280 321.3 1329.2 327.3C1378.3 333.3 1427.7 355.7 1477 361.8C1526.3 368 1575.7 358 1624.8 344C1674 330 1723 312 1772.2 318C1821.3 324 1870.7 354 1895.3 369L1920 384L1920 0L1895.3 0C1870.7 0 1821.3 0 1772.2 0C1723 0 1674 0 1624.8 0C1575.7 0 1526.3 0 1477 0C1427.7 0 1378.3 0 1329.2 0C1280 0 1231 0 1181.8 0C1132.7 0 1083.3 0 1034 0C984.7 0 935.3 0 886 0C836.7 0 787.3 0 738.2 0C689 0 640 0 590.8 0C541.7 0 492.3 0 443 0C393.7 0 344.3 0 295.2 0C246 0 197 0 147.8 0C98.7 0 49.3 0 24.7 0L0 0Z" fill="#5775e6"></path><path d="M0 249L24.7 261.2C49.3 273.3 98.7 297.7 147.8 317.3C197 337 246 352 295.2 355.3C344.3 358.7 393.7 350.3 443 328.5C492.3 306.7 541.7 271.3 590.8 267.3C640 263.3 689 290.7 738.2 297.5C787.3 304.3 836.7 290.7 886 285.7C935.3 280.7 984.7 284.3 1034 285.2C1083.3 286 1132.7 284 1181.8 293.8C1231 303.7 1280 325.3 1329.2 321.7C1378.3 318 1427.7 289 1477 284.2C1526.3 279.3 1575.7 298.7 1624.8 295.7C1674 292.7 1723 267.3 1772.2 273.3C1821.3 279.3 1870.7 316.7 1895.3 335.3L1920 354L1920 0L1895.3 0C1870.7 0 1821.3 0 1772.2 0C1723 0 1674 0 1624.8 0C1575.7 0 1526.3 0 1477 0C1427.7 0 1378.3 0 1329.2 0C1280 0 1231 0 1181.8 0C1132.7 0 1083.3 0 1034 0C984.7 0 935.3 0 886 0C836.7 0 787.3 0 738.2 0C689 0 640 0 590.8 0C541.7 0 492.3 0 443 0C393.7 0 344.3 0 295.2 0C246 0 197 0 147.8 0C98.7 0 49.3 0 24.7 0L0 0Z" fill="#5867df"></path><path d="M0 232L24.7 226.8C49.3 221.7 98.7 211.3 147.8 222.3C197 233.3 246 265.7 295.2 267C344.3 268.3 393.7 238.7 443 222.8C492.3 207 541.7 205 590.8 204.3C640 203.7 689 204.3 738.2 219.8C787.3 235.3 836.7 265.7 886 266.3C935.3 267 984.7 238 1034 223.5C1083.3 209 1132.7 209 1181.8 219C1231 229 1280 249 1329.2 257.7C1378.3 266.3 1427.7 263.7 1477 263.8C1526.3 264 1575.7 267 1624.8 271.3C1674 275.7 1723 281.3 1772.2 277.2C1821.3 273 1870.7 259 1895.3 252L1920 245L1920 0L1895.3 0C1870.7 0 1821.3 0 1772.2 0C1723 0 1674 0 1624.8 0C1575.7 0 1526.3 0 1477 0C1427.7 0 1378.3 0 1329.2 0C1280 0 1231 0 1181.8 0C1132.7 0 1083.3 0 1034 0C984.7 0 935.3 0 886 0C836.7 0 787.3 0 738.2 0C689 0 640 0 590.8 0C541.7 0 492.3 0 443 0C393.7 0 344.3 0 295.2 0C246 0 197 0 147.8 0C98.7 0 49.3 0 24.7 0L0 0Z" fill="#5b59d7"></path><path d="M0 173L24.7 182.2C49.3 191.3 98.7 209.7 147.8 203.8C197 198 246 168 295.2 164.7C344.3 161.3 393.7 184.7 443 191C492.3 197.3 541.7 186.7 590.8 186.3C640 186 689 196 738.2 204C787.3 212 836.7 218 886 223.2C935.3 228.3 984.7 232.7 1034 220C1083.3 207.3 1132.7 177.7 1181.8 164.3C1231 151 1280 154 1329.2 161.2C1378.3 168.3 1427.7 179.7 1477 185C1526.3 190.3 1575.7 189.7 1624.8 196.8C1674 204 1723 219 1772.2 225.8C1821.3 232.7 1870.7 231.3 1895.3 230.7L1920 230L1920 0L1895.3 0C1870.7 0 1821.3 0 1772.2 0C1723 0 1674 0 1624.8 0C1575.7 0 1526.3 0 1477 0C1427.7 0 1378.3 0 1329.2 0C1280 0 1231 0 1181.8 0C1132.7 0 1083.3 0 1034 0C984.7 0 935.3 0 886 0C836.7 0 787.3 0 738.2 0C689 0 640 0 590.8 0C541.7 0 492.3 0 443 0C393.7 0 344.3 0 295.2 0C246 0 197 0 147.8 0C98.7 0 49.3 0 24.7 0L0 0Z" fill="#5f4ace"></path><path d="M0 172L24.7 171.8C49.3 171.7 98.7 171.3 147.8 160.8C197 150.3 246 129.7 295.2 123.7C344.3 117.7 393.7 126.3 443 129.7C492.3 133 541.7 131 590.8 124.5C640 118 689 107 738.2 106.2C787.3 105.3 836.7 114.7 886 115C935.3 115.3 984.7 106.7 1034 111.5C1083.3 116.3 1132.7 134.7 1181.8 132.2C1231 129.7 1280 106.3 1329.2 109.5C1378.3 112.7 1427.7 142.3 1477 154C1526.3 165.7 1575.7 159.3 1624.8 149C1674 138.7 1723 124.3 1772.2 120C1821.3 115.7 1870.7 121.3 1895.3 124.2L1920 127L1920 0L1895.3 0C1870.7 0 1821.3 0 1772.2 0C1723 0 1674 0 1624.8 0C1575.7 0 1526.3 0 1477 0C1427.7 0 1378.3 0 1329.2 0C1280 0 1231 0 1181.8 0C1132.7 0 1083.3 0 1034 0C984.7 0 935.3 0 886 0C836.7 0 787.3 0 738.2 0C689 0 640 0 590.8 0C541.7 0 492.3 0 443 0C393.7 0 344.3 0 295.2 0C246 0 197 0 147.8 0C98.7 0 49.3 0 24.7 0L0 0Z" fill="#6339c4"></path><path d="M0 27L24.7 37.7C49.3 48.3 98.7 69.7 147.8 74.2C197 78.7 246 66.3 295.2 66C344.3 65.7 393.7 77.3 443 79.8C492.3 82.3 541.7 75.7 590.8 67.5C640 59.3 689 49.7 738.2 46.5C787.3 43.3 836.7 46.7 886 45.5C935.3 44.3 984.7 38.7 1034 40.3C1083.3 42 1132.7 51 1181.8 54.7C1231 58.3 1280 56.7 1329.2 52.7C1378.3 48.7 1427.7 42.3 1477 46.7C1526.3 51 1575.7 66 1624.8 76.5C1674 87 1723 93 1772.2 91.7C1821.3 90.3 1870.7 81.7 1895.3 77.3L1920 73L1920 0L1895.3 0C1870.7 0 1821.3 0 1772.2 0C1723 0 1674 0 1624.8 0C1575.7 0 1526.3 0 1477 0C1427.7 0 1378.3 0 1329.2 0C1280 0 1231 0 1181.8 0C1132.7 0 1083.3 0 1034 0C984.7 0 935.3 0 886 0C836.7 0 787.3 0 738.2 0C689 0 640 0 590.8 0C541.7 0 492.3 0 443 0C393.7 0 344.3 0 295.2 0C246 0 197 0 147.8 0C98.7 0 49.3 0 24.7 0L0 0Z" fill="#6824b9"></path></svg>