<svg id="visual" viewBox="0 0 1920 1080" width="1920" height="1080" xmlns="http://www.w3.org/2000/svg" xmlns:xlink="http://www.w3.org/1999/xlink" version="1.1"><rect x="0" y="0" width="1920" height="1080" fill="#001220"></rect><path d="M0 381L24.7 382.2C49.3 383.3 98.7 385.7 147.8 390.3C197 395 246 402 295.2 417.7C344.3 433.3 393.7 457.7 443 456.7C492.3 455.7 541.7 429.3 590.8 423.3C640 417.3 689 431.7 738.2 443.5C787.3 455.3 836.7 464.7 886 480.5C935.3 496.3 984.7 518.7 1034 531.8C1083.3 545 1132.7 549 1181.8 547.5C1231 546 1280 539 1329.2 525.8C1378.3 512.7 1427.7 493.3 1477 482.8C1526.3 472.3 1575.7 470.7 1624.8 464.8C1674 459 1723 449 1772.2 451.5C1821.3 454 1870.7 469 1895.3 476.5L1920 484L1920 1081L1895.3 1081C1870.7 1081 1821.3 1081 1772.2 1081C1723 1081 1674 1081 1624.8 1081C1575.7 1081 1526.3 1081 1477 1081C1427.7 1081 1378.3 1081 1329.2 1081C1280 1081 1231 1081 1181.8 1081C1132.7 1081 1083.3 1081 1034 1081C984.7 1081 935.3 1081 886 1081C836.7 1081 787.3 1081 738.2 1081C689 1081 640 1081 590.8 1081C541.7 1081 492.3 1081 443 1081C393.7 1081 344.3 1081 295.2 1081C246 1081 197 1081 147.8 1081C98.7 1081 49.3 1081 24.7 1081L0 1081Z" fill="#69a6fa"></path><path d="M0 553L24.7 564.7C49.3 576.3 98.7 599.7 147.8 595.8C197 592 246 561 295.2 539.8C344.3 518.7 393.7 507.3 443 521.7C492.3 536 541.7 576 590.8 568.5C640 561 689 506 738.2 504.3C787.3 502.7 836.7 554.3 886 556.2C935.3 558 984.7 510 1034 485C1083.3 460 1132.7 458 1181.8 477.8C1231 497.7 1280 539.3 1329.2 565C1378.3 590.7 1427.7 600.3 1477 582.2C1526.3 564 1575.7 518 1624.8 495.5C1674 473 1723 474 1772.2 494.5C1821.3 515 1870.7 555 1895.3 575L1920 595L1920 1081L1895.3 1081C1870.7 1081 1821.3 1081 1772.2 1081C1723 1081 1674 1081 1624.8 1081C1575.7 1081 1526.3 1081 1477 1081C1427.7 1081 1378.3 1081 1329.2 1081C1280 1081 1231 1081 1181.8 1081C1132.7 1081 1083.3 1081 1034 1081C984.7 1081 935.3 1081 886 1081C836.7 1081 787.3 1081 738.2 1081C689 1081 640 1081 590.8 1081C541.7 1081 492.3 1081 443 1081C393.7 1081 344.3 1081 295.2 1081C246 1081 197 1081 147.8 1081C98.7 1081 49.3 1081 24.7 1081L0 1081Z" fill="#5f97f5"></path><path d="M0 621L24.7 631.2C49.3 641.3 98.7 661.7 147.8 653.7C197 645.7 246 609.3 295.2 598C344.3 586.7 393.7 600.3 443 606.8C492.3 613.3 541.7 612.7 590.8 606.3C640 600 689 588 738.2 587.7C787.3 587.3 836.7 598.7 886 602.3C935.3 606 984.7 602 1034 612.8C1083.3 623.7 1132.7 649.3 1181.8 652.2C1231 655 1280 635 1329.2 614.7C1378.3 594.3 1427.7 573.7 1477 572.3C1526.3 571 1575.7 589 1624.8 602.5C1674 616 1723 625 1772.2 638C1821.3 651 1870.7 668 1895.3 676.5L1920 685L1920 1081L1895.3 1081C1870.7 1081 1821.3 1081 1772.2 1081C1723 1081 1674 1081 1624.8 1081C1575.7 1081 1526.3 1081 1477 1081C1427.7 1081 1378.3 1081 1329.2 1081C1280 1081 1231 1081 1181.8 1081C1132.7 1081 1083.3 1081 1034 1081C984.7 1081 935.3 1081 886 1081C836.7 1081 787.3 1081 738.2 1081C689 1081 640 1081 590.8 1081C541.7 1081 492.3 1081 443 1081C393.7 1081 344.3 1081 295.2 1081C246 1081 197 1081 147.8 1081C98.7 1081 49.3 1081 24.7 1081L0 1081Z" fill="#5887ef"></path><path d="M0 724L24.7 712.2C49.3 700.3 98.7 676.7 147.8 671.5C197 666.3 246 679.7 295.2 682.5C344.3 685.3 393.7 677.7 443 689C492.3 700.3 541.7 730.7 590.8 729C640 727.3 689 693.7 738.2 677.8C787.3 662 836.7 664 886 667.3C935.3 670.7 984.7 675.3 1034 687.7C1083.3 700 1132.7 720 1181.8 714.3C1231 708.7 1280 677.3 1329.2 658.5C1378.3 639.7 1427.7 633.3 1477 646.2C1526.3 659 1575.7 691 1624.8 715C1674 739 1723 755 1772.2 753.3C1821.3 751.7 1870.7 732.3 1895.3 722.7L1920 713L1920 1081L1895.3 1081C1870.7 1081 1821.3 1081 1772.2 1081C1723 1081 1674 1081 1624.8 1081C1575.7 1081 1526.3 1081 1477 1081C1427.7 1081 1378.3 1081 1329.2 1081C1280 1081 1231 1081 1181.8 1081C1132.7 1081 1083.3 1081 1034 1081C984.7 1081 935.3 1081 886 1081C836.7 1081 787.3 1081 738.2 1081C689 1081 640 1081 590.8 1081C541.7 1081 492.3 1081 443 1081C393.7 1081 344.3 1081 295.2 1081C246 1081 197 1081 147.8 1081C98.7 1081 49.3 1081 24.7 1081L0 1081Z" fill="#5776e7"></path><path d="M0 739L24.7 741.3C49.3 743.7 98.7 748.3 147.8 753C197 757.7 246 762.3 295.2 769.8C344.3 777.3 393.7 787.7 443 795.7C492.3 803.7 541.7 809.3 590.8 800.7C640 792 689 769 738.2 760C787.3 751 836.7 756 886 753.3C935.3 750.7 984.7 740.3 1034 741.7C1083.3 743 1132.7 756 1181.8 767C1231 778 1280 787 1329.2 774.2C1378.3 761.3 1427.7 726.7 1477 721.2C1526.3 715.7 1575.7 739.3 1624.8 759.8C1674 780.3 1723 797.7 1772.2 787.3C1821.3 777 1870.7 739 1895.3 720L1920 701L1920 1081L1895.3 1081C1870.7 1081 1821.3 1081 1772.2 1081C1723 1081 1674 1081 1624.8 1081C1575.7 1081 1526.3 1081 1477 1081C1427.7 1081 1378.3 1081 1329.2 1081C1280 1081 1231 1081 1181.8 1081C1132.7 1081 1083.3 1081 1034 1081C984.7 1081 935.3 1081 886 1081C836.7 1081 787.3 1081 738.2 1081C689 1081 640 1081 590.8 1081C541.7 1081 492.3 1081 443 1081C393.7 1081 344.3 1081 295.2 1081C246 1081 197 1081 147.8 1081C98.7 1081 49.3 1081 24.7 1081L0 1081Z" fill="#5865de"></path><path d="M0 824L24.7 825.5C49.3 827 98.7 830 147.8 832.2C197 834.3 246 835.7 295.2 846C344.3 856.3 393.7 875.7 443 874.3C492.3 873 541.7 851 590.8 850.5C640 850 689 871 738.2 870.7C787.3 870.3 836.7 848.7 886 836.7C935.3 824.7 984.7 822.3 1034 824.5C1083.3 826.7 1132.7 833.3 1181.8 837.3C1231 841.3 1280 842.7 1329.2 845.7C1378.3 848.7 1427.7 853.3 1477 845.8C1526.3 838.3 1575.7 818.7 1624.8 813.8C1674 809 1723 819 1772.2 828.8C1821.3 838.7 1870.7 848.3 1895.3 853.2L1920 858L1920 1081L1895.3 1081C1870.7 1081 1821.3 1081 1772.2 1081C1723 1081 1674 1081 1624.8 1081C1575.7 1081 1526.3 1081 1477 1081C1427.7 1081 1378.3 1081 1329.2 1081C1280 1081 1231 1081 1181.8 1081C1132.7 1081 1083.3 1081 1034 1081C984.7 1081 935.3 1081 886 1081C836.7 1081 787.3 1081 738.2 1081C689 1081 640 1081 590.8 1081C541.7 1081 492.3 1081 443 1081C393.7 1081 344.3 1081 295.2 1081C246 1081 197 1081 147.8 1081C98.7 1081 49.3 1081 24.7 1081L0 1081Z" fill="#5c53d4"></path><path d="M0 901L24.7 898.8C49.3 896.7 98.7 892.3 147.8 889.2C197 886 246 884 295.2 888.2C344.3 892.3 393.7 902.7 443 909.2C492.3 915.7 541.7 918.3 590.8 918C640 917.7 689 914.3 738.2 917.7C787.3 921 836.7 931 886 934C935.3 937 984.7 933 1034 932.2C1083.3 931.3 1132.7 933.7 1181.8 926.7C1231 919.7 1280 903.3 1329.2 907.3C1378.3 911.3 1427.7 935.7 1477 937.5C1526.3 939.3 1575.7 918.7 1624.8 902C1674 885.3 1723 872.7 1772.2 876.3C1821.3 880 1870.7 900 1895.3 910L1920 920L1920 1081L1895.3 1081C1870.7 1081 1821.3 1081 1772.2 1081C1723 1081 1674 1081 1624.8 1081C1575.7 1081 1526.3 1081 1477 1081C1427.7 1081 1378.3 1081 1329.2 1081C1280 1081 1231 1081 1181.8 1081C1132.7 1081 1083.3 1081 1034 1081C984.7 1081 935.3 1081 886 1081C836.7 1081 787.3 1081 738.2 1081C689 1081 640 1081 590.8 1081C541.7 1081 492.3 1081 443 1081C393.7 1081 344.3 1081 295.2 1081C246 1081 197 1081 147.8 1081C98.7 1081 49.3 1081 24.7 1081L0 1081Z" fill="#623ec7"></path><path d="M0 1026L24.7 1015.2C49.3 1004.3 98.7 982.7 147.8 977.8C197 973 246 985 295.2 987.5C344.3 990 393.7 983 443 974.2C492.3 965.3 541.7 954.7 590.8 948.5C640 942.3 689 940.7 738.2 948.2C787.3 955.7 836.7 972.3 886 982.3C935.3 992.3 984.7 995.7 1034 999.3C1083.3 1003 1132.7 1007 1181.8 1011C1231 1015 1280 1019 1329.2 1020C1378.3 1021 1427.7 1019 1477 1018C1526.3 1017 1575.7 1017 1624.8 1011C1674 1005 1723 993 1772.2 994.8C1821.3 996.7 1870.7 1012.3 1895.3 1020.2L1920 1028L1920 1081L1895.3 1081C1870.7 1081 1821.3 1081 1772.2 1081C1723 1081 1674 1081 1624.8 1081C1575.7 1081 1526.3 1081 1477 1081C1427.7 1081 1378.3 1081 1329.2 1081C1280 1081 1231 1081 1181.8 1081C1132.7 1081 1083.3 1081 1034 1081C984.7 1081 935.3 1081 886 1081C836.7 1081 787.3 1081 738.2 1081C689 1081 640 1081 590.8 1081C541.7 1081 492.3 1081 443 1081C393.7 1081 344.3 1081 295.2 1081C246 1081 197 1081 147.8 1081C98.7 1081 49.3 1081 24.7 1081L0 1081Z" fill="#6824b9"></path></svg>