<svg id="visual" viewBox="0 0 1920 1080" width="1920" height="1080" xmlns="http://www.w3.org/2000/svg" xmlns:xlink="http://www.w3.org/1999/xlink" version="1.1"><rect x="0" y="0" width="1920" height="1080" fill="#001220"></rect><path d="M0 467L24.7 464.8C49.3 462.7 98.7 458.3 147.8 446.2C197 434 246 414 295.2 427.7C344.3 441.3 393.7 488.7 443 515.8C492.3 543 541.7 550 590.8 525.2C640 500.3 689 443.7 738.2 442.3C787.3 441 836.7 495 886 506.2C935.3 517.3 984.7 485.7 1034 455.8C1083.3 426 1132.7 398 1181.8 400.7C1231 403.3 1280 436.7 1329.2 454.5C1378.3 472.3 1427.7 474.7 1477 485C1526.3 495.3 1575.7 513.7 1624.8 497.2C1674 480.7 1723 429.3 1772.2 418.7C1821.3 408 1870.7 438 1895.3 453L1920 468L1920 1081L1895.3 1081C1870.7 1081 1821.3 1081 1772.2 1081C1723 1081 1674 1081 1624.8 1081C1575.7 1081 1526.3 1081 1477 1081C1427.7 1081 1378.3 1081 1329.2 1081C1280 1081 1231 1081 1181.8 1081C1132.7 1081 1083.3 1081 1034 1081C984.7 1081 935.3 1081 886 1081C836.7 1081 787.3 1081 738.2 1081C689 1081 640 1081 590.8 1081C541.7 1081 492.3 1081 443 1081C393.7 1081 344.3 1081 295.2 1081C246 1081 197 1081 147.8 1081C98.7 1081 49.3 1081 24.7 1081L0 1081Z" fill="#69a6fa"></path><path d="M0 526L24.7 536C49.3 546 98.7 566 147.8 574.8C197 583.7 246 581.3 295.2 561.7C344.3 542 393.7 505 443 497.2C492.3 489.3 541.7 510.7 590.8 515.2C640 519.7 689 507.3 738.2 524.2C787.3 541 836.7 587 886 598.7C935.3 610.3 984.7 587.7 1034 569.8C1083.3 552 1132.7 539 1181.8 522.2C1231 505.3 1280 484.7 1329.2 476.5C1378.3 468.3 1427.7 472.7 1477 483.8C1526.3 495 1575.7 513 1624.8 527.8C1674 542.7 1723 554.3 1772.2 545.2C1821.3 536 1870.7 506 1895.3 491L1920 476L1920 1081L1895.3 1081C1870.7 1081 1821.3 1081 1772.2 1081C1723 1081 1674 1081 1624.8 1081C1575.7 1081 1526.3 1081 1477 1081C1427.7 1081 1378.3 1081 1329.2 1081C1280 1081 1231 1081 1181.8 1081C1132.7 1081 1083.3 1081 1034 1081C984.7 1081 935.3 1081 886 1081C836.7 1081 787.3 1081 738.2 1081C689 1081 640 1081 590.8 1081C541.7 1081 492.3 1081 443 1081C393.7 1081 344.3 1081 295.2 1081C246 1081 197 1081 147.8 1081C98.7 1081 49.3 1081 24.7 1081L0 1081Z" fill="#5f97f5"></path><path d="M0 620L24.7 624.2C49.3 628.3 98.7 636.7 147.8 640.5C197 644.3 246 643.7 295.2 640.8C344.3 638 393.7 633 443 626.2C492.3 619.3 541.7 610.7 590.8 620.3C640 630 689 658 738.2 658.3C787.3 658.7 836.7 631.3 886 626.5C935.3 621.7 984.7 639.3 1034 632.2C1083.3 625 1132.7 593 1181.8 572.2C1231 551.3 1280 541.7 1329.2 563.8C1378.3 586 1427.7 640 1477 667C1526.3 694 1575.7 694 1624.8 668.3C1674 642.7 1723 591.3 1772.2 586.3C1821.3 581.3 1870.7 622.7 1895.3 643.3L1920 664L1920 1081L1895.3 1081C1870.7 1081 1821.3 1081 1772.2 1081C1723 1081 1674 1081 1624.8 1081C1575.7 1081 1526.3 1081 1477 1081C1427.7 1081 1378.3 1081 1329.2 1081C1280 1081 1231 1081 1181.8 1081C1132.7 1081 1083.3 1081 1034 1081C984.7 1081 935.3 1081 886 1081C836.7 1081 787.3 1081 738.2 1081C689 1081 640 1081 590.8 1081C541.7 1081 492.3 1081 443 1081C393.7 1081 344.3 1081 295.2 1081C246 1081 197 1081 147.8 1081C98.7 1081 49.3 1081 24.7 1081L0 1081Z" fill="#5887ef"></path><path d="M0 660L24.7 659.2C49.3 658.3 98.7 656.7 147.8 651.8C197 647 246 639 295.2 651C344.3 663 393.7 695 443 708.5C492.3 722 541.7 717 590.8 722.8C640 728.7 689 745.3 738.2 732.2C787.3 719 836.7 676 886 656.8C935.3 637.7 984.7 642.3 1034 653.7C1083.3 665 1132.7 683 1181.8 676.8C1231 670.7 1280 640.3 1329.2 638.8C1378.3 637.3 1427.7 664.7 1477 673.8C1526.3 683 1575.7 674 1624.8 680.8C1674 687.7 1723 710.3 1772.2 712C1821.3 713.7 1870.7 694.3 1895.3 684.7L1920 675L1920 1081L1895.3 1081C1870.7 1081 1821.3 1081 1772.2 1081C1723 1081 1674 1081 1624.8 1081C1575.7 1081 1526.3 1081 1477 1081C1427.7 1081 1378.3 1081 1329.2 1081C1280 1081 1231 1081 1181.8 1081C1132.7 1081 1083.3 1081 1034 1081C984.7 1081 935.3 1081 886 1081C836.7 1081 787.3 1081 738.2 1081C689 1081 640 1081 590.8 1081C541.7 1081 492.3 1081 443 1081C393.7 1081 344.3 1081 295.2 1081C246 1081 197 1081 147.8 1081C98.7 1081 49.3 1081 24.7 1081L0 1081Z" fill="#5776e7"></path><path d="M0 749L24.7 741.3C49.3 733.7 98.7 718.3 147.8 725.7C197 733 246 763 295.2 771C344.3 779 393.7 765 443 768.5C492.3 772 541.7 793 590.8 799.3C640 805.7 689 797.3 738.2 782C787.3 766.7 836.7 744.3 886 743.7C935.3 743 984.7 764 1034 776.5C1083.3 789 1132.7 793 1181.8 794.2C1231 795.3 1280 793.7 1329.2 777.5C1378.3 761.3 1427.7 730.7 1477 726C1526.3 721.3 1575.7 742.7 1624.8 759.2C1674 775.7 1723 787.3 1772.2 799C1821.3 810.7 1870.7 822.3 1895.3 828.2L1920 834L1920 1081L1895.3 1081C1870.7 1081 1821.3 1081 1772.2 1081C1723 1081 1674 1081 1624.8 1081C1575.7 1081 1526.3 1081 1477 1081C1427.7 1081 1378.3 1081 1329.2 1081C1280 1081 1231 1081 1181.8 1081C1132.7 1081 1083.3 1081 1034 1081C984.7 1081 935.3 1081 886 1081C836.7 1081 787.3 1081 738.2 1081C689 1081 640 1081 590.8 1081C541.7 1081 492.3 1081 443 1081C393.7 1081 344.3 1081 295.2 1081C246 1081 197 1081 147.8 1081C98.7 1081 49.3 1081 24.7 1081L0 1081Z" fill="#5865de"></path><path d="M0 878L24.7 879.7C49.3 881.3 98.7 884.7 147.8 875.7C197 866.7 246 845.3 295.2 830.7C344.3 816 393.7 808 443 804.7C492.3 801.3 541.7 802.7 590.8 806.8C640 811 689 818 738.2 834C787.3 850 836.7 875 886 876.3C935.3 877.7 984.7 855.3 1034 853.2C1083.3 851 1132.7 869 1181.8 871.3C1231 873.7 1280 860.3 1329.2 860.3C1378.3 860.3 1427.7 873.7 1477 882C1526.3 890.3 1575.7 893.7 1624.8 883.7C1674 873.7 1723 850.3 1772.2 853C1821.3 855.7 1870.7 884.3 1895.3 898.7L1920 913L1920 1081L1895.3 1081C1870.7 1081 1821.3 1081 1772.2 1081C1723 1081 1674 1081 1624.8 1081C1575.7 1081 1526.3 1081 1477 1081C1427.7 1081 1378.3 1081 1329.2 1081C1280 1081 1231 1081 1181.8 1081C1132.7 1081 1083.3 1081 1034 1081C984.7 1081 935.3 1081 886 1081C836.7 1081 787.3 1081 738.2 1081C689 1081 640 1081 590.8 1081C541.7 1081 492.3 1081 443 1081C393.7 1081 344.3 1081 295.2 1081C246 1081 197 1081 147.8 1081C98.7 1081 49.3 1081 24.7 1081L0 1081Z" fill="#5c53d4"></path><path d="M0 909L24.7 908.7C49.3 908.3 98.7 907.7 147.8 905.3C197 903 246 899 295.2 904.7C344.3 910.3 393.7 925.7 443 929.2C492.3 932.7 541.7 924.3 590.8 920.3C640 916.3 689 916.7 738.2 927.2C787.3 937.7 836.7 958.3 886 955.7C935.3 953 984.7 927 1034 920C1083.3 913 1132.7 925 1181.8 926.3C1231 927.7 1280 918.3 1329.2 914.3C1378.3 910.3 1427.7 911.7 1477 911.5C1526.3 911.3 1575.7 909.7 1624.8 920.2C1674 930.7 1723 953.3 1772.2 954.2C1821.3 955 1870.7 934 1895.3 923.5L1920 913L1920 1081L1895.3 1081C1870.7 1081 1821.3 1081 1772.2 1081C1723 1081 1674 1081 1624.8 1081C1575.7 1081 1526.3 1081 1477 1081C1427.7 1081 1378.3 1081 1329.2 1081C1280 1081 1231 1081 1181.8 1081C1132.7 1081 1083.3 1081 1034 1081C984.7 1081 935.3 1081 886 1081C836.7 1081 787.3 1081 738.2 1081C689 1081 640 1081 590.8 1081C541.7 1081 492.3 1081 443 1081C393.7 1081 344.3 1081 295.2 1081C246 1081 197 1081 147.8 1081C98.7 1081 49.3 1081 24.7 1081L0 1081Z" fill="#623ec7"></path><path d="M0 1004L24.7 998.2C49.3 992.3 98.7 980.7 147.8 982C197 983.3 246 997.7 295.2 992.5C344.3 987.3 393.7 962.7 443 959.7C492.3 956.7 541.7 975.3 590.8 975.5C640 975.7 689 957.3 738.2 952C787.3 946.7 836.7 954.3 886 960.5C935.3 966.7 984.7 971.3 1034 985.3C1083.3 999.3 1132.7 1022.7 1181.8 1029.8C1231 1037 1280 1028 1329.2 1014.2C1378.3 1000.3 1427.7 981.7 1477 983.5C1526.3 985.3 1575.7 1007.7 1624.8 1016.7C1674 1025.7 1723 1021.3 1772.2 1011.8C1821.3 1002.3 1870.7 987.7 1895.3 980.3L1920 973L1920 1081L1895.3 1081C1870.7 1081 1821.3 1081 1772.2 1081C1723 1081 1674 1081 1624.8 1081C1575.7 1081 1526.3 1081 1477 1081C1427.7 1081 1378.3 1081 1329.2 1081C1280 1081 1231 1081 1181.8 1081C1132.7 1081 1083.3 1081 1034 1081C984.7 1081 935.3 1081 886 1081C836.7 1081 787.3 1081 738.2 1081C689 1081 640 1081 590.8 1081C541.7 1081 492.3 1081 443 1081C393.7 1081 344.3 1081 295.2 1081C246 1081 197 1081 147.8 1081C98.7 1081 49.3 1081 24.7 1081L0 1081Z" fill="#6824b9"></path></svg>