<svg id="visual" viewBox="0 0 1920 1080" width="1920" height="1080" xmlns="http://www.w3.org/2000/svg" xmlns:xlink="http://www.w3.org/1999/xlink" version="1.1"><rect x="0" y="0" width="1920" height="1080" fill="#001220"></rect><path d="M0 453L24.7 439.2C49.3 425.3 98.7 397.7 147.8 391.3C197 385 246 400 295.2 428.5C344.3 457 393.7 499 443 511.7C492.3 524.3 541.7 507.7 590.8 510.3C640 513 689 535 738.2 534C787.3 533 836.7 509 886 510.2C935.3 511.3 984.7 537.7 1034 539.8C1083.3 542 1132.7 520 1181.8 510.2C1231 500.3 1280 502.7 1329.2 508.5C1378.3 514.3 1427.7 523.7 1477 507.5C1526.3 491.3 1575.7 449.7 1624.8 424.8C1674 400 1723 392 1772.2 414.8C1821.3 437.7 1870.7 491.3 1895.3 518.2L1920 545L1920 1081L1895.3 1081C1870.7 1081 1821.3 1081 1772.2 1081C1723 1081 1674 1081 1624.8 1081C1575.7 1081 1526.3 1081 1477 1081C1427.7 1081 1378.3 1081 1329.2 1081C1280 1081 1231 1081 1181.8 1081C1132.7 1081 1083.3 1081 1034 1081C984.7 1081 935.3 1081 886 1081C836.7 1081 787.3 1081 738.2 1081C689 1081 640 1081 590.8 1081C541.7 1081 492.3 1081 443 1081C393.7 1081 344.3 1081 295.2 1081C246 1081 197 1081 147.8 1081C98.7 1081 49.3 1081 24.7 1081L0 1081Z" fill="#69a6fa"></path><path d="M0 533L24.7 530.2C49.3 527.3 98.7 521.7 147.8 535.3C197 549 246 582 295.2 596.7C344.3 611.3 393.7 607.7 443 583.5C492.3 559.3 541.7 514.7 590.8 498.3C640 482 689 494 738.2 498.5C787.3 503 836.7 500 886 520.7C935.3 541.3 984.7 585.7 1034 608.2C1083.3 630.7 1132.7 631.3 1181.8 607.5C1231 583.7 1280 535.3 1329.2 518.5C1378.3 501.7 1427.7 516.3 1477 515.5C1526.3 514.7 1575.7 498.3 1624.8 492.7C1674 487 1723 492 1772.2 509.5C1821.3 527 1870.7 557 1895.3 572L1920 587L1920 1081L1895.3 1081C1870.7 1081 1821.3 1081 1772.2 1081C1723 1081 1674 1081 1624.8 1081C1575.7 1081 1526.3 1081 1477 1081C1427.7 1081 1378.3 1081 1329.2 1081C1280 1081 1231 1081 1181.8 1081C1132.7 1081 1083.3 1081 1034 1081C984.7 1081 935.3 1081 886 1081C836.7 1081 787.3 1081 738.2 1081C689 1081 640 1081 590.8 1081C541.7 1081 492.3 1081 443 1081C393.7 1081 344.3 1081 295.2 1081C246 1081 197 1081 147.8 1081C98.7 1081 49.3 1081 24.7 1081L0 1081Z" fill="#5f97f5"></path><path d="M0 576L24.7 575.7C49.3 575.3 98.7 574.7 147.8 568.5C197 562.3 246 550.7 295.2 563.8C344.3 577 393.7 615 443 615.3C492.3 615.7 541.7 578.3 590.8 584.5C640 590.7 689 640.3 738.2 643.7C787.3 647 836.7 604 886 579.2C935.3 554.3 984.7 547.7 1034 548.7C1083.3 549.7 1132.7 558.3 1181.8 577C1231 595.7 1280 624.3 1329.2 632.3C1378.3 640.3 1427.7 627.7 1477 621.5C1526.3 615.3 1575.7 615.7 1624.8 607.3C1674 599 1723 582 1772.2 594.5C1821.3 607 1870.7 649 1895.3 670L1920 691L1920 1081L1895.3 1081C1870.7 1081 1821.3 1081 1772.2 1081C1723 1081 1674 1081 1624.8 1081C1575.7 1081 1526.3 1081 1477 1081C1427.7 1081 1378.3 1081 1329.2 1081C1280 1081 1231 1081 1181.8 1081C1132.7 1081 1083.3 1081 1034 1081C984.7 1081 935.3 1081 886 1081C836.7 1081 787.3 1081 738.2 1081C689 1081 640 1081 590.8 1081C541.7 1081 492.3 1081 443 1081C393.7 1081 344.3 1081 295.2 1081C246 1081 197 1081 147.8 1081C98.7 1081 49.3 1081 24.7 1081L0 1081Z" fill="#5887ef"></path><path d="M0 689L24.7 692C49.3 695 98.7 701 147.8 693.8C197 686.7 246 666.3 295.2 673C344.3 679.7 393.7 713.3 443 712.2C492.3 711 541.7 675 590.8 677.7C640 680.3 689 721.7 738.2 721.2C787.3 720.7 836.7 678.3 886 666C935.3 653.7 984.7 671.3 1034 676C1083.3 680.7 1132.7 672.3 1181.8 682.7C1231 693 1280 722 1329.2 730.2C1378.3 738.3 1427.7 725.7 1477 720.2C1526.3 714.7 1575.7 716.3 1624.8 720.3C1674 724.3 1723 730.7 1772.2 717.5C1821.3 704.3 1870.7 671.7 1895.3 655.3L1920 639L1920 1081L1895.3 1081C1870.7 1081 1821.3 1081 1772.2 1081C1723 1081 1674 1081 1624.8 1081C1575.7 1081 1526.3 1081 1477 1081C1427.7 1081 1378.3 1081 1329.2 1081C1280 1081 1231 1081 1181.8 1081C1132.7 1081 1083.3 1081 1034 1081C984.7 1081 935.3 1081 886 1081C836.7 1081 787.3 1081 738.2 1081C689 1081 640 1081 590.8 1081C541.7 1081 492.3 1081 443 1081C393.7 1081 344.3 1081 295.2 1081C246 1081 197 1081 147.8 1081C98.7 1081 49.3 1081 24.7 1081L0 1081Z" fill="#5776e7"></path><path d="M0 713L24.7 709.7C49.3 706.3 98.7 699.7 147.8 719.2C197 738.7 246 784.3 295.2 808C344.3 831.7 393.7 833.3 443 829.3C492.3 825.3 541.7 815.7 590.8 798C640 780.3 689 754.7 738.2 739C787.3 723.3 836.7 717.7 886 723.3C935.3 729 984.7 746 1034 762.7C1083.3 779.3 1132.7 795.7 1181.8 805C1231 814.3 1280 816.7 1329.2 812.8C1378.3 809 1427.7 799 1477 802.5C1526.3 806 1575.7 823 1624.8 807C1674 791 1723 742 1772.2 723.7C1821.3 705.3 1870.7 717.7 1895.3 723.8L1920 730L1920 1081L1895.3 1081C1870.7 1081 1821.3 1081 1772.2 1081C1723 1081 1674 1081 1624.8 1081C1575.7 1081 1526.3 1081 1477 1081C1427.7 1081 1378.3 1081 1329.2 1081C1280 1081 1231 1081 1181.8 1081C1132.7 1081 1083.3 1081 1034 1081C984.7 1081 935.3 1081 886 1081C836.7 1081 787.3 1081 738.2 1081C689 1081 640 1081 590.8 1081C541.7 1081 492.3 1081 443 1081C393.7 1081 344.3 1081 295.2 1081C246 1081 197 1081 147.8 1081C98.7 1081 49.3 1081 24.7 1081L0 1081Z" fill="#5865de"></path><path d="M0 819L24.7 815.7C49.3 812.3 98.7 805.7 147.8 821C197 836.3 246 873.7 295.2 875C344.3 876.3 393.7 841.7 443 834.2C492.3 826.7 541.7 846.3 590.8 858.7C640 871 689 876 738.2 883.5C787.3 891 836.7 901 886 904.3C935.3 907.7 984.7 904.3 1034 891.2C1083.3 878 1132.7 855 1181.8 845.7C1231 836.3 1280 840.7 1329.2 853.8C1378.3 867 1427.7 889 1477 878.2C1526.3 867.3 1575.7 823.7 1624.8 804.5C1674 785.3 1723 790.7 1772.2 793.8C1821.3 797 1870.7 798 1895.3 798.5L1920 799L1920 1081L1895.3 1081C1870.7 1081 1821.3 1081 1772.2 1081C1723 1081 1674 1081 1624.8 1081C1575.7 1081 1526.3 1081 1477 1081C1427.7 1081 1378.3 1081 1329.2 1081C1280 1081 1231 1081 1181.8 1081C1132.7 1081 1083.3 1081 1034 1081C984.7 1081 935.3 1081 886 1081C836.7 1081 787.3 1081 738.2 1081C689 1081 640 1081 590.8 1081C541.7 1081 492.3 1081 443 1081C393.7 1081 344.3 1081 295.2 1081C246 1081 197 1081 147.8 1081C98.7 1081 49.3 1081 24.7 1081L0 1081Z" fill="#5c53d4"></path><path d="M0 966L24.7 960.3C49.3 954.7 98.7 943.3 147.8 934.8C197 926.3 246 920.7 295.2 920.7C344.3 920.7 393.7 926.3 443 929C492.3 931.7 541.7 931.3 590.8 939.7C640 948 689 965 738.2 953.5C787.3 942 836.7 902 886 887.5C935.3 873 984.7 884 1034 904.2C1083.3 924.3 1132.7 953.7 1181.8 960C1231 966.3 1280 949.7 1329.2 928.3C1378.3 907 1427.7 881 1477 879C1526.3 877 1575.7 899 1624.8 917.3C1674 935.7 1723 950.3 1772.2 960.8C1821.3 971.3 1870.7 977.7 1895.3 980.8L1920 984L1920 1081L1895.3 1081C1870.7 1081 1821.3 1081 1772.2 1081C1723 1081 1674 1081 1624.8 1081C1575.7 1081 1526.3 1081 1477 1081C1427.7 1081 1378.3 1081 1329.2 1081C1280 1081 1231 1081 1181.8 1081C1132.7 1081 1083.3 1081 1034 1081C984.7 1081 935.3 1081 886 1081C836.7 1081 787.3 1081 738.2 1081C689 1081 640 1081 590.8 1081C541.7 1081 492.3 1081 443 1081C393.7 1081 344.3 1081 295.2 1081C246 1081 197 1081 147.8 1081C98.7 1081 49.3 1081 24.7 1081L0 1081Z" fill="#623ec7"></path><path d="M0 1052L24.7 1037.5C49.3 1023 98.7 994 147.8 993.7C197 993.3 246 1021.7 295.2 1026.2C344.3 1030.7 393.7 1011.3 443 1001C492.3 990.7 541.7 989.3 590.8 993.8C640 998.3 689 1008.7 738.2 1006.2C787.3 1003.7 836.7 988.3 886 986.7C935.3 985 984.7 997 1034 1005.5C1083.3 1014 1132.7 1019 1181.8 1012.8C1231 1006.7 1280 989.3 1329.2 985.3C1378.3 981.3 1427.7 990.7 1477 1000.7C1526.3 1010.7 1575.7 1021.3 1624.8 1024C1674 1026.7 1723 1021.3 1772.2 1018.8C1821.3 1016.3 1870.7 1016.7 1895.3 1016.8L1920 1017L1920 1081L1895.3 1081C1870.7 1081 1821.3 1081 1772.2 1081C1723 1081 1674 1081 1624.8 1081C1575.7 1081 1526.3 1081 1477 1081C1427.7 1081 1378.3 1081 1329.2 1081C1280 1081 1231 1081 1181.8 1081C1132.7 1081 1083.3 1081 1034 1081C984.7 1081 935.3 1081 886 1081C836.7 1081 787.3 1081 738.2 1081C689 1081 640 1081 590.8 1081C541.7 1081 492.3 1081 443 1081C393.7 1081 344.3 1081 295.2 1081C246 1081 197 1081 147.8 1081C98.7 1081 49.3 1081 24.7 1081L0 1081Z" fill="#6824b9"></path></svg>