<svg id="visual" viewBox="0 0 1920 1080" width="1920" height="1080" xmlns="http://www.w3.org/2000/svg" xmlns:xlink="http://www.w3.org/1999/xlink" version="1.1"><rect x="0" y="0" width="1920" height="1080" fill="#001220"></rect><path d="M0 513L24.7 505.7C49.3 498.3 98.7 483.7 147.8 462.3C197 441 246 413 295.2 426.7C344.3 440.3 393.7 495.7 443 522.7C492.3 549.7 541.7 548.3 590.8 530.5C640 512.7 689 478.3 738.2 460.7C787.3 443 836.7 442 886 459.2C935.3 476.3 984.7 511.7 1034 522.2C1083.3 532.7 1132.7 518.3 1181.8 497.2C1231 476 1280 448 1329.2 444.3C1378.3 440.7 1427.7 461.3 1477 478C1526.3 494.7 1575.7 507.3 1624.8 507.8C1674 508.3 1723 496.7 1772.2 471.8C1821.3 447 1870.7 409 1895.3 390L1920 371L1920 1081L1895.3 1081C1870.7 1081 1821.3 1081 1772.2 1081C1723 1081 1674 1081 1624.8 1081C1575.7 1081 1526.3 1081 1477 1081C1427.7 1081 1378.3 1081 1329.2 1081C1280 1081 1231 1081 1181.8 1081C1132.7 1081 1083.3 1081 1034 1081C984.7 1081 935.3 1081 886 1081C836.7 1081 787.3 1081 738.2 1081C689 1081 640 1081 590.8 1081C541.7 1081 492.3 1081 443 1081C393.7 1081 344.3 1081 295.2 1081C246 1081 197 1081 147.8 1081C98.7 1081 49.3 1081 24.7 1081L0 1081Z" fill="#69a6fa"></path><path d="M0 503L24.7 501.8C49.3 500.7 98.7 498.3 147.8 503.8C197 509.3 246 522.7 295.2 522C344.3 521.3 393.7 506.7 443 502C492.3 497.3 541.7 502.7 590.8 496.8C640 491 689 474 738.2 488.3C787.3 502.7 836.7 548.3 886 571.8C935.3 595.3 984.7 596.7 1034 576.2C1083.3 555.7 1132.7 513.3 1181.8 510.7C1231 508 1280 545 1329.2 544.2C1378.3 543.3 1427.7 504.7 1477 484.5C1526.3 464.3 1575.7 462.7 1624.8 490.7C1674 518.7 1723 576.3 1772.2 597.8C1821.3 619.3 1870.7 604.7 1895.3 597.3L1920 590L1920 1081L1895.3 1081C1870.7 1081 1821.3 1081 1772.2 1081C1723 1081 1674 1081 1624.8 1081C1575.7 1081 1526.3 1081 1477 1081C1427.7 1081 1378.3 1081 1329.2 1081C1280 1081 1231 1081 1181.8 1081C1132.7 1081 1083.3 1081 1034 1081C984.7 1081 935.3 1081 886 1081C836.7 1081 787.3 1081 738.2 1081C689 1081 640 1081 590.8 1081C541.7 1081 492.3 1081 443 1081C393.7 1081 344.3 1081 295.2 1081C246 1081 197 1081 147.8 1081C98.7 1081 49.3 1081 24.7 1081L0 1081Z" fill="#5f97f5"></path><path d="M0 590L24.7 594.8C49.3 599.7 98.7 609.3 147.8 620.7C197 632 246 645 295.2 650.8C344.3 656.7 393.7 655.3 443 656.2C492.3 657 541.7 660 590.8 648.8C640 637.7 689 612.3 738.2 598.8C787.3 585.3 836.7 583.7 886 587.8C935.3 592 984.7 602 1034 607.3C1083.3 612.7 1132.7 613.3 1181.8 615.5C1231 617.7 1280 621.3 1329.2 635.8C1378.3 650.3 1427.7 675.7 1477 674.8C1526.3 674 1575.7 647 1624.8 646C1674 645 1723 670 1772.2 656.7C1821.3 643.3 1870.7 591.7 1895.3 565.8L1920 540L1920 1081L1895.3 1081C1870.7 1081 1821.3 1081 1772.2 1081C1723 1081 1674 1081 1624.8 1081C1575.7 1081 1526.3 1081 1477 1081C1427.7 1081 1378.3 1081 1329.2 1081C1280 1081 1231 1081 1181.8 1081C1132.7 1081 1083.3 1081 1034 1081C984.7 1081 935.3 1081 886 1081C836.7 1081 787.3 1081 738.2 1081C689 1081 640 1081 590.8 1081C541.7 1081 492.3 1081 443 1081C393.7 1081 344.3 1081 295.2 1081C246 1081 197 1081 147.8 1081C98.7 1081 49.3 1081 24.7 1081L0 1081Z" fill="#5887ef"></path><path d="M0 760L24.7 735.8C49.3 711.7 98.7 663.3 147.8 647C197 630.7 246 646.3 295.2 645.8C344.3 645.3 393.7 628.7 443 623.3C492.3 618 541.7 624 590.8 638.7C640 653.3 689 676.7 738.2 695.5C787.3 714.3 836.7 728.7 886 722.8C935.3 717 984.7 691 1034 687.8C1083.3 684.7 1132.7 704.3 1181.8 703.8C1231 703.3 1280 682.7 1329.2 671.8C1378.3 661 1427.7 660 1477 659C1526.3 658 1575.7 657 1624.8 660.7C1674 664.3 1723 672.7 1772.2 676C1821.3 679.3 1870.7 677.7 1895.3 676.8L1920 676L1920 1081L1895.3 1081C1870.7 1081 1821.3 1081 1772.2 1081C1723 1081 1674 1081 1624.8 1081C1575.7 1081 1526.3 1081 1477 1081C1427.7 1081 1378.3 1081 1329.2 1081C1280 1081 1231 1081 1181.8 1081C1132.7 1081 1083.3 1081 1034 1081C984.7 1081 935.3 1081 886 1081C836.7 1081 787.3 1081 738.2 1081C689 1081 640 1081 590.8 1081C541.7 1081 492.3 1081 443 1081C393.7 1081 344.3 1081 295.2 1081C246 1081 197 1081 147.8 1081C98.7 1081 49.3 1081 24.7 1081L0 1081Z" fill="#5776e7"></path><path d="M0 743L24.7 744.3C49.3 745.7 98.7 748.3 147.8 759.7C197 771 246 791 295.2 788.5C344.3 786 393.7 761 443 765C492.3 769 541.7 802 590.8 810.8C640 819.7 689 804.3 738.2 788.3C787.3 772.3 836.7 755.7 886 746.2C935.3 736.7 984.7 734.3 1034 733.3C1083.3 732.3 1132.7 732.7 1181.8 739C1231 745.3 1280 757.7 1329.2 775.2C1378.3 792.7 1427.7 815.3 1477 817C1526.3 818.7 1575.7 799.3 1624.8 792.7C1674 786 1723 792 1772.2 801.2C1821.3 810.3 1870.7 822.7 1895.3 828.8L1920 835L1920 1081L1895.3 1081C1870.7 1081 1821.3 1081 1772.2 1081C1723 1081 1674 1081 1624.8 1081C1575.7 1081 1526.3 1081 1477 1081C1427.7 1081 1378.3 1081 1329.2 1081C1280 1081 1231 1081 1181.8 1081C1132.7 1081 1083.3 1081 1034 1081C984.7 1081 935.3 1081 886 1081C836.7 1081 787.3 1081 738.2 1081C689 1081 640 1081 590.8 1081C541.7 1081 492.3 1081 443 1081C393.7 1081 344.3 1081 295.2 1081C246 1081 197 1081 147.8 1081C98.7 1081 49.3 1081 24.7 1081L0 1081Z" fill="#5865de"></path><path d="M0 832L24.7 825.2C49.3 818.3 98.7 804.7 147.8 798.2C197 791.7 246 792.3 295.2 793C344.3 793.7 393.7 794.3 443 793.8C492.3 793.3 541.7 791.7 590.8 804.8C640 818 689 846 738.2 854C787.3 862 836.7 850 886 834.5C935.3 819 984.7 800 1034 802.7C1083.3 805.3 1132.7 829.7 1181.8 844C1231 858.3 1280 862.7 1329.2 854.2C1378.3 845.7 1427.7 824.3 1477 823.3C1526.3 822.3 1575.7 841.7 1624.8 845.8C1674 850 1723 839 1772.2 842.8C1821.3 846.7 1870.7 865.3 1895.3 874.7L1920 884L1920 1081L1895.3 1081C1870.7 1081 1821.3 1081 1772.2 1081C1723 1081 1674 1081 1624.8 1081C1575.7 1081 1526.3 1081 1477 1081C1427.7 1081 1378.3 1081 1329.2 1081C1280 1081 1231 1081 1181.8 1081C1132.7 1081 1083.3 1081 1034 1081C984.7 1081 935.3 1081 886 1081C836.7 1081 787.3 1081 738.2 1081C689 1081 640 1081 590.8 1081C541.7 1081 492.3 1081 443 1081C393.7 1081 344.3 1081 295.2 1081C246 1081 197 1081 147.8 1081C98.7 1081 49.3 1081 24.7 1081L0 1081Z" fill="#5c53d4"></path><path d="M0 898L24.7 899.8C49.3 901.7 98.7 905.3 147.8 901C197 896.7 246 884.3 295.2 893C344.3 901.7 393.7 931.3 443 934.5C492.3 937.7 541.7 914.3 590.8 910.8C640 907.3 689 923.7 738.2 921C787.3 918.3 836.7 896.7 886 891.3C935.3 886 984.7 897 1034 900.2C1083.3 903.3 1132.7 898.7 1181.8 897.2C1231 895.7 1280 897.3 1329.2 898.2C1378.3 899 1427.7 899 1477 897.7C1526.3 896.3 1575.7 893.7 1624.8 889.3C1674 885 1723 879 1772.2 885.7C1821.3 892.3 1870.7 911.7 1895.3 921.3L1920 931L1920 1081L1895.3 1081C1870.7 1081 1821.3 1081 1772.2 1081C1723 1081 1674 1081 1624.8 1081C1575.7 1081 1526.3 1081 1477 1081C1427.7 1081 1378.3 1081 1329.2 1081C1280 1081 1231 1081 1181.8 1081C1132.7 1081 1083.3 1081 1034 1081C984.7 1081 935.3 1081 886 1081C836.7 1081 787.3 1081 738.2 1081C689 1081 640 1081 590.8 1081C541.7 1081 492.3 1081 443 1081C393.7 1081 344.3 1081 295.2 1081C246 1081 197 1081 147.8 1081C98.7 1081 49.3 1081 24.7 1081L0 1081Z" fill="#623ec7"></path><path d="M0 955L24.7 960.3C49.3 965.7 98.7 976.3 147.8 992C197 1007.7 246 1028.3 295.2 1021.3C344.3 1014.3 393.7 979.7 443 975.7C492.3 971.7 541.7 998.3 590.8 1010.8C640 1023.3 689 1021.7 738.2 1014.7C787.3 1007.7 836.7 995.3 886 990.3C935.3 985.3 984.7 987.7 1034 984.7C1083.3 981.7 1132.7 973.3 1181.8 977.3C1231 981.3 1280 997.7 1329.2 993.3C1378.3 989 1427.7 964 1477 957.5C1526.3 951 1575.7 963 1624.8 971.5C1674 980 1723 985 1772.2 989.2C1821.3 993.3 1870.7 996.7 1895.3 998.3L1920 1000L1920 1081L1895.3 1081C1870.7 1081 1821.3 1081 1772.2 1081C1723 1081 1674 1081 1624.8 1081C1575.7 1081 1526.3 1081 1477 1081C1427.7 1081 1378.3 1081 1329.2 1081C1280 1081 1231 1081 1181.8 1081C1132.7 1081 1083.3 1081 1034 1081C984.7 1081 935.3 1081 886 1081C836.7 1081 787.3 1081 738.2 1081C689 1081 640 1081 590.8 1081C541.7 1081 492.3 1081 443 1081C393.7 1081 344.3 1081 295.2 1081C246 1081 197 1081 147.8 1081C98.7 1081 49.3 1081 24.7 1081L0 1081Z" fill="#6824b9"></path></svg>