<svg id="visual" viewBox="0 0 1920 1080" width="1920" height="1080" xmlns="http://www.w3.org/2000/svg" xmlns:xlink="http://www.w3.org/1999/xlink" version="1.1"><rect x="0" y="0" width="1920" height="1080" fill="#001220"></rect><path d="M0 483L24.7 482.7C49.3 482.3 98.7 481.7 147.8 488C197 494.3 246 507.7 295.2 496.5C344.3 485.3 393.7 449.7 443 445.8C492.3 442 541.7 470 590.8 486.5C640 503 689 508 738.2 488.8C787.3 469.7 836.7 426.3 886 405.2C935.3 384 984.7 385 1034 410.7C1083.3 436.3 1132.7 486.7 1181.8 499.8C1231 513 1280 489 1329.2 468.2C1378.3 447.3 1427.7 429.7 1477 436.2C1526.3 442.7 1575.7 473.3 1624.8 476.3C1674 479.3 1723 454.7 1772.2 438.7C1821.3 422.7 1870.7 415.3 1895.3 411.7L1920 408L1920 1081L1895.3 1081C1870.7 1081 1821.3 1081 1772.2 1081C1723 1081 1674 1081 1624.8 1081C1575.7 1081 1526.3 1081 1477 1081C1427.7 1081 1378.3 1081 1329.2 1081C1280 1081 1231 1081 1181.8 1081C1132.7 1081 1083.3 1081 1034 1081C984.7 1081 935.3 1081 886 1081C836.7 1081 787.3 1081 738.2 1081C689 1081 640 1081 590.8 1081C541.7 1081 492.3 1081 443 1081C393.7 1081 344.3 1081 295.2 1081C246 1081 197 1081 147.8 1081C98.7 1081 49.3 1081 24.7 1081L0 1081Z" fill="#69a6fa"></path><path d="M0 473L24.7 474C49.3 475 98.7 477 147.8 502.2C197 527.3 246 575.7 295.2 577.8C344.3 580 393.7 536 443 507.2C492.3 478.3 541.7 464.7 590.8 482.3C640 500 689 549 738.2 550.2C787.3 551.3 836.7 504.7 886 500.2C935.3 495.7 984.7 533.3 1034 543.7C1083.3 554 1132.7 537 1181.8 532.2C1231 527.3 1280 534.7 1329.2 526C1378.3 517.3 1427.7 492.7 1477 481.7C1526.3 470.7 1575.7 473.3 1624.8 497.2C1674 521 1723 566 1772.2 586.8C1821.3 607.7 1870.7 604.3 1895.3 602.7L1920 601L1920 1081L1895.3 1081C1870.7 1081 1821.3 1081 1772.2 1081C1723 1081 1674 1081 1624.8 1081C1575.7 1081 1526.3 1081 1477 1081C1427.7 1081 1378.3 1081 1329.2 1081C1280 1081 1231 1081 1181.8 1081C1132.7 1081 1083.3 1081 1034 1081C984.7 1081 935.3 1081 886 1081C836.7 1081 787.3 1081 738.2 1081C689 1081 640 1081 590.8 1081C541.7 1081 492.3 1081 443 1081C393.7 1081 344.3 1081 295.2 1081C246 1081 197 1081 147.8 1081C98.7 1081 49.3 1081 24.7 1081L0 1081Z" fill="#5f97f5"></path><path d="M0 629L24.7 620.7C49.3 612.3 98.7 595.7 147.8 583C197 570.3 246 561.7 295.2 560.5C344.3 559.3 393.7 565.7 443 583.3C492.3 601 541.7 630 590.8 649.7C640 669.3 689 679.7 738.2 661.8C787.3 644 836.7 598 886 587.2C935.3 576.3 984.7 600.7 1034 605C1083.3 609.3 1132.7 593.7 1181.8 602C1231 610.3 1280 642.7 1329.2 638.5C1378.3 634.3 1427.7 593.7 1477 574.5C1526.3 555.3 1575.7 557.7 1624.8 582.8C1674 608 1723 656 1772.2 659.2C1821.3 662.3 1870.7 620.7 1895.3 599.8L1920 579L1920 1081L1895.3 1081C1870.7 1081 1821.3 1081 1772.2 1081C1723 1081 1674 1081 1624.8 1081C1575.7 1081 1526.3 1081 1477 1081C1427.7 1081 1378.3 1081 1329.2 1081C1280 1081 1231 1081 1181.8 1081C1132.7 1081 1083.3 1081 1034 1081C984.7 1081 935.3 1081 886 1081C836.7 1081 787.3 1081 738.2 1081C689 1081 640 1081 590.8 1081C541.7 1081 492.3 1081 443 1081C393.7 1081 344.3 1081 295.2 1081C246 1081 197 1081 147.8 1081C98.7 1081 49.3 1081 24.7 1081L0 1081Z" fill="#5887ef"></path><path d="M0 761L24.7 747C49.3 733 98.7 705 147.8 697.2C197 689.3 246 701.7 295.2 713.3C344.3 725 393.7 736 443 743.5C492.3 751 541.7 755 590.8 749.8C640 744.7 689 730.3 738.2 722.7C787.3 715 836.7 714 886 714.5C935.3 715 984.7 717 1034 722.3C1083.3 727.7 1132.7 736.3 1181.8 738.8C1231 741.3 1280 737.7 1329.2 716.2C1378.3 694.7 1427.7 655.3 1477 636.7C1526.3 618 1575.7 620 1624.8 627.2C1674 634.3 1723 646.7 1772.2 664.3C1821.3 682 1870.7 705 1895.3 716.5L1920 728L1920 1081L1895.3 1081C1870.7 1081 1821.3 1081 1772.2 1081C1723 1081 1674 1081 1624.8 1081C1575.7 1081 1526.3 1081 1477 1081C1427.7 1081 1378.3 1081 1329.2 1081C1280 1081 1231 1081 1181.8 1081C1132.7 1081 1083.3 1081 1034 1081C984.7 1081 935.3 1081 886 1081C836.7 1081 787.3 1081 738.2 1081C689 1081 640 1081 590.8 1081C541.7 1081 492.3 1081 443 1081C393.7 1081 344.3 1081 295.2 1081C246 1081 197 1081 147.8 1081C98.7 1081 49.3 1081 24.7 1081L0 1081Z" fill="#5776e7"></path><path d="M0 812L24.7 814.8C49.3 817.7 98.7 823.3 147.8 824.8C197 826.3 246 823.7 295.2 825.7C344.3 827.7 393.7 834.3 443 823.5C492.3 812.7 541.7 784.3 590.8 772.2C640 760 689 764 738.2 759.7C787.3 755.3 836.7 742.7 886 747.3C935.3 752 984.7 774 1034 787.7C1083.3 801.3 1132.7 806.7 1181.8 804.7C1231 802.7 1280 793.3 1329.2 785.5C1378.3 777.7 1427.7 771.3 1477 765.5C1526.3 759.7 1575.7 754.3 1624.8 767C1674 779.7 1723 810.3 1772.2 805C1821.3 799.7 1870.7 758.3 1895.3 737.7L1920 717L1920 1081L1895.3 1081C1870.7 1081 1821.3 1081 1772.2 1081C1723 1081 1674 1081 1624.8 1081C1575.7 1081 1526.3 1081 1477 1081C1427.7 1081 1378.3 1081 1329.2 1081C1280 1081 1231 1081 1181.8 1081C1132.7 1081 1083.3 1081 1034 1081C984.7 1081 935.3 1081 886 1081C836.7 1081 787.3 1081 738.2 1081C689 1081 640 1081 590.8 1081C541.7 1081 492.3 1081 443 1081C393.7 1081 344.3 1081 295.2 1081C246 1081 197 1081 147.8 1081C98.7 1081 49.3 1081 24.7 1081L0 1081Z" fill="#5865de"></path><path d="M0 818L24.7 822C49.3 826 98.7 834 147.8 840.2C197 846.3 246 850.7 295.2 861C344.3 871.3 393.7 887.7 443 892.8C492.3 898 541.7 892 590.8 888.7C640 885.3 689 884.7 738.2 869.3C787.3 854 836.7 824 886 817.8C935.3 811.7 984.7 829.3 1034 848.3C1083.3 867.3 1132.7 887.7 1181.8 876.5C1231 865.3 1280 822.7 1329.2 821.5C1378.3 820.3 1427.7 860.7 1477 872.7C1526.3 884.7 1575.7 868.3 1624.8 859.8C1674 851.3 1723 850.7 1772.2 851.7C1821.3 852.7 1870.7 855.3 1895.3 856.7L1920 858L1920 1081L1895.3 1081C1870.7 1081 1821.3 1081 1772.2 1081C1723 1081 1674 1081 1624.8 1081C1575.7 1081 1526.3 1081 1477 1081C1427.7 1081 1378.3 1081 1329.2 1081C1280 1081 1231 1081 1181.8 1081C1132.7 1081 1083.3 1081 1034 1081C984.7 1081 935.3 1081 886 1081C836.7 1081 787.3 1081 738.2 1081C689 1081 640 1081 590.8 1081C541.7 1081 492.3 1081 443 1081C393.7 1081 344.3 1081 295.2 1081C246 1081 197 1081 147.8 1081C98.7 1081 49.3 1081 24.7 1081L0 1081Z" fill="#5c53d4"></path><path d="M0 897L24.7 896.7C49.3 896.3 98.7 895.7 147.8 909C197 922.3 246 949.7 295.2 945C344.3 940.3 393.7 903.7 443 889.8C492.3 876 541.7 885 590.8 892.3C640 899.7 689 905.3 738.2 916.7C787.3 928 836.7 945 886 945.5C935.3 946 984.7 930 1034 933.2C1083.3 936.3 1132.7 958.7 1181.8 959.3C1231 960 1280 939 1329.2 933.2C1378.3 927.3 1427.7 936.7 1477 930C1526.3 923.3 1575.7 900.7 1624.8 895.5C1674 890.3 1723 902.7 1772.2 909.3C1821.3 916 1870.7 917 1895.3 917.5L1920 918L1920 1081L1895.3 1081C1870.7 1081 1821.3 1081 1772.2 1081C1723 1081 1674 1081 1624.8 1081C1575.7 1081 1526.3 1081 1477 1081C1427.7 1081 1378.3 1081 1329.2 1081C1280 1081 1231 1081 1181.8 1081C1132.7 1081 1083.3 1081 1034 1081C984.7 1081 935.3 1081 886 1081C836.7 1081 787.3 1081 738.2 1081C689 1081 640 1081 590.8 1081C541.7 1081 492.3 1081 443 1081C393.7 1081 344.3 1081 295.2 1081C246 1081 197 1081 147.8 1081C98.7 1081 49.3 1081 24.7 1081L0 1081Z" fill="#623ec7"></path><path d="M0 1042L24.7 1029.3C49.3 1016.7 98.7 991.3 147.8 989C197 986.7 246 1007.3 295.2 1014.8C344.3 1022.3 393.7 1016.7 443 1008.5C492.3 1000.3 541.7 989.7 590.8 993.5C640 997.3 689 1015.7 738.2 1008.5C787.3 1001.3 836.7 968.7 886 953.2C935.3 937.7 984.7 939.3 1034 958.8C1083.3 978.3 1132.7 1015.7 1181.8 1027.5C1231 1039.3 1280 1025.7 1329.2 1025.7C1378.3 1025.7 1427.7 1039.3 1477 1038.3C1526.3 1037.3 1575.7 1021.7 1624.8 1009.5C1674 997.3 1723 988.7 1772.2 989.8C1821.3 991 1870.7 1002 1895.3 1007.5L1920 1013L1920 1081L1895.3 1081C1870.7 1081 1821.3 1081 1772.2 1081C1723 1081 1674 1081 1624.8 1081C1575.7 1081 1526.3 1081 1477 1081C1427.7 1081 1378.3 1081 1329.2 1081C1280 1081 1231 1081 1181.8 1081C1132.7 1081 1083.3 1081 1034 1081C984.7 1081 935.3 1081 886 1081C836.7 1081 787.3 1081 738.2 1081C689 1081 640 1081 590.8 1081C541.7 1081 492.3 1081 443 1081C393.7 1081 344.3 1081 295.2 1081C246 1081 197 1081 147.8 1081C98.7 1081 49.3 1081 24.7 1081L0 1081Z" fill="#6824b9"></path></svg>